<?xml version="1.0" encoding="UTF-8" standalone="no"?>
<svg
   xmlns:dc="http://purl.org/dc/elements/1.1/"
   xmlns:cc="http://creativecommons.org/ns#"
   xmlns:rdf="http://www.w3.org/1999/02/22-rdf-syntax-ns#"
   xmlns:svg="http://www.w3.org/2000/svg"
   xmlns="http://www.w3.org/2000/svg"
   xmlns:sodipodi="http://sodipodi.sourceforge.net/DTD/sodipodi-0.dtd"
   xmlns:inkscape="http://www.inkscape.org/namespaces/inkscape"
   inkscape:version="1.0 (4035a4fb49, 2020-05-01)"
   sodipodi:docname="circular_jigsaw.svg"
   id="svg8"
   version="1.1"
   viewBox="0 0 270.61511 271.198"
   height="271.198mm"
   width="270.61511mm">
  <defs
     id="defs2" />
  <sodipodi:namedview
     fit-margin-bottom="0"
     fit-margin-right="0"
     fit-margin-left="0"
     fit-margin-top="0"
     inkscape:window-maximized="1"
     inkscape:window-y="30"
     inkscape:window-x="0"
     inkscape:window-height="1373"
     inkscape:window-width="2560"
     showgrid="false"
     inkscape:document-rotation="0"
     inkscape:current-layer="layer2"
     inkscape:document-units="mm"
     inkscape:cy="740.2588"
     inkscape:cx="467.71012"
     inkscape:zoom="0.26146967"
     inkscape:pageshadow="2"
     inkscape:pageopacity="0.0"
     borderopacity="1.0"
     bordercolor="#666666"
     pagecolor="#ffffff"
     id="base" />
  <metadata
     id="metadata5">
    <rdf:RDF>
      <cc:Work
         rdf:about="">
        <dc:format>image/svg+xml</dc:format>
        <dc:type
           rdf:resource="http://purl.org/dc/dcmitype/StillImage" />
        <dc:title></dc:title>
      </cc:Work>
    </rdf:RDF>
  </metadata>
  <g
     transform="translate(-545.21912,-149.31783)"
     id="layer1"
     inkscape:groupmode="layer"
     inkscape:label="Layer 1">
    <path
       sodipodi:nodetypes="csscscccccccssscccsscscccsscc"
       d="m 784.13837,361.35973 c -2.46142,-1.96612 -5.74516,-4.60957 -8.99583,-5.05566 -2.72151,-0.37333 -2.79691,2.17779 -3.99733,3.85392 -1.52902,2.13466 -4.8469,2.08148 -6.85032,0.64956 -0.64135,-0.45826 -1.22952,-1.03558 -1.67984,-1.68355 -1.27503,-1.83488 -1.06442,-4.05686 0.88714,-5.29272 1.4478,-0.91705 4.16666,-1.35996 3.09907,-3.70285 -1.57877,-3.46366 -5.92005,-6.06584 -8.92122,-8.20208 -1.87854,-1.33694 -3.27449,-2.20742 -4.68538,-3.23109 -0.72615,0.56515 -1.25161,0.99245 -1.81596,1.64465 -1.87431,2.16561 -3.84122,5.2406 -6.20263,6.95087 -2.83607,2.05449 -2.46301,-2.67415 -3.76052,-3.98198 -1.82219,-1.83727 -4.56751,-0.45482 -6.28968,0.87418 -1.4814,1.14326 -4.09046,3.95817 -2.29711,5.8719 1.38271,1.47558 5.5028,1.54649 3.75576,4.57147 -1.55469,2.69187 -4.75377,4.46299 -7.27948,6.07325 -0.771,0.49133 -1.36393,0.95541 -1.85209,1.62665 1.20862,4.98396 7.11042,9.41361 7.84649,14.5251 0.44688,3.10489 -2.74955,1.71979 -4.39235,2.68287 -2.18599,1.28138 -1.20147,4.58232 -0.1524,6.3127 0.99483,1.64121 3.1959,3.49144 5.14033,2.18519 1.50971,-1.01441 2.01956,-3.71554 4.25793,-2.26245 3.08214,2.00078 5.33295,6.45239 7.06279,9.60252 1.1385,2.07275 1.82907,3.62903 2.7268,5.09587 0.78025,-0.43048 1.51765,-0.6223 2.38125,-1.14538 9.44165,-5.71818 18.29541,-13.17599 25.91885,-21.14841 2.93713,-3.07155 5.76103,-6.44737 8.3648,-9.78959 0.79825,-1.02473 1.61766,-2.43707 2.15674,-3.40174 -1.48258,-1.16469 -2.41392,-2.01586 -4.42581,-3.6232 z"
       style="fill:red;stroke:#020202;stroke-width:1"
       id="path499" />
    <path
       sodipodi:nodetypes="csssssscsscssscscsscsssccccccc"
       id="path509"
       d="m 649.65146,409.92427 c 0.93583,-3.25967 2.1926,-7.55253 1.36472,-10.84792 -0.81783,-3.25543 -3.81212,-1.47241 -6.04838,-2.38363 -2.36828,-0.96494 -2.5945,-3.91001 -2.11296,-6.08304 0.42889,-1.93516 2.03491,-4.15501 4.22937,-3.87085 2.40479,0.31141 4.33996,4.0296 6.75534,1.66317 2.39898,-2.35029 3.26602,-6.78206 3.87958,-9.96315 0.44477,-2.30558 0.7292,-4.26746 0.74216,-5.82083 3.68935,0.0786 9.262,3.30623 13.48872,1.61554 2.09365,-0.8374 0.48366,-2.72177 0.46567,-4.26138 -0.0265,-2.26748 2.52836,-3.51208 4.56644,-3.38322 1.88436,0.11932 4.31377,1.43774 3.75603,3.64781 -0.33179,1.31445 -2.00131,3.42926 -0.27729,4.45055 1.05014,0.62204 2.74717,0.31195 3.9296,0.31195 3.68749,0 6.4508,-0.79164 9.525,-0.79375 0.20029,1.55019 0.56224,3.24035 1.00621,5.55625 0.67389,3.51552 1.77403,8.68389 0.6731,12.17057 -0.889,2.81622 -2.9337,1.02817 -4.85431,0.9263 -1.43405,-0.0762 -2.61911,0.93186 -3.10515,2.24896 -0.21696,0.5879 -0.31327,1.22052 -0.27888,1.85208 0.13203,2.41988 1.48908,5.67135 4.17778,6.0251 2.64847,0.34845 4.20952,-2.17594 5.8711,1.11892 1.66608,3.30385 2.20292,7.46098 2.55058,11.11223 0.0884,0.92869 -0.0214,2.71198 0.35164,2.92497 -2.44132,1.16814 -9.19666,1.53065 -12.74207,1.57295 -4.23413,0.0503 -8.33729,0.43392 -12.43542,0.254 -0.85169,-0.037 -1.69889,-0.22755 -2.64583,-0.25135 -4.41299,-0.10584 -9.05643,-0.59796 -13.49375,-1.42875 -3.29777,-0.61648 -8.73919,-1.24619 -10.84792,-2.54265 0.22304,-1.72773 0.86572,-3.57981 1.50892,-5.82083 z"
       style="fill:red;stroke:#020202;stroke-width:1" />
    <path
       sodipodi:nodetypes="scccsccscccscscsccscccsssssscs"
       d="m 598.13629,392.12998 c -8.78152,-6.4262 -17.02594,-14.9225 -23.8117,-23.48071 -2.98053,-3.7592 -5.86103,-7.79542 -8.32253,-11.90625 -0.50471,-0.84297 -0.73517,-1.62058 -1.09721,-2.38125 1.61519,-0.85011 3.33268,-1.68461 5.45019,-2.87364 3.55838,-1.99787 8.59658,-4.54025 10.93946,-7.97428 2.26404,-3.31788 -5.66261,-3.95235 -2.00368,-8.17748 0.40904,-0.47228 0.86809,-0.8845 1.39329,-1.2237 1.73752,-1.12183 5.139,-2.13704 6.14336,0.40931 0.64029,1.62375 -0.45958,4.5974 2.31325,4.43363 3.08637,-0.18257 6.44234,-2.55905 8.99557,-4.12301 0.94403,-0.57811 2.35347,-1.49383 3.16839,-2.09655 0.68791,-0.5088 0.95064,-0.78264 1.52583,-1.16624 0.60931,0.60542 0.97258,0.99012 1.411,1.62936 1.28058,1.86743 3.47556,4.39208 5.5364,5.61446 4.66963,2.77045 3.45652,-6.52966 8.73125,-4.52755 0.68104,0.25849 1.28905,0.64849 1.85182,1.11283 0.7067,0.58341 1.36075,1.26074 1.86135,2.02962 0.3175,0.48789 0.60695,1.03426 0.79269,1.5875 1.77509,5.28982 -7.40199,3.28454 -6.26004,7.9375 0.84402,3.44038 5.59276,6.80323 8.10312,8.89397 0.67496,0.56224 1.06442,1.03188 1.51239,1.88842 -1.45784,3.67964 -5.02363,8.01113 -7.60067,10.64876 -0.91069,0.93213 -2.06825,2.38998 -3.43429,2.55667 -1.6682,0.20347 -1.99946,-2.07936 -3.1877,-2.89877 -2.05766,-1.41896 -4.69979,0.5961 -5.93328,2.19525 -1.32239,1.7145 -1.92246,4.58787 0.38973,5.73563 1.34144,0.66596 3.94414,0.10848 3.58802,2.46565 -0.71941,4.76224 -7.65678,12.43092 -9.96183,14.88705 -0.70194,-0.44027 -1.34514,-0.64796 -2.09418,-1.19618 z"
       style="fill:red;stroke:#020202;stroke-width:1"
       id="path489" />
    <path
       sodipodi:nodetypes="cssccscsccssssscssccccsccssccc"
       d="m 589.66963,262.64378 c -3.4544,-0.78026 -7.02072,-1.49252 -10.31875,-2.75537 -1.09247,-0.41831 -3.10912,-1.10173 -3.37053,-2.38866 -0.4064,-2.00052 3.65019,-3.78645 2.99005,-6.3254 -0.86756,-3.33771 -6.50769,-4.71937 -9.12891,-2.7379 -2.7473,2.07645 0.94138,5.68616 -0.92525,7.30408 -1.04032,0.9017 -3.1551,0.43022 -4.38203,0.27094 -3.60704,-0.46858 -7.08178,-1.28297 -10.58333,-2.23123 -0.83601,-0.22649 -1.84698,-0.50668 -2.64462,-0.75513 -0.58751,-0.18282 -1.58872,-0.52783 -1.58872,-0.52783 -1.12379,2.02697 -2.04507,7.95655 -2.57315,11.37709 -1.55488,10.07136 -1.46084,20.04509 -1.39581,30.1625 0.0182,2.82389 0.49924,5.66949 0.86847,8.46666 0.11181,0.84693 0.0193,1.64201 0.6141,2.10926 0.42434,0.33338 1.00999,0.26802 1.42827,0.24712 0.77182,-0.0386 1.81753,-0.19579 2.64562,-0.26247 3.52719,-0.28363 10.92174,-0.66066 13.37779,-3.50387 1.23436,-1.42902 -0.58225,-2.79083 -1.04384,-4.14629 -1.04158,-3.05858 1.81578,-5.17075 4.59939,-5.50756 2.24049,-0.27094 5.17392,0.43312 5.27605,3.12631 0.072,1.89045 -1.33112,4.53231 1.07897,5.51709 4.57677,1.86981 13.04475,-1.2528 16.66372,-1.54834 -0.006,-2.1717 -1.27132,-10.62302 0.75513,-13.74669 1.58855,-2.44872 3.4237,0.16431 5.33029,0.4609 3.08187,0.47969 5.1398,-2.61858 5.28108,-5.49962 0.14738,-3.00858 -0.95514,-6.9223 -4.75191,-6.22618 -1.66344,0.30506 -4.19762,2.17805 -5.68484,0.58579 -1.7563,-1.8804 -0.0791,-6.93076 0.2704,-8.91117 0.14844,-0.84005 0.11854,-1.35017 0.10517,-2.04669 -0.85526,0.13692 -1.80009,-0.26018 -2.89281,-0.50734 z"
       style="fill:red;stroke:#020202;stroke-width:1"
       id="path547" />
    <path
       sodipodi:nodetypes="ccccscssccscccssssccssccsccsscscc"
       d="m 630.60596,202.7556 c -1.78144,-3.10753 -4.50268,-7.38214 -4.12935,-11.1125 0.35771,-3.57663 4.40346,-2.00448 6.58071,-2.91279 1.77536,-0.74084 2.36538,-3.02128 2.02036,-4.76012 -0.16378,-0.82577 -0.52361,-1.65391 -0.94589,-2.38125 -0.43867,-0.75539 -0.99695,-1.48008 -1.62348,-2.08889 -0.46434,-0.45138 -0.97102,-0.83423 -1.56369,-1.09299 -4.83102,-2.11032 -5.03422,6.37513 -8.99583,5.38083 -3.7383,-0.93821 -6.57357,-6.27433 -8.35448,-9.3427 -0.87577,-1.50924 -1.79494,-2.99186 -2.49344,-4.7322 -0.97472,0.19102 -1.64491,0.48929 -2.38125,0.94474 -2.46432,1.52408 -5.0628,3.23712 -7.40833,4.97226 -10.25075,7.5819 -19.9345,16.28034 -27.5164,26.59645 -0.74665,1.016 -1.16655,1.92114 -1.69347,2.81649 1.34554,1.17635 2.72561,2.32966 4.60362,3.7944 2.89137,2.25504 7.01807,5.49142 10.84792,5.5454 5.14853,0.0725 2.08544,-8.13303 7.40833,-8.41401 0.72152,-0.0381 1.4306,0.12673 2.11667,0.37173 0.75882,0.27094 1.46341,0.66755 2.10635,1.15835 0.68394,0.52255 1.2565,1.16073 1.73857,1.87246 4.04813,5.9772 -6.39259,6.25501 -4.99903,11.11144 0.93689,3.26469 4.61301,5.86634 7.23952,7.74964 1.90659,1.36711 3.28798,2.25875 4.68419,3.40064 0.63024,-0.55779 1.09987,-1.03219 1.57321,-1.62935 1.68222,-2.12064 3.96531,-5.40623 6.70719,-6.27618 2.99799,-0.95118 3.68062,2.81834 4.88632,4.68233 1.98173,3.06335 5.94678,2.53682 8.33147,0.24739 0.62997,-0.60511 1.13718,-1.30043 1.51209,-2.08915 0.32041,-0.6739 0.54822,-1.37293 0.58711,-2.11667 0.25506,-4.87918 -7.52607,-3.40201 -7.12258,-7.67292 0.30665,-3.24829 4.94056,-5.7867 7.416,-7.3951 0.78529,-0.51012 1.36578,-0.98875 1.98438,-1.66459 -0.94747,-1.63283 -1.96347,-2.95098 -3.11679,-4.96314 z"
       style="fill:red;stroke:#020202;stroke-width:1"
       id="path543" />
    <path
       id="path447"
       d="m 813.50671,265.19718 c -2.92629,0 -8.91328,0.65908 -12.7,1.77826 -1.55681,0.46011 -3.42821,0.82101 -4.72705,1.87299 -1.98146,1.60496 0.0707,3.35783 0.58659,5.08 0.85407,2.85115 -1.75657,4.7625 -4.32621,5.17525 -2.97682,0.4781 -6.59341,-0.88106 -6.30025,-4.3815 0.10001,-1.19195 1.65152,-3.33719 0.8374,-4.38415 -0.74242,-0.95541 -2.45533,-0.90381 -3.53298,-0.90725 -3.28189,-0.0106 -6.5704,0.77867 -9.78958,1.34487 -0.74084,0.13044 -1.67429,0.35904 -2.38099,0.4662 -0.48974,0.0741 -1.01997,0.0529 -1.42795,0.46487 -0.68422,0.69136 -0.25559,1.69545 -0.18336,2.75088 0.20003,2.92364 0.56462,8.19917 -0.51408,10.8323 -0.93637,2.28627 -2.81755,-0.85169 -4.48945,-0.69268 -2.62943,0.24951 -3.9243,4.05051 -3.84731,6.26454 0.0185,0.53473 0.12621,1.08638 0.30533,1.58724 1.44039,4.02325 6.21453,-0.22569 7.60254,2.65774 1.39726,2.90248 -0.32121,9.58135 -0.88556,11.36544 1.48219,0.71437 3.16864,0.75062 5.29166,1.23031 3.00276,0.67866 7.20408,1.33932 9.46468,3.61924 1.95606,1.97273 -0.25877,3.47662 -1.18243,5.20462 -1.10384,2.06533 -0.15002,4.31112 1.77218,5.41549 0.6522,0.37465 1.37636,0.6395 2.1164,0.79745 0.69242,0.1479 1.41156,0.15055 2.11667,0.13309 6.81223,-0.16722 1.89018,-8.71405 8.46667,-8.98128 4.18571,-0.17013 8.78946,1.46711 12.7,2.72229 0.90752,0.29105 1.87589,0.65167 2.56646,0.20585 0.66145,-0.42862 0.68527,-1.03082 0.87312,-1.88039 0.55033,-2.49211 1.10067,-5.14721 1.52135,-7.67292 1.63513,-9.81313 2.31246,-20.20676 1.62984,-30.1625 -0.23284,-3.4208 -0.508,-9.93801 -1.56369,-11.90625"
       style="fill:red;stroke:#020202;stroke-width:1" />
    <path
       sodipodi:nodetypes="cssccccssscccccssccccsccccscc"
       d="m 790.22379,218.32952 c -2.9292,1.63407 -7.00802,3.84387 -8.61431,6.91568 -2.5646,4.90458 7.08052,6.27883 2.76569,10.83733 -0.5371,0.56753 -1.15543,1.06786 -1.8243,1.47135 -2.14604,1.29487 -6.54129,2.16509 -7.8015,-0.66834 -0.8935,-2.00845 0.5207,-5.79279 -2.78183,-5.9174 -4.57438,-0.17278 -11.65754,5.64594 -14.21739,7.27948 -0.65272,-0.585 -1.06944,-0.98108 -1.50151,-1.62931 -0.92789,-1.39197 -2.07142,-3.17553 -3.18267,-4.49394 -1.03902,-1.2327 -3.05779,-3.57664 -4.90987,-2.96704 -3.29777,1.08532 -3.33402,8.68177 -8.46746,5.61049 -0.57018,-0.34105 -1.06839,-0.80883 -1.48458,-1.32451 -1.8116,-2.24657 -2.33151,-6.0952 0.17277,-7.98936 1.55496,-1.1758 4.57809,-1.64094 4.39949,-4.1775 -0.27225,-3.8616 -6.70322,-6.14918 -8.41599,-9.06145 0.81901,-0.75724 1.38813,-2.7604 2.15331,-3.90313 1.9804,-2.95752 4.24444,-6.30714 7.40806,-8.06212 3.56976,-1.98015 4.00341,1.87536 6.35397,3.40465 1.61476,1.0504 3.47319,0.0246 4.74795,-1.06256 0.58129,-0.49557 1.06759,-1.04193 1.47426,-1.68937 1.43589,-2.28467 2.41908,-5.61313 -0.40931,-7.26625 -1.84944,-1.08082 -4.91543,-0.36989 -4.7326,-3.31602 0.21219,-3.42106 3.29935,-6.67967 5.29748,-9.26042 1.13163,-1.46182 2.34315,-2.75934 3.36927,-4.21751 0.81603,0.19627 1.50977,0.50875 2.15483,0.99187 1.37001,1.02579 2.89983,2.22515 4.23333,3.33508 10.83786,9.01964 20.60257,19.89005 27.99477,31.90504 0.5281,0.85831 0.85301,1.53379 1.21398,2.34347 -1.53319,1.05521 -3.25907,1.71958 -5.39584,2.91179 z"
       style="fill:red;stroke:#020202;stroke-width:1"
       id="path433" />
    <path
       id="path399"
       d="m 712.43629,154.33677 c -0.0397,0.45336 -0.0593,0.84404 -0.27517,1.58871 -0.36327,1.25183 -1.20703,3.65125 -1.54252,5.02587 -0.59902,2.45411 -1.33376,5.4351 -0.57864,7.93729 0.89693,2.97193 3.85339,1.67108 6.1005,2.39699 2.99746,0.96827 4.27725,4.23712 3.4282,7.12822 -0.89244,3.03874 -3.293,5.41575 -6.6032,4.31218 -1.98359,-0.66146 -3.47584,-3.42239 -5.50731,-1.37266 -2.55005,2.57281 -3.4155,7.40331 -4.17009,10.81881 -0.31909,1.44516 -0.20215,3.91319 -1.32636,4.79187 -0.56647,0.44291 -1.76504,0.20823 -2.48999,0.059 -2.1725,-0.44688 -6.95431,-2.40956 -8.83629,-0.43153 -1.06098,1.11548 0.23124,2.87575 0.49397,4.04733 0.43577,1.94336 -0.694,3.7211 -2.5056,4.49924 -2.89243,1.24248 -9.63295,0.83238 -10.10576,-3.17633 -0.20558,-1.74254 2.54079,-4.35451 1.27979,-5.70997 -2.27383,-2.44396 -8.26611,-0.66834 -11.01778,-0.42069 -0.694,0.0627 -1.21153,0.15108 -1.69254,-0.22675 -0.48207,-0.37861 -0.4535,-1.09511 -0.53896,-1.58035 -0.15054,-0.85381 -0.49583,-2.26113 -0.65669,-3.17474 -0.66966,-3.80682 -2.94111,-11.02571 -0.35878,-14.51689 1.71715,-2.32145 4.40717,0.34449 6.42197,0.67045 2.23758,0.36222 3.56235,-1.39197 4.17486,-3.35147 0.26961,-0.86175 0.3638,-1.7448 0.27781,-2.64584 -0.0871,-0.91146 -0.29818,-1.80916 -0.6649,-2.64583 -0.82391,-1.88018 -2.67308,-3.77052 -4.8461,-3.29851 -2.10635,0.45749 -4.36457,3.52259 -6.58681,2.00377 -3.01466,-2.0602 -3.37317,-8.63981 -3.68696,-11.93442 -0.0788,-0.82548 -0.26776,-2.84414 0.007,-3.28097 0.46884,-0.74491 1.61925,-0.59163 2.59344,-0.70107 2.98529,-0.33541 6.0243,-0.50538 8.99583,-0.856 10.31558,-1.21715 21.31854,0.0919 31.48542,1.86147 2.30029,0.40037 4.91887,0.88461 7.14375,1.49175 0.77205,0.21072 1.35625,0.47006 2.11667,0.6327"
       style="fill:red;stroke:#020202;stroke-width:1" />
    <path
       sodipodi:nodetypes="sccsscsssssccsscsscscccsscscsscsssssscs"
       style="fill:teal;stroke:#020202;stroke-width:1"
       d="m 699.47171,372.7302 c 3.90921,-1.07394 7.75546,-2.25663 11.64166,-3.39937 1.00965,-0.29712 2.23203,-0.74189 3.17445,-1.13136 0.5361,-0.22119 1.2436,-0.49238 1.4129,-1.16628 0.3138,-1.24857 -0.7728,-2.62969 -1.338,-3.94017 -1.40203,-3.25173 -2.91677,-6.53574 -4.82468,-9.525 -0.68871,-1.07924 -1.62851,-2.64452 -2.91862,-3.06732 -1.45785,-0.47757 -2.50375,2.59689 -3.7121,3.21072 -3.28771,1.67058 -6.03488,-3.33375 -6.18464,-5.96424 -0.13202,-2.31669 1.81531,-3.80365 4.07194,-3.65522 1.16576,0.0767 2.86809,0.66622 3.32476,-0.85831 1.07844,-3.59886 -1.9812,-9.01567 -3.52478,-12.15522 -0.60563,-1.23163 -2.09312,-3.54727 -1.66621,-4.60242 -3.67996,0.45587 -8.86686,4.58575 -13.20338,2.8186 -2.34182,-0.95435 -0.73369,-3.65548 -0.59451,-5.35993 0.21378,-2.61964 -2.90778,-4.5291 -5.23796,-4.4831 -0.64082,0.0124 -1.27556,0.12197 -1.85076,0.40137 -4.47067,2.17038 2.35453,7.65255 -1.0885,9.59062 -3.59224,2.02221 -10.67567,-1.81636 -13.37999,-1.80268 -0.28128,3.14051 -3.07581,8.41128 -4.64426,11.11056 -0.59796,1.02896 -1.43537,2.40982 -2.58472,2.88766 -1.46235,0.60775 -2.68393,-1.68989 -3.70496,-2.41141 -2.61831,-1.8505 -5.79781,-0.72602 -7.01595,2.16958 -1.31763,3.13267 0.0532,6.16109 3.57743,6.53415 1.23163,0.13044 3.12288,-0.69982 3.92139,0.64876 0.80248,1.35546 0.16457,3.32978 -0.18362,4.72334 -0.92737,3.71025 -2.26537,7.29853 -3.68485,10.84792 -0.47811,1.19539 -0.9533,3.43323 -1.67678,4.18976 1.55935,1.41745 4.8542,2.19559 6.91557,2.80149 0.8419,0.24765 1.8669,0.57494 2.63922,0.8419 0.63103,0.21829 0.94562,0.4109 1.32953,0.63342 3.68935,0.0786 9.262,3.30623 13.48872,1.61554 2.09365,-0.8374 0.48366,-2.72177 0.46567,-4.26138 -0.0265,-2.26748 2.52836,-3.51208 4.56644,-3.38322 1.88436,0.11932 4.31377,1.43774 3.75603,3.64781 -0.33179,1.31445 -2.00131,3.42926 -0.27729,4.45055 1.05014,0.62204 2.74717,0.31195 3.9296,0.31195 3.68749,0 6.4508,-0.79164 9.65729,-0.92604 1.42504,-0.38312 3.37132,-0.7792 5.42396,-1.34303 z"
       id="path566" />
    <path
       sodipodi:nodetypes="ccscsssccscssssssccssscssscccssssccc"
       id="path828"
       d="m 596.74322,318.37853 c -2.44952,-6.00525 -4.39738,-13.0929 -5.35383,-19.71146 -0.13827,-2.30399 -1.40359,-10.75531 0.62286,-13.87898 1.58855,-2.44872 3.4237,0.16431 5.33029,0.4609 3.08187,0.47969 5.1398,-2.61858 5.28108,-5.49962 0.14738,-3.00858 -0.95514,-6.9223 -4.75191,-6.22618 -1.66344,0.30506 -4.19762,2.17805 -5.68484,0.58579 -1.7563,-1.8804 -0.0791,-6.93076 0.2704,-8.91117 0.14844,-0.84005 0.11854,-1.35017 0.10517,-2.04669 0.76135,-0.50205 0.95846,-1.32385 1.25215,-2.18718 1.04007,-3.05832 1.8116,-6.8334 3.26337,-8.73125 0.4363,0.27755 0.75697,0.49001 1.58882,0.86518 3.41868,1.54253 9.95045,4.5429 14.02159,3.77323 5.1869,-0.98055 0.69956,-11.50197 7.9375,-9.5512 0.82259,0.22172 1.64307,0.49742 2.38125,0.93875 0.63739,0.381 1.25492,0.86412 1.76504,1.40467 4.60931,4.885 -7.1157,7.62079 -1.48987,12.12109 3.21098,2.56858 7.30673,4.03675 11.10192,5.47873 1.11231,0.42254 2.64054,1.30704 3.67596,1.1692 -0.19118,2.71701 -4.29513,11.0236 -2.43167,14.71745 0.78025,1.54702 2.87655,0.29607 4.04733,0.0127 2.69055,-0.6514 5.21599,1.08373 5.28743,3.99521 0.0177,0.72813 -0.005,1.43351 -0.25241,2.11667 -0.64135,1.77376 -2.13413,2.75087 -3.97669,2.15635 -1.12686,-0.36354 -2.66435,-1.75472 -3.85392,-0.86043 -2.23705,1.68196 0.65723,8.09758 1.29514,10.08116 0.27225,0.8464 0.33073,1.55469 0.56226,2.32511 -2.51855,1.76339 -10.44837,5.92688 -14.66716,5.59588 -2.26589,-0.17806 -0.73686,-3.29035 -1.29989,-4.74503 -1.10543,-2.8575 -4.8731,-2.47941 -7.1718,-1.4523 -0.62415,0.27887 -1.25518,0.63182 -1.77244,1.08347 -4.49263,3.92165 4.19867,5.59699 1.43404,8.80983 -2.53286,2.94349 -7.54645,4.65084 -11.03868,6.14971 -1.20386,0.51673 -3.3573,1.41631 -4.4913,1.78779 -0.81862,0.26779 -0.9742,0.23599 -1.54242,0.42153 -0.64838,-0.71671 -1.03732,-1.25037 -1.44477,-2.24891 z"
       style="fill:teal;stroke:#020202;stroke-width:1" />
    <path
       sodipodi:nodetypes="csccccscsccssscscsscscssssscscsscsccssscc"
       id="path804"
       d="m 767.73352,306.47218 c 0.5643,-1.78409 2.2828,-8.46296 0.8855,-11.36544 -1.388,-2.88343 -6.16207,1.36551 -7.60244,-2.65774 -0.1791,-0.50086 -0.2873,-1.05251 -0.3053,-1.58724 -0.077,-2.21403 1.21777,-6.01503 3.84727,-6.26454 1.6719,-0.15901 3.55307,2.97895 4.48937,0.69268 1.0787,-2.63313 0.7141,-7.90866 0.5141,-10.8323 -0.072,-1.05543 -0.5009,-2.05952 -0.029,-2.96289 -0.6846,-2.19109 -1.9358,-8.55776 -3.12237,-12.11826 -0.8792,-2.63816 -1.896,-5.91026 -2.9279,-8.4664 -0.3114,-0.77179 -0.7133,-1.25307 -1.1855,-1.90844 -0.55037,0.34925 -0.86257,0.60245 -1.70877,0.92763 -1.2377,0.47572 -2.9593,1.08796 -4.23197,1.62189 -2.9713,1.24698 -7.71837,2.89454 -9.25297,5.97323 -1.69837,3.40678 5.19317,5.01942 3.6944,8.73126 -0.7139,1.76741 -2.7385,2.94137 -4.4956,3.37608 -1.17947,0.29183 -1.92217,0.4355 -3.17497,0.27913 -1.3456,-0.16827 -2.70637,-0.94615 -3.10027,-2.33256 -0.6197,-2.18096 1.86867,-6.00234 -1.3978,-6.72095 -3.77037,-0.82947 -9.65514,2.54265 -12.96434,4.14364 -0.7479,0.36195 -1.64197,0.86281 -2.38117,1.16417 -0.5451,0.22225 -1.1642,0.47625 -1.6916,0.50007 0.2509,0.81411 0.3396,1.16839 0.5661,1.97299 0.2669,0.948 0.726,2.19128 1.0133,3.17368 0.7408,2.53312 2.10177,6.36666 1.2623,8.99451 -1.0948,3.42741 -4.0021,-0.24898 -5.91237,-0.2458 -2.9294,0.005 -3.3938,4.51617 -3.0588,6.59712 0.8067,5.01041 5.18447,2.853 7.76077,5.59144 1.63027,1.73355 0.6569,4.40319 0.067,6.31481 -0.2387,0.77285 -0.6575,1.84097 -0.1014,2.5101 0.8337,1.00277 2.73607,1.10437 4.06317,1.54675 2.88557,0.96203 7.23897,2.18202 9.17524,4.68498 1.3091,1.69228 -0.6517,2.63631 -1.68617,3.73962 -1.4873,1.58565 -1.7291,3.86953 -0.052,5.42317 1.71837,1.592 4.95157,2.3405 7.11084,1.22793 2.7318,-1.40785 1.0602,-6.72571 3.9741,-6.92256 4.14407,-0.27966 9.52334,2.77098 13.22771,4.42198 0.9247,0.41196 1.9722,1.01441 2.91037,1.33271 0.5548,0.18838 1.2197,0.40455 1.7926,0.16801 0.7561,-0.31195 0.9249,-1.16417 1.2059,-1.99311 0.8951,-2.64186 2.0424,-6.7048 2.82227,-8.46666"
       style="fill:teal;stroke:#020202;stroke-width:1" />
    <path
       sodipodi:nodetypes="ccccssssssscscsssscsscssssssssscscsccsssscc"
       id="path630"
       d="m 699.47171,197.02305 c 0.72495,0.14923 1.92352,0.38391 2.56791,0.19095 2.2991,1.61679 8.91976,2.8807 11.12401,4.70117 -1.19724,1.1082 -1.32371,2.59622 -1.89151,4.01545 -1.31101,3.27765 -4.4704,10.04252 -2.49661,13.47813 1.05278,1.83224 3.12182,0.61543 4.71911,0.57918 2.2445,-0.0508 3.6031,1.81795 3.3253,3.93435 -0.1056,0.8046 -0.2606,1.62269 -0.5694,2.38125 -0.3418,0.84005 -0.7602,1.63407 -1.2856,2.38019 -0.3625,0.51462 -0.75619,1.025 -1.25175,1.41976 -4.45664,3.55018 -6.02933,-5.51604 -9.73958,-2.86994 -2.12037,1.5121 -3.21204,4.44024 -4.19761,6.74291 -0.90964,2.12619 -1.85076,4.96702 -2.35876,7.14322 -0.19447,0.83344 -0.25903,1.32874 -0.32676,1.85261 -0.72285,-0.17806 -1.38007,-0.2495 -2.38125,-0.53948 -2.41459,-0.69956 -7.40966,-2.95725 -10.01898,-1.49305 -2.23626,1.25492 0.0844,4.11586 0.38655,5.7367 0.32147,1.72402 -0.97948,3.1324 -2.53841,3.67533 -0.69347,0.24156 -1.38668,0.28363 -2.11666,0.29236 -2.67124,0.0317 -6.02219,-0.89905 -5.79517,-4.23227 0.11192,-1.6428 2.55005,-4.42992 0.23362,-5.35993 -3.61897,-1.45283 -10.21185,2.33574 -12.90068,2.43561 -0.0364,-0.57931 -0.32002,-1.10265 -0.53115,-1.57361 -0.39291,-0.87604 -0.98425,-1.98888 -1.37928,-2.91042 -1.54384,-3.60018 -4.02272,-8.39496 -3.51684,-12.43542 0.39317,-3.14007 3.17183,-1.96188 5.36866,-2.14127 2.17223,-0.17753 3.70417,-1.53591 4.13306,-3.67956 0.17462,-0.87259 0.13996,-1.79996 -0.15531,-2.64583 -0.30136,-0.86281 -0.78476,-1.68619 -1.38827,-2.37728 -2.07486,-2.37526 -5.16678,-2.80653 -7.05961,-0.003 -0.91625,1.35704 -1.58697,3.94599 -3.73195,3.28797 -3.79254,-1.16337 -6.13145,-8.42274 -7.42447,-11.7557 -0.34661,-0.89323 -0.81095,-2.04099 -1.12104,-2.90539 -0.17913,-0.49927 -0.27438,-0.94774 -0.755,-1.2423 2.59703,-2.18104 10.44377,-4.51123 14.85676,-5.50976 2.81808,-0.63765 5.60202,-0.78688 7.6204,-1.98787 0.69307,0.37407 1.2106,0.28569 1.9046,0.22299 2.75167,-0.24765 8.74395,-2.02327 11.01778,0.42069 1.261,1.35546 -1.48537,3.96743 -1.27979,5.70997 0.47281,4.00871 7.21333,4.41881 10.10576,3.17633 1.8116,-0.77814 2.94137,-2.55588 2.5056,-4.49924 -0.26273,-1.17158 -1.55495,-2.93185 -0.49397,-4.04733 1.88198,-1.97803 6.66379,-0.0154 8.83629,0.43153"
       style="fill:teal;stroke:#020202;stroke-width:1" />
    <path
       sodipodi:nodetypes="ssccccsssssccsssssssssscsscsscsccsscs"
       id="path754"
       d="m 759.73108,326.8451 c -1.6322,3.26443 -3.50437,6.49764 -5.51757,9.525 -0.518,0.7792 -0.8363,1.61105 -1.4065,2.26907 -0.5387,0.62124 -1.0642,1.04854 -1.62847,1.70074 -1.8743,2.16561 -3.8412,5.2406 -6.20257,6.95087 -2.8361,2.05449 -2.4631,-2.67415 -3.7606,-3.98198 -1.82217,-1.83727 -4.56747,-0.45482 -6.28954,0.87418 -1.4814,1.14326 -4.0905,3.95817 -2.2972,5.8719 1.3828,1.47558 5.50277,1.54649 3.75577,4.57147 -1.55467,2.69187 -4.75377,4.46299 -7.27944,6.07325 -0.771,0.49133 -1.3639,0.95541 -2.1166,1.38906 -0.6308,0.36327 -1.2132,0.5633 -1.8521,0.87868 -2.54637,1.25598 -6.98574,3.96531 -9.21574,4.08014 0.094,-1.26286 -0.9926,-2.64398 -1.5578,-3.95446 -1.40207,-3.25173 -2.91677,-6.53574 -4.82467,-9.525 -0.68877,-1.07924 -1.62857,-2.64452 -2.91867,-3.06732 -1.4578,-0.47757 -2.5037,2.59689 -3.71207,3.21072 -3.2877,1.67058 -6.03487,-3.33375 -6.18467,-5.96424 -0.132,-2.31669 1.81537,-3.80365 4.07197,-3.65522 1.1658,0.0767 2.8681,0.66622 3.32477,-0.85831 1.0784,-3.59886 -1.98117,-9.01567 -3.52477,-12.15522 -0.6056,-1.23163 -2.0931,-3.54727 -1.4158,-4.70694 0.7551,-1.29328 2.6657,-1.83567 3.9971,-2.65139 3.01487,-1.84705 7.91704,-4.74186 8.73594,-7.59851 1.4385,-0.3029 1.918,-1.46151 2.68107,-2.50556 1.7687,-2.41935 3.4729,-4.85008 5.03707,-7.40833 1.1586,-1.89495 1.8074,-3.45916 3.2099,-4.56578 1.1833,0.9349 3.08567,1.0365 4.41277,1.47888 2.88557,0.96203 7.23897,2.18202 9.17524,4.68498 1.3091,1.69228 -0.6517,2.63631 -1.68617,3.73962 -1.4873,1.58565 -1.7291,3.86953 -0.052,5.42317 1.71837,1.592 4.95157,2.3405 7.11084,1.22793 2.7318,-1.40785 1.0602,-6.72571 3.9741,-6.92256 4.14407,-0.27966 9.52334,2.77098 13.22771,4.42198 0.9247,0.41196 1.9722,1.01441 2.91037,1.33271 0.5548,0.18838 1.2197,0.40455 1.8225,0.36203 -0.2114,2.54855 -2.48467,6.41517 -4.00417,9.45444 z"
       style="fill:fuchsia;stroke:#020202;stroke-width:1" />
    <path
       sodipodi:nodetypes="ccscccsssscccsscccscscsssscsccscsccsccscsc"
       id="path866"
       d="m 603.02678,331.53203 c -0.4204,-0.65432 -0.5456,-1.34038 -0.8742,-2.041 -0.6789,-1.447 -1.7542,-3.28586 -2.4942,-4.7625 -0.3625,-0.7231 -0.858,-1.6801 -1.1007,-2.38125 -0.1836,-0.53102 -0.2672,-0.97261 -0.3697,-1.71984 0.5682,-0.18554 0.7238,-0.15374 1.5424,-0.42153 1.134,-0.37148 3.2875,-1.27106 4.49137,-1.78779 3.4922,-1.49887 8.50577,-3.20622 11.03864,-6.14971 2.7646,-3.21284 -5.92667,-4.88818 -1.434,-8.80983 0.5172,-0.45165 1.1482,-0.8046 1.7724,-1.08347 2.2987,-1.02711 6.06637,-1.4052 7.17177,1.4523 0.5631,1.45468 -0.966,4.56697 1.2999,4.74503 4.21877,0.331 12.14861,-3.83249 14.66721,-5.59588 0.5487,0.81391 1.1218,1.69232 1.69827,2.70197 1.7495,3.06414 4.1003,6.28333 6.29497,8.99478 0.6834,0.84428 1.3936,1.31312 2.0958,2.00924 0.5929,0.58817 0.8427,1.1647 1.4676,1.76107 1.32637,1.26656 3.20047,2.58868 4.72737,3.67612 2.06767,1.47214 4.35767,2.75431 6.61454,3.87403 0.8536,0.42333 1.7944,0.86333 1.7574,1.91373 -0.1016,2.8739 -2.89617,8.14467 -4.46457,10.84395 -0.598,1.02896 -1.4354,2.40982 -2.5847,2.88766 -1.46237,0.60775 -2.68397,-1.68989 -3.70497,-2.41141 -2.61837,-1.8505 -5.79787,-0.72602 -7.01597,2.16958 -1.31767,3.13267 0.053,6.16109 3.5774,6.53415 1.2316,0.13044 3.12287,-0.69982 3.92137,0.64876 0.8025,1.35546 0.1646,3.32978 -0.1836,4.72334 -0.9274,3.71025 -2.26537,7.29853 -3.68487,10.84792 -0.4781,1.19539 -0.9533,3.43323 -1.9777,3.8817 -0.6377,0.2794 -1.4137,-0.0857 -2.04397,-0.35666 -2.078,-0.8927 -4.3394,-2.15159 -6.34997,-3.23929 -3.2861,-1.77774 -6.58337,-3.6158 -9.78954,-5.52424 -0.8983,-0.53498 -1.8503,-0.94138 -2.5337,-1.50706 -0.6363,-0.52652 -1.0258,-0.99616 -1.7007,-1.5584 -2.51037,-2.09074 -7.25914,-5.45359 -8.10314,-8.89397 -1.142,-4.65296 8.03514,-2.64768 6.26007,-7.9375 -0.1858,-0.55324 -0.4752,-1.09961 -0.7927,-1.5875 -0.5006,-0.76888 -1.1547,-1.44621 -1.8614,-2.02962 -0.5628,-0.46434 -1.1708,-0.85434 -1.85177,-1.11283 -5.27477,-2.00211 -4.0617,7.298 -8.73127,4.52755 -2.06087,-1.22238 -4.25587,-3.74703 -5.53637,-5.61446 -0.4385,-0.63924 -0.8017,-1.02394 -1.21477,-1.66714"
       style="fill:fuchsia;stroke:#020202;stroke-width:1" />
    <path
       sodipodi:nodetypes="scsccssscsscscssscscsssscccscscsscssssscscscs"
       id="path768"
       d="m 698.42001,243.92769 c 0.9136,0.4961 2.6884,1.2663 3.6975,1.84362 2.67837,1.53194 5.77857,3.53563 7.93254,5.67796 0.6082,0.6051 1.0154,1.32847 1.5607,1.87351 0.5448,0.54504 1.2642,0.94615 1.8603,1.56078 1.39097,1.4351 2.94007,3.3311 4.07937,5.02206 1.3311,1.9759 2.06007,5.30357 3.93807,6.3754 0.6315,0.36036 1.2506,0.10636 1.7957,-0.11589 0.7392,-0.30136 1.63327,-0.80222 2.38117,-1.16417 3.3092,-1.60099 9.19397,-4.97311 12.96434,-4.14364 3.26647,0.71861 0.7781,4.53999 1.3978,6.72095 0.3939,1.38641 1.75467,2.16429 3.10027,2.33256 1.2528,0.15637 1.9955,0.0127 3.17497,-0.27913 1.7571,-0.43471 3.7817,-1.60867 4.4956,-3.37608 1.49877,-3.71184 -5.39277,-5.32448 -3.6944,-8.73126 1.5346,-3.07869 6.28167,-4.72625 9.25297,-5.97323 1.27267,-0.53393 2.99427,-1.14617 4.23197,-1.62189 0.8462,-0.32518 1.1584,-0.57838 1.70877,-0.92763 -0.2697,-0.84376 -0.3454,-1.60338 -0.76237,-2.58974 -0.7913,-1.87167 -2.3011,-4.26535 -3.0739,-6.08542 -0.3085,-0.72628 -0.4207,-1.38166 -0.9059,-2.041 -0.4583,-0.62283 -0.875,-1.01891 -1.30707,-1.66714 -0.9279,-1.39197 -2.0714,-3.17553 -3.1826,-4.49394 -1.0391,-1.2327 -3.05777,-3.57664 -4.90987,-2.96704 -3.29777,1.08532 -3.33397,8.68177 -8.46744,5.61049 -0.5702,-0.34105 -1.0684,-0.80883 -1.4846,-1.32451 -1.8116,-2.24657 -2.3315,-6.0952 0.1728,-7.98936 1.555,-1.1758 4.57807,-1.64094 4.39947,-4.1775 -0.2722,-3.8616 -6.70317,-6.14918 -8.41594,-9.06145 -0.9166,-0.0955 -1.594,-0.48445 -2.0803,-0.75512 -0.9093,-0.50589 -1.9867,-1.1729 -2.91037,-1.72006 -3.9534,-2.34288 -8.04677,-4.49209 -12.17074,-6.5196 -1.0187,-0.50085 -3.37267,-1.66105 -4.10157,-1.08717 -1.1309,0.89032 -1.2573,2.37834 -1.8251,3.79757 -1.311,3.27765 -4.47047,10.04252 -2.49667,13.47813 1.05277,1.83224 3.12187,0.61543 4.71917,0.57918 2.24447,-0.0508 3.60307,1.81795 3.32527,3.93435 -0.1056,0.8046 -0.2606,1.62269 -0.5694,2.38125 -0.3418,0.84005 -0.7602,1.63407 -1.2856,2.38019 -0.3625,0.51462 -0.75617,1.025 -1.25177,1.41976 -4.4566,3.55018 -6.02927,-5.51604 -9.73957,-2.86994 -2.12037,1.5121 -3.21207,4.44024 -4.19757,6.74291 -0.9097,2.12619 -1.85077,4.96702 -2.35877,7.14322 -0.1945,0.83344 -0.2591,1.32874 -0.3268,1.85261 0.368,0.30163 0.6213,0.57097 1.32957,0.95541 z"
       style="fill:fuchsia;stroke:#020202;stroke-width:1" />
    <path
       sodipodi:nodetypes="ssccsscscssscsssscssssssssssssssssccsssssscs"
       id="path780"
       d="m 600.93448,243.76593 c 1.8839,-3.34195 3.92747,-6.79794 5.91507,-10.05416 0.4358,-0.71412 0.708,-1.40203 1.1843,-2.041 0.44397,-0.59558 0.91357,-1.06998 1.38687,-1.66714 1.6823,-2.12064 3.9654,-5.40623 6.70727,-6.27618 2.99797,-0.95118 3.68057,2.81834 4.88627,4.68233 1.9817,3.06335 5.94677,2.53682 8.33147,0.24739 0.62997,-0.60511 1.13717,-1.30043 1.51207,-2.08915 0.3204,-0.6739 0.5483,-1.37293 0.5871,-2.11667 0.2551,-4.87918 -7.52604,-3.40201 -7.12257,-7.67292 0.3067,-3.24829 4.9406,-5.7867 7.41607,-7.3951 0.7853,-0.51012 1.3657,-0.98875 2.1166,-1.46394 0.6258,-0.39608 1.21447,-0.57521 1.85207,-0.90408 1.0044,-0.51779 2.145,-1.16391 3.175,-1.67931 1.1306,-0.56568 2.59087,-1.39065 3.70417,-1.85394 0.4885,-0.2032 1.1811,-0.52811 1.772,-0.29078 0.5207,0.20902 0.6159,0.65749 0.795,1.15676 0.31017,0.8644 0.77447,2.01216 1.12107,2.90539 1.293,3.33296 3.6319,10.59233 7.42447,11.7557 2.145,0.65802 2.81567,-1.93093 3.73197,-3.28797 1.8928,-2.80353 4.98477,-2.37226 7.05957,0.003 0.6035,0.69109 1.0869,1.51447 1.3883,2.37728 0.2953,0.84587 0.3299,1.77324 0.1553,2.64583 -0.4289,2.14365 -1.9608,3.50203 -4.1331,3.67956 -2.19677,0.17939 -4.97547,-0.9988 -5.36857,2.14127 -0.50597,4.04046 1.973,8.83524 3.5168,12.43542 0.395,0.92154 0.9864,2.03438 1.37927,2.91042 0.2111,0.47096 0.4948,0.9943 0.3252,1.55972 -0.299,0.99695 -1.74737,1.41181 -2.76307,1.99284 -2.9149,1.66767 -6.37037,3.9489 -8.71984,6.26057 -0.6083,0.59875 -0.9266,1.13321 -1.4915,1.70815 -0.6329,0.64399 -1.4576,1.2237 -2.1108,1.97379 -2.07997,2.38839 -3.98357,5.19853 -5.61637,7.93618 -0.6445,1.08056 -1.26967,2.34024 -1.84097,3.43905 -0.2807,0.54028 -0.5622,1.23428 -1.179,1.44357 -1.0072,0.34237 -2.5355,-0.54213 -3.64777,-0.96467 -3.7952,-1.44198 -7.89097,-2.91015 -11.10194,-5.47873 -5.62577,-4.5003 6.09917,-7.23609 1.48987,-12.12109 -0.51007,-0.54055 -1.12767,-1.02367 -1.76497,-1.40467 -0.7382,-0.44133 -1.5587,-0.71703 -2.3813,-0.93875 -7.23794,-1.95077 -2.75057,8.57065 -7.93754,9.5512 -4.0711,0.76967 -10.60284,-2.2307 -14.02154,-3.77323 -0.8319,-0.37517 -1.15257,-0.58763 -1.58887,-0.86523 0.326,-2.40801 2.21067,-5.54703 3.85657,-8.46671 z"
       style="fill:fuchsia;stroke:#020202;stroke-width:1" />
    <path
       sodipodi:nodetypes="cssccsccssssssccccccssssssc"
       style="fill:yellow;stroke:#020202;stroke-width:1"
       d="m 658.46129,372.61802 c -0.38391,-0.22252 -0.6985,-0.41513 -1.32953,-0.63342 -0.77232,-0.26696 -1.79732,-0.59425 -2.63922,-0.8419 -2.06137,-0.6059 -5.35622,-1.38404 -6.91557,-2.80149 -0.93863,-0.0287 -1.71465,-0.39376 -2.34489,-0.66472 -2.07804,-0.8927 -4.33943,-2.15159 -6.35,-3.23929 -3.28613,-1.77774 -6.58336,-3.6158 -9.78958,-5.52424 -0.89826,-0.53498 -1.85024,-0.94138 -2.72202,-1.17704 -1.45783,3.67964 -5.02362,8.01113 -7.60066,10.64876 -0.91069,0.93213 -2.06825,2.38998 -3.43429,2.55667 -1.6682,0.20347 -1.99946,-2.07936 -3.1877,-2.89877 -2.05766,-1.41896 -4.69979,0.5961 -5.93328,2.19525 -1.32239,1.7145 -1.92246,4.58787 0.38973,5.73563 1.34144,0.66596 3.94414,0.10848 3.58802,2.46565 -0.71941,4.76224 -7.65678,12.43092 -9.96183,14.88705 0.78449,0.67733 1.4642,1.40626 2.404,2.08306 4.7125,3.39514 9.76233,6.2619 14.8164,9.1112 6.86726,3.87112 14.69073,7.01516 22.225,9.21914 3.07526,0.90223 5.73485,1.98173 8.46667,2.00554 0.22304,-1.72773 0.86572,-3.57981 1.50892,-5.82083 0.93583,-3.25967 2.1926,-7.55253 1.36472,-10.84792 -0.81783,-3.25543 -3.81212,-1.47241 -6.04838,-2.38363 -2.36828,-0.96494 -2.5945,-3.91001 -2.11296,-6.08304 0.42889,-1.93516 2.03491,-4.15501 4.22937,-3.87085 2.40479,0.31141 4.33996,4.0296 6.75534,1.66317 2.39898,-2.35029 3.26602,-6.78206 3.87958,-9.96315 0.44477,-2.30558 0.7292,-4.26746 0.74216,-5.82083"
       id="path924" />
    <path
       sodipodi:nodetypes="sscssssccscsscsccscssccscccs"
       id="path932"
       d="m 808.47901,316.61339 c -3.9105,-1.25518 -8.51427,-2.89242 -12.69994,-2.72229 -6.57647,0.26723 -1.6544,8.81406 -8.46654,8.98128 -0.7052,0.0175 -1.4243,0.0148 -2.1167,-0.13309 -0.7401,-0.15795 -1.4642,-0.4228 -2.1164,-0.79745 -1.92217,-1.10437 -2.87597,-3.35016 -1.77217,-5.41549 0.9237,-1.728 3.13847,-3.23189 1.1824,-5.20462 -2.2606,-2.27992 -6.46187,-2.94058 -9.46457,-3.61924 -2.12307,-0.47969 -3.80947,-0.51594 -5.29157,-1.09796 -0.77997,1.8942 -1.92727,5.95714 -2.82237,8.599 -0.2809,0.82894 -0.4497,1.68116 -1.176,2.18713 -0.2114,2.54855 -2.48467,6.41517 -4.00417,9.45444 -1.6322,3.26443 -3.50437,6.49764 -5.51757,9.525 -0.518,0.7792 -0.8363,1.61105 -1.219,2.32516 1.4108,1.02367 2.8068,1.89415 4.68527,3.23109 3.0012,2.13624 7.34247,4.73842 8.92127,8.20208 1.06747,2.34289 -1.6513,2.7858 -3.0991,3.70285 -1.95157,1.23586 -2.16217,3.45784 -0.8872,5.29272 0.4504,0.64797 1.0385,1.22529 1.6799,1.68355 2.0034,1.43192 5.32127,1.4851 6.85027,-0.64956 1.2004,-1.67613 1.2758,-4.22725 3.99727,-3.85392 3.25067,0.44609 6.53437,3.08954 8.99584,5.05566 2.0119,1.60734 2.9432,2.45851 4.42577,3.6232 0.7404,-0.65644 1.2524,-1.12343 1.8109,-1.89098 2.2847,-3.13955 4.49127,-6.68258 6.46007,-10.05311 4.18167,-7.1583 7.57764,-14.74285 10.47534,-22.48958 1.4843,-3.97431 3.54267,-10.48677 3.64307,-13.4796 -0.5982,0.1954 -1.56657,-0.16522 -2.47407,-0.45627 z"
       style="fill:yellow;stroke:#020202;stroke-width:1" />
    <path
       sodipodi:nodetypes="ccccsccssssscccccscscsscsscc"
       id="path1090"
       d="m 700.61421,418.15545 c 0.5797,0.19315 1.0858,0.0106 1.7679,-0.0344 1.73297,-0.11642 3.82297,-0.62971 5.55627,-0.99748 6.31604,-1.34408 12.42791,-3.12208 18.52068,-5.25727 7.16037,-2.50852 14.00244,-5.91159 20.63738,-9.55411 1.0144,-0.55694 1.7492,-1.20147 2.6458,-1.84413 -0.8977,-1.46685 -1.5883,-3.02313 -2.7268,-5.09588 -1.72977,-3.15013 -3.98057,-7.60174 -7.06274,-9.60252 -2.2383,-1.45309 -2.7482,1.24804 -4.2579,2.26245 -1.94437,1.30625 -4.14547,-0.54398 -5.14027,-2.18519 -1.04907,-1.73038 -2.03357,-5.03132 0.1524,-6.3127 1.6428,-0.96308 4.83917,0.42202 4.3923,-2.68287 -0.736,-5.11149 -6.63777,-9.54114 -7.84637,-14.5251 -0.8954,0.12568 -1.4777,0.32571 -2.1167,0.64109 -2.54637,1.25598 -6.98574,3.96531 -9.21564,4.08014 -0.3892,0.65961 -1.0967,0.9308 -1.6328,1.15199 -0.94237,0.38947 -2.16477,0.83424 -3.17437,1.13136 -3.88617,1.14274 -7.73244,2.32543 -11.64164,3.39937 -2.05264,0.56383 -3.99892,0.95991 -5.42396,1.34302 0.068,1.68249 0.42995,3.37265 0.87392,5.68855 0.67389,3.51552 1.77403,8.68389 0.6731,12.17057 -0.889,2.81622 -2.9337,1.02817 -4.85431,0.9263 -1.43405,-0.0762 -2.61911,0.93186 -3.10515,2.24896 -0.21696,0.5879 -0.31327,1.22052 -0.27888,1.85208 0.13203,2.41988 1.48908,5.67135 4.17778,6.0251 2.64847,0.34845 4.20952,-2.17594 5.8711,1.11892 1.6661,3.30385 2.2029,7.46098 2.5506,11.11223 0.088,0.92869 -0.021,2.71198 0.6583,2.93952"
       style="fill:yellow;stroke:#020202;stroke-width:1" />
    <path
       sodipodi:nodetypes="csssccccssscscsscsccscccscc"
       id="path1032"
       d="m 602.15262,329.49103 c -0.67892,-1.447 -1.75419,-3.28586 -2.49423,-4.7625 -0.36247,-0.7231 -0.85804,-1.6801 -1.10066,-2.38125 -0.18362,-0.53102 -0.26723,-0.97261 -0.58261,-1.5875 -0.43551,-0.84905 -0.82445,-1.38271 -1.2319,-2.38125 -2.44952,-6.00525 -4.39738,-13.0929 -5.35383,-19.71146 -3.75124,0.16325 -12.21922,3.28586 -16.79599,1.41605 -2.41009,-0.98478 -1.00697,-3.62664 -1.07897,-5.51709 -0.10213,-2.69319 -3.03556,-3.39725 -5.27605,-3.12631 -2.78361,0.33681 -5.64097,2.44898 -4.59939,5.50756 0.46159,1.35546 2.2782,2.71727 1.04384,4.14629 -2.45605,2.84321 -9.8506,3.22024 -13.37779,3.50387 -0.82809,0.0667 -1.8738,0.22387 -2.64562,0.26247 -0.41828,0.0209 -1.00393,0.0863 -1.50799,-0.11118 -0.0148,3.28105 1.93061,11.33867 2.99728,15.48179 2.84109,11.03497 7.41907,22.18398 13.17508,32.01458 0.47311,0.80804 0.91911,1.38112 1.58106,2.11667 1.61519,-0.85011 3.33268,-1.68461 5.45019,-2.87364 3.55838,-1.99787 8.59658,-4.54025 10.93946,-7.97428 2.26404,-3.31788 -5.66261,-3.95235 -2.00368,-8.17748 0.40904,-0.47228 0.86809,-0.8845 1.39329,-1.2237 1.73752,-1.12183 5.139,-2.13704 6.14336,0.40931 0.64029,1.62375 -0.45958,4.5974 2.31325,4.43363 3.08637,-0.18257 6.44234,-2.55905 8.99557,-4.12301 0.94403,-0.57811 2.35347,-1.49383 3.16839,-2.09655 0.68791,-0.5088 0.95064,-0.78264 1.52582,-1.16624 -0.22412,-0.6921 -0.34927,-1.37816 -0.67788,-2.07878 z"
       style="fill:yellow;stroke:#020202;stroke-width:1" />
    <path
       sodipodi:nodetypes="ccssssssscssscsssscssssscscc"
       style="fill:yellow;stroke:#020202;stroke-width:1"
       d="m 702.03961,197.214 c 1.0463,-1.12863 0.9294,-3.59666 1.2484,-5.04182 0.75457,-3.4155 1.62007,-8.246 4.17007,-10.81881 2.03147,-2.04973 3.52377,0.7112 5.50727,1.37266 3.31017,1.10357 5.71077,-1.27344 6.60314,-4.31218 0.8491,-2.8911 -0.43067,-6.15995 -3.42807,-7.12822 -2.24717,-0.72591 -5.20357,0.57494 -6.10047,-2.39699 -0.7552,-2.50219 -0.02,-5.48318 0.5786,-7.93729 0.3355,-1.37462 1.1792,-3.77404 1.5425,-5.02587 0.2162,-0.74467 0.2352,-1.13535 0.5395,-1.61789 1.2405,0.17951 2.06327,0.29773 3.17477,0.59835 4.51407,1.22079 9.14034,2.72211 13.49374,4.45791 10.01234,3.99219 20.06218,9.31373 28.83912,15.53659 0.8329,0.59029 1.3362,1.16232 1.8142,1.94183 -1.0261,1.45817 -2.2376,2.75569 -3.3693,4.21751 -1.99807,2.58075 -5.08517,5.83936 -5.29737,9.26042 -0.18287,2.94613 2.8831,2.2352 4.7326,3.31602 2.82837,1.65312 1.84517,4.98158 0.4093,7.26625 -0.4067,0.64744 -0.893,1.1938 -1.4743,1.68937 -1.2748,1.08717 -3.1332,2.11296 -4.74787,1.06256 -2.3506,-1.52929 -2.7842,-5.3848 -6.35397,-3.40465 -3.1636,1.75498 -5.42767,5.1046 -7.40807,8.06212 -0.7651,1.14273 -1.33427,3.14589 -2.45417,3.57293 -0.6157,0.23468 -1.2931,-0.15425 -1.7794,-0.42492 -0.9093,-0.50589 -1.9867,-1.1729 -2.91037,-1.72006 -3.9534,-2.34288 -8.04677,-4.49209 -12.17074,-6.5196 -1.0187,-0.50085 -3.37267,-1.66105 -4.03517,-1.30505 -2.2042,-1.82047 -8.82487,-3.08438 -11.12394,-4.70117 z"
       id="path954" />
    <path
       sodipodi:nodetypes="csscssccsssscsssssscsccsscssc"
       id="path962"
       d="m 597.07796,252.2326 c 0.32596,-2.40797 2.21059,-5.54699 3.85656,-8.46667 1.88384,-3.34195 3.92748,-6.79794 5.91503,-10.05416 0.43577,-0.71412 0.70802,-1.40203 0.99801,-2.07879 -1.39621,-1.14189 -2.7776,-2.03353 -4.68419,-3.40064 -2.62651,-1.8833 -6.30263,-4.48495 -7.23952,-7.74964 -1.39356,-4.85643 9.04716,-5.13424 4.99903,-11.11144 -0.48207,-0.71173 -1.05463,-1.34991 -1.73857,-1.87246 -0.64294,-0.4908 -1.34753,-0.88741 -2.10635,-1.15835 -0.68607,-0.245 -1.39515,-0.40983 -2.11667,-0.37173 -5.32289,0.28098 -2.2598,8.48651 -7.40833,8.41401 -3.82985,-0.054 -7.95655,-3.29036 -10.84792,-5.5454 -1.87801,-1.46474 -3.25808,-2.61805 -4.60361,-3.7944 -0.64255,0.58605 -1.24289,1.13188 -1.82021,1.94627 -3.99801,5.63907 -7.72906,11.78587 -10.83942,17.9914 -2.92989,5.84544 -5.2895,12.0957 -7.34301,18.25625 -0.88976,2.66939 -2.70592,6.11294 -2.25202,8.69315 0.13276,0.7546 0.87198,0.91229 1.45949,1.09511 0.79764,0.24845 1.80861,0.52864 2.64462,0.75513 3.50155,0.94826 6.97629,1.76265 10.58333,2.23123 1.22693,0.15928 3.34171,0.63076 4.38203,-0.27094 1.86663,-1.61792 -1.82205,-5.22763 0.92525,-7.30408 2.62122,-1.98147 8.26135,-0.59981 9.12891,2.7379 0.66014,2.53895 -3.39645,4.32488 -2.99005,6.3254 0.26141,1.28693 2.27806,1.97035 3.37053,2.38866 3.29803,1.26285 6.86435,1.97511 10.31875,2.75537 1.09272,0.24716 2.03755,0.64426 2.87522,0.31326 0.77894,-0.30797 0.97605,-1.12977 1.26974,-1.9931 1.04007,-3.05832 1.8116,-6.8334 3.26337,-8.73125"
       style="fill:yellow;stroke:#020202;stroke-width:1" />
    <path
       sodipodi:nodetypes="sscsscssscscssccssssssccccs"
       id="path1086"
       d="m 800.80614,266.97544 c -1.5568,0.46011 -3.42817,0.82101 -4.72707,1.87299 -1.9814,1.60496 0.071,3.35783 0.5866,5.08 0.8541,2.85115 -1.7565,4.7625 -4.32617,5.17525 -2.9768,0.4781 -6.59337,-0.88106 -6.30017,-4.3815 0.1,-1.19195 1.6515,-3.33719 0.8374,-4.38415 -0.7424,-0.95541 -2.4553,-0.90381 -3.533,-0.90725 -3.28187,-0.0106 -6.57034,0.77867 -9.78954,1.34487 -0.7408,0.13044 -1.67427,0.35904 -2.38097,0.4662 -0.4897,0.0741 -1.0199,0.0529 -1.6399,0.25286 -0.6845,-2.19109 -1.9358,-8.55776 -3.12237,-12.11826 -0.8792,-2.63816 -1.896,-5.91026 -2.9279,-8.4664 -0.3114,-0.77179 -0.7133,-1.25307 -1.0655,-1.96453 -0.3897,-0.78767 -0.4654,-1.54729 -0.88237,-2.53365 -0.7913,-1.87167 -2.3011,-4.26535 -3.0739,-6.08542 -0.3085,-0.72628 -0.4207,-1.38166 -0.7114,-2.07884 2.5598,-1.63353 9.64294,-7.45225 14.21724,-7.27947 3.30257,0.12461 1.88837,3.90895 2.78187,5.9174 1.2602,2.83343 5.65537,1.96321 7.80147,0.66834 0.66877,-0.40349 1.28717,-0.90382 1.82427,-1.47135 4.31477,-4.5585 -5.33027,-5.93275 -2.76567,-10.83733 1.60627,-3.07181 5.68507,-5.28161 8.61424,-6.91568 2.1368,-1.19221 3.86257,-1.85658 5.39577,-2.91179 0.7585,1.04796 1.6655,2.40871 2.4283,3.74195 5.46497,9.55384 9.77544,20.0832 12.58001,30.69167 1.2965,4.91331 2.8787,11.12996 2.8787,15.34583 -2.9263,0 -8.91327,0.65908 -12.69994,1.77826 z"
       style="fill:yellow;stroke:#020202;stroke-width:1" />
    <path
       sodipodi:nodetypes="ssccsccsssssccssscsssssccscscscs"
       id="path1062"
       d="m 642.58629,203.48206 c -1.11337,0.46329 -2.5736,1.28826 -3.70417,1.85394 -1.03002,0.5154 -2.17064,1.16152 -3.175,1.67931 -0.63764,0.32887 -1.22634,0.508 -1.98437,0.70343 -0.94747,-1.63283 -1.96347,-2.95098 -3.11679,-4.96314 -1.78144,-3.10753 -4.50268,-7.38214 -4.12935,-11.1125 0.35771,-3.57663 4.40346,-2.00448 6.58071,-2.91279 1.77536,-0.74084 2.36538,-3.02128 2.02036,-4.76012 -0.16378,-0.82577 -0.52361,-1.65391 -0.94589,-2.38125 -0.43867,-0.75539 -0.99695,-1.48008 -1.62348,-2.08889 -0.46434,-0.45138 -0.97102,-0.83423 -1.56369,-1.09299 -4.83102,-2.11032 -5.03422,6.37513 -8.99583,5.38083 -3.7383,-0.93821 -6.57357,-6.27433 -8.35448,-9.3427 -0.87577,-1.50924 -1.79494,-2.99186 -2.49344,-4.7322 0.56224,-0.72941 1.21127,-1.20677 2.11667,-1.72906 7.04982,-4.06662 14.60474,-7.40884 22.225,-10.19341 3.88594,-1.42002 7.92401,-2.49928 11.90625,-3.60596 3.88594,-1.07995 9.94066,-2.46851 13.12287,-2.41427 -0.11648,0.51609 0.0725,2.53475 0.15128,3.36023 0.31379,3.29461 0.6723,9.87422 3.68696,11.93442 2.22224,1.51882 4.48046,-1.54628 6.58681,-2.00377 2.17302,-0.47201 4.02219,1.41833 4.8461,3.29851 0.36672,0.83667 0.5778,1.73437 0.6649,2.64583 0.086,0.90104 -0.008,1.78409 -0.27781,2.64584 -0.61251,1.9595 -1.93728,3.71369 -4.17486,3.35147 -2.0148,-0.32596 -4.70482,-2.9919 -6.42197,-0.67045 -2.58233,3.49118 -0.31088,10.71007 0.35878,14.51689 0.16086,0.91361 0.50615,2.32093 0.65669,3.17474 0.0855,0.48524 0.0569,1.20174 0.3269,1.58411 -2.01838,1.20099 -4.80232,1.35022 -7.6204,1.98787 -4.41299,0.99853 -12.25973,3.32872 -14.85676,5.50976 -0.63089,-0.15179 -1.32357,0.17312 -1.81199,0.37632 z"
       style="fill:yellow;stroke:#020202;stroke-width:1" />
  </g>
  <g
     sodipodi:insensitive="true"
     transform="translate(-545.21912,-149.31783)"
     style="display:inline"
     inkscape:label="Center"
     id="layer2"
     inkscape:groupmode="layer">
    <path
       id="path1138"
       d="m 680.48466,284.98292 c 2.10476,2.01428 6.31983,5.52 8.94979,8.46667 0.78846,0.88344 1.78144,2.00792 2.15239,3.175 0.66966,2.10555 -1.79467,2.15053 -3.16468,2.45798 -2.549,0.57203 -3.60495,2.89666 -2.34421,5.21494 0.38311,0.70485 0.97684,1.29063 1.55151,1.8407 0.7075,0.67734 1.47479,1.28191 2.3802,1.67058 4.09098,1.75551 4.47437,-4.27593 7.9375,-3.56394 4.34075,0.89218 8.0129,5.41206 10.84791,8.51932 0.66755,0.73158 1.41896,1.68619 2.05158,2.36485 0.33311,0.35719 0.75036,0.88424 1.39753,0.79428"
       style="fill:none;stroke:#020202;stroke-width:1"
       transform="translate(-2.7083333e-6)" />
    <path
       id="path1136"
       d="m 680.48466,284.98292 c -1.96559,1.74255 -4.31536,5.10937 -6.87917,7.67292 -1.53538,1.53511 -3.17791,3.43588 -5.29167,4.23466 -3.83143,1.44806 -3.00169,-6.55717 -7.9375,-3.73724 -0.5543,0.3167 -1.08532,0.6858 -1.53855,1.13903 -0.37941,0.37941 -0.70564,0.81333 -0.97949,1.27423 -2.74611,4.62148 4.78129,3.84889 3.23983,7.93724 -0.64744,1.71661 -1.89495,3.13187 -3.03795,4.49791 -2.44501,2.92259 -6.96224,6.71142 -8.79634,8.46667"
       style="fill:none;stroke:#020202;stroke-width:1"
       transform="translate(-2.7083333e-6)" />
    <path
       id="path1168"
       d="m 680.22011,284.98292 c 2.76569,-2.88978 8.16134,-10.63545 13.49375,-11.69352 4.36986,-0.86704 3.77984,7.94252 9.26042,4.75403 0.69771,-0.40587 1.28349,-0.95567 1.84071,-1.53114 1.67692,-1.7317 3.31073,-5.06307 1.04087,-7.03554 -1.78356,-1.54993 -5.20039,-1.02208 -4.41616,-4.33758 0.73316,-3.09933 4.29577,-6.17193 6.56272,-8.24706 1.24857,-1.14274 2.36802,-2.13069 3.17394,-3.13002"
       style="fill:none;stroke:#020202;stroke-width:1"
       transform="translate(-2.7083333e-6)" />
    <path
       id="path1130"
       d="m 648.99928,253.76209 c 1.78991,2.05026 7.37473,9.41202 11.90625,10.63837 4.06718,1.1004 4.20185,-6.57464 8.73125,-4.32806 0.57018,0.28284 1.09088,0.69215 1.53882,1.14406 1.68592,1.7018 3.17235,4.78446 1.05039,6.72888 -1.70709,1.56422 -4.72202,1.09326 -3.74623,4.33758 0.94403,3.13849 4.21772,5.71024 6.44869,7.9375 1.09008,1.0885 2.57466,2.40242 3.70284,3.36683 0.7067,0.60377 1.12474,0.96811 1.58882,1.39567"
       style="fill:none;stroke:#020202;stroke-width:1"
       transform="translate(-2.7083333e-6)" />
  </g>
</svg>
