<?xml version="1.0" encoding="UTF-8" standalone="no"?>
<svg
   xmlns:dc="http://purl.org/dc/elements/1.1/"
   xmlns:cc="http://creativecommons.org/ns#"
   xmlns:rdf="http://www.w3.org/1999/02/22-rdf-syntax-ns#"
   xmlns:svg="http://www.w3.org/2000/svg"
   xmlns="http://www.w3.org/2000/svg"
   xmlns:sodipodi="http://sodipodi.sourceforge.net/DTD/sodipodi-0.dtd"
   xmlns:inkscape="http://www.inkscape.org/namespaces/inkscape"
   width="294.13504mm"
   height="207.68896mm"
   viewBox="0 0 294.13505 207.68896"
   version="1.1"
   id="svg8"
   inkscape:version="1.0 (4035a4fb49, 2020-05-01)"
   sodipodi:docname="market_exchange.svg">
  <defs
     id="defs2" />
  <sodipodi:namedview
     fit-margin-bottom="0"
     fit-margin-right="0"
     fit-margin-left="0"
     fit-margin-top="0"
     id="base"
     pagecolor="#ffffff"
     bordercolor="#666666"
     borderopacity="1.0"
     inkscape:pageopacity="0.0"
     inkscape:pageshadow="2"
     inkscape:zoom="0.49497475"
     inkscape:cx="506.06154"
     inkscape:cy="531.40319"
     inkscape:document-units="mm"
     inkscape:current-layer="layer1"
     inkscape:document-rotation="0"
     showgrid="false"
     inkscape:window-width="1920"
     inkscape:window-height="1119"
     inkscape:window-x="0"
     inkscape:window-y="44"
     inkscape:window-maximized="1" />
  <metadata
     id="metadata5">
    <rdf:RDF>
      <cc:Work
         rdf:about="">
        <dc:format>image/svg+xml</dc:format>
        <dc:type
           rdf:resource="http://purl.org/dc/dcmitype/StillImage" />
        <dc:title></dc:title>
      </cc:Work>
    </rdf:RDF>
  </metadata>
  <g
     transform="translate(447.42286,-44.886301)"
     inkscape:label="Layer 1"
     inkscape:groupmode="layer"
     id="layer1">
    <path
       id="path26"
       d="m -447.42286,216.1289 0.005,-36.44635 2.97205,-1.1291 c 1.63463,-0.621 3.09288,-1.12701 3.24056,-1.12447 0.14767,0.003 0.70527,-0.22948 1.23909,-0.5156 0.89973,-0.48222 0.97851,-0.48705 1.07892,-0.0661 0.0849,0.35601 0.17102,0.30223 0.39868,-0.24904 0.19339,-0.46827 0.56708,-0.76387 1.1189,-0.88507 0.45569,-0.10009 0.86775,-0.14088 0.91569,-0.0907 0.0865,0.0907 0.58393,1.48145 2.25643,6.30904 0.47894,1.38244 1.02546,2.87073 1.2145,3.30729 0.18903,0.43656 0.82204,2.16297 1.40667,3.83646 0.58464,1.67349 2.02668,5.66208 3.20454,8.86354 3.10018,8.42641 4.41109,12.02733 5.68294,15.61042 1.9093,5.37893 7.30501,20.06182 7.68833,20.92159 1.03682,2.32555 1.8787,5.14986 1.6006,5.36963 -0.1609,0.12715 -4.12676,1.6753 -8.81303,3.44035 -4.68627,1.76504 -8.79393,3.32087 -9.12813,3.4574 -0.3342,0.13653 -2.69123,1.02543 -5.23784,1.97534 -2.54662,0.94992 -5.88006,2.20741 -7.40766,2.79442 -1.52759,0.58702 -2.92657,1.06731 -3.10885,1.06731 -0.26391,0 -0.33049,-7.42333 -0.3269,-36.44636 z m 3.14977,26.35347 c -0.35485,-0.66304 -0.61957,-0.46363 -0.38126,0.28721 0.0965,0.30412 0.28631,0.48446 0.42174,0.40075 0.14812,-0.0915 0.13199,-0.36569 -0.0405,-0.68796 z m 1.07905,-4.57587 c 0,-0.0642 -0.11906,-0.19026 -0.26458,-0.2802 -0.14552,-0.0899 -0.26458,-0.0374 -0.26458,0.11667 0,0.15411 0.11906,0.2802 0.26458,0.2802 0.14552,0 0.26458,-0.0525 0.26458,-0.11667 z m 0.10485,-13.53324 c 0.17994,-0.46894 -0.005,-0.90217 -0.38504,-0.90217 -0.13694,0 -0.24897,0.29766 -0.24897,0.66146 0,0.74013 0.38611,0.88672 0.63401,0.24071 z m 4.51406,-0.6193 c 0.0837,-0.13547 0.0312,-0.32109 -0.11667,-0.41249 -0.1479,-0.0914 -0.2689,0.0194 -0.2689,0.2463 0,0.46474 0.15876,0.53317 0.38557,0.16619 z m -6.03281,-1.27532 c -0.29916,-0.9701 -0.30778,-0.97542 -0.39177,-0.24197 -0.10328,0.90198 0.1232,1.58893 0.45604,1.38322 0.14209,-0.0878 0.11561,-0.5579 -0.0643,-1.14125 z m 1.87878,-5.77462 c -0.2604,-0.2604 -0.72946,0.13935 -0.72946,0.62167 0,0.40388 0.0348,0.40316 0.44727,-0.009 0.246,-0.246 0.37299,-0.52156 0.28219,-0.61236 z m -1.92009,0.15249 c 0.0899,-0.14552 0.0374,-0.26459 -0.11667,-0.26459 -0.15411,0 -0.2802,0.11907 -0.2802,0.26459 0,0.14552 0.0525,0.26458 0.11668,0.26458 0.0642,0 0.19026,-0.11906 0.28019,-0.26458 z m 2.48285,-8.16834 c -0.0198,-0.44821 -0.0737,-0.5307 -0.15169,-0.23218 -0.15395,0.58911 -0.61136,0.60561 -0.61136,0.022 0,-0.59608 -0.25299,-0.30617 -0.4003,0.45872 -0.0655,0.34019 0.0235,0.70667 0.19787,0.81442 0.4782,0.29554 1.00009,-0.27906 0.96548,-1.063 z m -0.76305,-2.07071 c 0,-0.40033 -0.70842,-1.11198 -1.12448,-1.12962 -0.33319,-0.0141 -0.22175,0.6343 0.21654,1.26005 0.44127,0.63001 0.90794,0.56297 0.90794,-0.13043 z m 10.56068,-0.74116 c 0.008,-0.14552 -0.10087,-0.086 -0.24193,0.13229 -0.14107,0.21828 -0.24994,0.57547 -0.24194,0.79375 0.0154,0.41906 0.45632,-0.42486 0.48387,-0.92604 z m -2.19875,-0.0606 c -0.26895,-0.26895 -0.49087,0.13597 -0.27019,0.49302 0.16669,0.26972 0.22901,0.26993 0.31863,0.001 0.0613,-0.18383 0.0395,-0.40617 -0.0484,-0.49409 z m 3.41203,0.45751 c 0.0899,-0.14552 0.0374,-0.26458 -0.11668,-0.26458 -0.15411,0 -0.2802,0.11906 -0.2802,0.26458 0,0.14552 0.0525,0.26459 0.11668,0.26459 0.0642,0 0.19026,-0.11907 0.2802,-0.26459 z m -11.77801,-1.38906 c -0.003,-0.4648 -0.0573,-0.51107 -0.24713,-0.21107 -0.13369,0.21133 -0.18437,0.47922 -0.11263,0.59531 0.2295,0.37133 0.36392,0.22775 0.35976,-0.38424 z m 10.3228,-1.25677 c 0,-0.14552 -0.0525,-0.26458 -0.11668,-0.26458 -0.0642,0 -0.19026,0.11906 -0.2802,0.26458 -0.0899,0.14552 -0.0374,0.26458 0.11668,0.26458 0.15411,0 0.2802,-0.11906 0.2802,-0.26458 z m -11.08718,-3.33781 c 0.30688,-0.36976 0.28745,-0.41436 -0.14411,-0.33073 -0.27435,0.0532 -0.54838,0.24549 -0.60894,0.42739 -0.15715,0.47199 0.33337,0.40903 0.75305,-0.0967 z m -0.28991,-4.435 c 0,-0.82918 -0.71567,-1.46977 -0.95251,-0.85258 -0.0908,0.23653 -0.0337,0.58831 0.12687,0.78175 0.16054,0.19344 0.21354,0.43004 0.11779,0.5258 -0.0958,0.0958 0.0243,0.17409 0.26688,0.17409 0.28793,0 0.44097,-0.21833 0.44097,-0.62906 z m 1.5016,-0.86795 c -0.0958,-0.0957 -0.0415,-0.33388 0.1206,-0.52917 0.22433,-0.2703 0.19957,-0.35507 -0.10373,-0.35507 -0.21913,0 -0.46069,0.23812 -0.5368,0.52917 -0.0951,0.36354 -0.008,0.52916 0.27783,0.52916 0.22891,0 0.33786,-0.0783 0.2421,-0.17409 z m -0.97243,-0.88424 c 0.20977,-0.29104 0.5734,-0.52917 0.80806,-0.52917 0.23467,0 0.5063,-0.0796 0.60363,-0.17696 0.23971,-0.23971 -0.6076,-1.14595 -1.07144,-1.14595 -0.20431,0 -0.29371,-0.12583 -0.19866,-0.27963 0.23052,-0.373 -0.0831,-1.57246 -0.41121,-1.57246 -0.37916,0 -0.31775,0.99062 0.0712,1.14844 0.25468,0.10333 0.24581,0.19353 -0.0385,0.39222 -0.20311,0.14191 -0.30183,0.43382 -0.21938,0.64868 0.0824,0.21486 -0.008,0.69471 -0.20063,1.06633 -0.52894,1.01953 -0.01,1.37382 0.657,0.4485 z m 9.4636,-1.85208 c 0.18176,-0.29105 0.23421,-0.52917 0.11656,-0.52917 -0.27564,0 -0.84891,0.57176 -0.84891,0.84667 0,0.38983 0.3985,0.21707 0.73235,-0.3175 z m 0.98744,0 c 0.0899,-0.14552 0.0374,-0.26459 -0.11668,-0.26459 -0.1541,0 -0.28019,0.11907 -0.28019,0.26459 0,0.14552 0.0525,0.26458 0.11667,0.26458 0.0642,0 0.19026,-0.11906 0.2802,-0.26458 z m -11.24479,-0.64585 c 0,-0.42138 -0.48005,-0.81438 -0.71175,-0.58268 -0.21765,0.21765 0.12211,0.96394 0.43886,0.96394 0.15009,0 0.27289,-0.17156 0.27289,-0.38126 z m 2.59339,-0.27075 c 0.30475,-0.66885 0.0367,-1.1205 -0.47672,-0.8032 -0.31969,0.19759 -0.3564,1.45521 -0.0425,1.45521 0.12216,0 0.35579,-0.2934 0.51919,-0.65201 z m 4.73371,-0.86431 c -0.0671,-0.25743 -0.12638,-0.11086 -0.13177,0.3257 -0.005,0.43656 0.0495,0.64719 0.12197,0.46805 0.0725,-0.17913 0.0769,-0.53631 0.01,-0.79375 z m -5.47502,-0.20347 c 0,-0.21828 -0.11906,-0.39687 -0.26458,-0.39687 -0.14552,0 -0.26458,0.17859 -0.26458,0.39687 0,0.21828 0.11906,0.39688 0.26458,0.39688 0.14552,0 0.26458,-0.1786 0.26458,-0.39688 z m -1.28915,-0.62362 c 0.0186,-0.0936 0.0706,-0.40825 0.11564,-0.6993 0.045,-0.29104 0.15021,-0.82682 0.23375,-1.19062 0.0835,-0.3638 0.0811,-0.51263 -0.005,-0.33073 -0.0865,0.1819 -0.31107,0.33073 -0.49903,0.33073 -0.30779,0 -0.67248,1.08957 -0.67248,2.00915 0,0.34501 0.75702,0.23595 0.82751,-0.11923 z m 1.30153,-2.68367 c 0.18388,0.60979 0.20152,0.59188 0.22583,-0.2293 0.0227,-0.76601 -0.0477,-0.87137 -0.50279,-0.75237 -0.29104,0.0761 -0.52917,0.0305 -0.52917,-0.10143 0,-0.1319 -0.12581,-0.23982 -0.27958,-0.23982 -0.15671,0 -0.0986,0.25844 0.13229,0.58804 0.22653,0.32342 0.42972,0.82944 0.45152,1.12448 0.0235,0.31771 0.0932,0.21279 0.17104,-0.25731 l 0.13139,-0.79375 z m 0.69202,-0.0661 c -0.0734,-0.1819 -0.13345,-0.0331 -0.13345,0.33073 0,0.36381 0.06,0.51263 0.13345,0.33073 0.0734,-0.1819 0.0734,-0.47955 0,-0.66146 z m -2.2919,-0.60161 c 0,-0.69513 -0.90256,-1.38583 -1.19423,-0.9139 -0.0924,0.14952 -0.0103,0.23914 0.18238,0.19915 0.19272,-0.04 0.36253,0.16543 0.37737,0.45647 0.0539,1.05819 0.1101,1.2189 0.3699,1.05833 0.14552,-0.0899 0.26458,-0.44996 0.26458,-0.80005 z m 0.52512,-5.4838 c -0.003,-0.4814 -0.0531,-0.51937 -0.26053,-0.19844 -0.33151,0.51296 -0.33151,0.79375 0,0.79375 0.14552,0 0.26276,-0.26789 0.26053,-0.59531 z m 0.99073,-1.68121 c -0.0879,-0.0879 -0.31613,-0.0973 -0.50712,-0.0209 -0.21107,0.0845 -0.14837,0.14716 0.15985,0.15986 0.27891,0.0115 0.43518,-0.0511 0.34727,-0.13897 z"
       style="fill:#333;fill-opacity:1;stroke-width:1"
       sodipodi:nodetypes="ccscsssscssssssssssssccssssssssssssssssssssssscscccsssssssssssssssssssscssccssssscsscssssssssssssssssssssssssssssssscssssssssssssssssssssccsccssssscsscssccsssssssscssssssssssscsscsssss" />
    <path
       id="path32"
       d="m -288.80966,205.98751 c -35.6214,-0.551 -52.11304,-0.78142 -57.30649,-0.80068 -3.142,-0.0117 -5.86475,-0.11515 -6.05055,-0.22998 -0.27116,-0.16758 -0.29884,-2.93761 -0.14029,-14.03903 l 0.19751,-13.83026 11.80616,0.17116 c 6.49339,0.0942 21.15256,0.3007 32.57595,0.459 11.42339,0.15831 24.50366,0.3675 29.06728,0.46488 l 8.29749,0.17703 -0.0287,7.27604 c -0.0158,4.00183 -0.10636,10.28237 -0.20133,13.95677 l -0.17267,6.68073 -2.53992,-0.0426 c -1.39695,-0.0234 -8.37397,-0.1328 -15.50449,-0.2431 z"
       style="fill:#e6e6e6;stroke-width:1"
       sodipodi:nodetypes="csssccsscsscscc" />
    <path
       sodipodi:nodetypes="ssssssssssssssssssssssssssssssssssssssssssscssssssssscssssssssssssssssssssssscsssssssssssssssssssscsssssssssssssssssssssssssssssssssssssssssssssssssssssssssssssssssssssssssss"
       style="fill:#ffa200;fill-opacity:1;stroke-width:1"
       d="m -346.61923,232.57461 c -0.50828,-0.22042 -1.16313,-0.62146 -1.45521,-0.8912 -0.29208,-0.26975 -1.42402,-1.08479 -2.51543,-1.81121 -1.09141,-0.72642 -2.57969,-1.87574 -3.30729,-2.55405 -1.92085,-1.79072 -6.12484,-4.50752 -8.65491,-5.59318 -4.03964,-1.73342 -6.45125,-2.24675 -11.32113,-2.40979 -6.46636,-0.21649 -7.76429,0.0868 -20.73858,4.84583 -3.80071,1.39412 -8.57726,3.13076 -10.61455,3.85919 -2.03729,0.72843 -4.0416,1.45021 -4.45403,1.60397 -0.41242,0.15376 -0.84698,0.53501 -0.96569,0.84723 -0.16229,0.42687 -0.78665,0.74463 -2.51725,1.28116 -1.26579,0.39242 -2.39459,0.65591 -2.50845,0.58554 -0.11386,-0.0704 -0.26888,-0.39759 -0.34448,-0.72716 -0.0756,-0.32957 -0.39883,-1.25407 -0.71829,-2.05443 -0.31945,-0.80037 -0.79667,-2.11536 -1.0605,-2.9222 -0.26381,-0.80684 -0.84013,-2.41419 -1.2807,-3.57187 -0.44056,-1.15769 -1.82546,-4.96239 -3.07756,-8.45489 -1.25209,-3.4925 -2.46378,-6.82625 -2.69264,-7.40833 -0.82682,-2.10295 -1.13815,-2.95593 -2.07624,-5.68855 -0.52455,-1.52797 -1.12319,-3.19484 -1.33033,-3.70416 -0.45651,-1.12251 -5.16053,-13.99255 -5.31881,-14.55209 -0.0833,-0.2945 0.41855,-0.56037 1.94552,-1.03069 1.13178,-0.3486 2.53404,-0.79335 3.11612,-0.98834 1.69653,-0.5683 1.93077,-0.48922 2.25796,0.76226 0.48551,1.85705 1.37056,4.16719 1.59651,4.16719 0.20121,0 2.64225,-0.96313 4.34761,-1.71539 0.43656,-0.19257 0.97235,-0.41533 1.19063,-0.49502 0.21828,-0.0797 1.79793,-0.72138 3.51033,-1.42598 4.97325,-2.04631 6.73812,-3.63448 7.7199,-6.94694 0.35426,-1.19525 0.40098,-2.1642 0.26154,-5.42396 -0.28095,-6.56807 0.52632,-16.35798 1.9032,-23.08036 3.27187,-15.97439 10.57017,-29.54296 20.3394,-37.81384 2.11185,-1.78795 3.60038,-2.3322 5.81337,-2.12555 2.68095,0.25035 4.35111,1.47469 5.61352,4.11508 0.57202,1.19643 0.65845,1.67733 0.54823,3.0505 -0.18705,2.33017 -0.86335,3.39778 -3.99877,6.31242 -3.62957,3.37399 -6.8046,7.64197 -9.11458,12.25214 -1.83554,3.66327 -4.78337,11.61246 -4.43535,11.96047 0.0742,0.0742 0.26328,-0.20911 0.42029,-0.62948 1.88846,-5.05597 4.98425,-11.129 7.20076,-14.12576 3.37512,-4.56322 4.61127,-6.06092 6.783,-8.2182 3.18966,-3.16843 5.21262,-4.83826 7.86173,-6.48938 1.90276,-1.18593 2.23939,-1.30349 3.98526,-1.39165 1.6029,-0.0809 2.13141,0.008 3.31474,0.55992 0.77429,0.36092 1.65956,0.89889 1.96726,1.1955 0.9862,0.95065 1.75405,2.42262 1.62256,3.11047 -0.0683,0.35751 -0.0217,0.65001 0.10363,0.65001 0.42028,0 0.23333,2.34686 -0.30063,3.77401 -0.58498,1.56349 -2.13648,3.28806 -2.66449,2.96173 -0.2071,-0.12799 -0.26119,-0.0943 -0.14651,0.0913 0.10657,0.17242 -0.17768,0.47719 -0.68672,0.7363 -1.14213,0.58138 -3.39367,2.4565 -5.36646,4.46928 -5.4212,5.53111 -9.79883,13.27084 -12.32,21.78198 -0.58689,1.98128 -0.57974,2.87303 0.0106,1.31734 2.55444,-6.73196 5.82124,-12.531 9.95696,-17.67504 2.59461,-3.22718 7.64132,-8.15892 9.99635,-9.76863 0.30701,-0.20984 0.61773,-0.4569 0.69049,-0.54902 0.23775,-0.301 3.41707,-2.38506 3.89734,-2.55473 0.25756,-0.091 0.70641,-0.37621 0.99746,-0.63382 0.70807,-0.62674 5.78325,-3.1626 7.11863,-3.55689 0.91245,-0.26941 1.12101,-0.25216 1.47024,0.12162 0.22383,0.23957 0.31188,0.29173 0.19567,0.11593 -0.1162,-0.17581 -0.0864,-0.3968 0.0661,-0.49111 0.15259,-0.0943 0.27743,-0.0369 0.27743,0.12764 0,0.1729 0.17542,0.12368 0.41578,-0.11668 0.51731,-0.51731 0.73464,-0.51705 2.48574,0.003 1.78099,0.5289 3.96878,2.61468 4.44963,4.24217 0.72645,2.45869 0.21927,4.86483 -1.40359,6.65881 -1.13547,1.25521 -1.47151,1.46297 -4.62464,2.85928 -5.05369,2.23794 -11.04506,6.84363 -14.42486,11.08871 -0.5793,0.7276 -1.12112,1.38245 -1.20406,1.45521 -0.35791,0.31401 -2.34047,3.16655 -3.15999,4.54664 -1.02145,1.72016 -1.81383,2.19098 -1.63484,0.97139 0.0808,-0.55041 8e-4,-0.75553 -0.29437,-0.75553 -0.2229,0 -0.5936,-0.0723 -0.82378,-0.1606 -0.6811,-0.26136 -0.51115,0.88577 0.24294,1.63986 0.82525,0.82525 0.82973,1.37495 0.0241,2.95738 -0.82645,1.62331 -2.53829,5.9742 -2.5354,6.44408 10e-4,0.20024 0.71685,-1.04213 1.59026,-2.76082 4.49744,-8.85003 11.57969,-16.34173 20.36792,-21.54546 6.7745,-4.01135 15.69602,-7.22904 18.92499,-6.82561 4.43854,0.55456 7.21761,5.54829 5.30664,9.53554 -1.14739,2.39406 -2.47693,3.39344 -5.59437,4.20512 -2.16345,0.5633 -6.63838,2.33573 -8.64156,3.42274 -2.1236,1.15235 -3.74148,2.09764 -3.91028,2.28468 -0.0728,0.0806 -0.66808,0.49236 -1.32292,0.91497 -1.57305,1.0152 -5.82083,4.61819 -5.82083,4.93726 0,0.1379 -0.82157,0.85016 -1.8257,1.5828 -1.97467,1.44077 -2.84003,2.54909 -3.60161,4.61285 -0.26851,0.7276 -0.69071,1.62057 -0.93824,1.98437 -1.84983,2.71879 -4.32558,9.36283 -5.17603,13.89063 -0.73913,3.93512 -0.67956,12.2049 0.11457,15.90476 1.26185,5.879 4.5874,13.72656 6.99524,16.5072 0.25466,0.29409 0.46578,0.62265 0.46916,0.73013 0.0225,0.71465 6.21278,6.80414 9.07421,8.92638 3.17939,2.35806 3.70116,3.11976 3.83644,5.6006 0.0569,1.04289 -0.0343,2.31341 -0.20261,2.82338 -0.4983,1.50984 -1.76445,3.01659 -3.25155,3.86943 -1.19183,0.6835 -1.66013,0.79764 -3.24492,0.7909 -1.05381,-0.004 -2.25041,-0.1806 -2.77624,-0.40863 z m -69.45502,-30.0056 c 0.0899,-0.14552 0.0374,-0.26459 -0.11667,-0.26459 -0.15411,0 -0.2802,0.11907 -0.2802,0.26459 0,0.14552 0.0525,0.26458 0.11668,0.26458 0.0642,0 0.19026,-0.11906 0.28019,-0.26458 z m 2.77813,-3.74827 c 0,-0.31529 -0.0337,-0.52365 -0.0749,-0.46302 -0.0412,0.0606 -0.23435,0.3186 -0.42927,0.57327 -0.30337,0.39634 -0.29258,0.46302 0.0749,0.46302 0.26389,0 0.42927,-0.22086 0.42927,-0.57327 z m 0.79375,0.0441 c 0,-0.14552 -0.0525,-0.26458 -0.11668,-0.26458 -0.0642,0 -0.19026,0.11906 -0.2802,0.26458 -0.0899,0.14552 -0.0374,0.26458 0.11668,0.26458 0.15411,0 0.2802,-0.11906 0.2802,-0.26458 z m 36.24792,-20.09272 c 0,-0.42797 -0.11907,-0.85172 -0.26459,-0.94165 -0.15746,-0.0973 -0.26458,0.21773 -0.26458,0.77813 0,0.51791 0.11906,0.94166 0.26458,0.94166 0.14552,0 0.26459,-0.35016 0.26459,-0.77814 z m 0.65015,-0.5265 c 0.0837,-0.13546 0.0312,-0.32109 -0.11667,-0.41249 -0.1479,-0.0914 -0.2689,0.0194 -0.2689,0.2463 0,0.46475 0.15877,0.53318 0.38557,0.16619 z m -12.82099,-14.0412 c 0,-0.14552 -0.0525,-0.26458 -0.11667,-0.26458 -0.0642,0 -0.19026,0.11906 -0.2802,0.26458 -0.0899,0.14552 -0.0374,0.26459 0.11667,0.26459 0.15411,0 0.2802,-0.11907 0.2802,-0.26459 z m 34.48827,-9.11965 c 0.082,-0.21362 0.0352,-0.45877 -0.10399,-0.54478 -0.13916,-0.086 -0.25303,0.0888 -0.25303,0.3884 0,0.63886 0.14714,0.70331 0.35702,0.15638 z m -5.62336,-1.62649 c 0.30688,-0.36976 0.28745,-0.41436 -0.14411,-0.33073 -0.27435,0.0532 -0.54838,0.24549 -0.60894,0.42739 -0.15715,0.47199 0.33337,0.40903 0.75305,-0.0967 z m 20.52833,-9.94097 c -0.0845,-0.21106 -0.14715,-0.14837 -0.15985,0.15986 -0.0115,0.27891 0.051,0.43518 0.13897,0.34726 0.0879,-0.0879 0.0973,-0.31612 0.0209,-0.50712 z m -21.3474,-18.05873 c 0,-0.0642 -0.11907,-0.19026 -0.26459,-0.2802 -0.14552,-0.0899 -0.26458,-0.0374 -0.26458,0.11668 0,0.15411 0.11906,0.2802 0.26458,0.2802 0.14552,0 0.26459,-0.0525 0.26459,-0.11668 z m -1.41806,-2.44791 c -0.31778,-0.31777 -0.77573,0.39547 -0.57347,0.89316 0.1793,0.44117 0.21834,0.43152 0.47357,-0.11705 0.15299,-0.32881 0.19795,-0.67806 0.0999,-0.77611 z m 3.00556,0.30001 c 0,-0.43658 -0.41816,-0.51034 -0.66146,-0.11667 -0.21577,0.34912 0.1006,0.84457 0.41516,0.65015 0.13546,-0.0837 0.2463,-0.32378 0.2463,-0.53348 z m 0.5508,-1.17501 c 0.13362,0 0.24295,-0.19133 0.24295,-0.42518 0,-0.27901 -0.14388,-0.36997 -0.41852,-0.26458 -0.23018,0.0883 -0.61713,0.17 -0.85989,0.18149 -0.27764,0.0131 -0.31808,0.0706 -0.10901,0.15489 0.18281,0.0737 0.25258,0.26312 0.15504,0.42094 -0.11448,0.18524 -0.0136,0.22412 0.28457,0.1097 0.25406,-0.0975 0.57124,-0.17726 0.70486,-0.17726 z m 15.58878,-0.11667 c 0,-0.27927 -0.50776,-0.39659 -0.65879,-0.15223 -0.0914,0.1479 0.0194,0.2689 0.2463,0.2689 0.22687,0 0.41249,-0.0525 0.41249,-0.11667 z m -30.43475,-2.25424 c 0.21407,-0.13538 0.32041,-0.31495 0.23631,-0.39905 -0.20842,-0.20843 -1.02239,0.12358 -1.02239,0.41702 0,0.30157 0.29135,0.29491 0.78608,-0.018 z"
       id="path40" />
    <path
       id="path50"
       d="m -286.5607,213.8712 c -0.0728,-0.0673 -12.09808,-0.26616 -26.72292,-0.44188 -30.83054,-0.37043 -32.34505,-0.43101 -34.39583,-1.37573 -2.32048,-1.06897 -4.1913,-3.44088 -4.64558,-5.88986 l -0.19209,-1.03558 10.0256,0.17201 c 5.51409,0.0946 23.77733,0.35922 40.58498,0.58804 16.80766,0.22883 30.70411,0.4633 30.881,0.52105 0.24822,0.081 0.23727,0.3853 -0.048,1.3331 -0.49114,1.63195 -1.44023,3.02148 -2.85632,4.18186 -2.06237,1.68996 -2.72418,1.85549 -7.86836,1.96806 -2.54662,0.0557 -4.68974,0.0462 -4.7625,-0.0211 z m -0.26459,-35.92447 c -20.75636,-0.32461 -54.44425,-0.77581 -59.7672,-0.80049 -2.6764,-0.0124 -5.03814,-0.0885 -5.24833,-0.1692 -0.32626,-0.1252 -0.35452,-1.13764 -0.1932,-6.92262 0.20737,-7.43681 0.43468,-8.63861 2.01539,-10.65543 1.04391,-1.33194 3.38853,-2.83228 4.85385,-3.10603 0.70744,-0.13216 15.20681,-0.0289 34.60717,0.24647 32.79699,0.46552 33.41613,0.4839 34.88374,1.03562 1.97565,0.7427 3.72426,2.3214 4.64258,4.19147 l 0.74246,1.51194 v 7.40833 7.40834 l -1.71979,0.0282 c -0.94589,0.0155 -7.61339,-0.064 -14.81667,-0.17661 z"
       style="fill:#1b304f;stroke-width:1"
       sodipodi:nodetypes="sssscssssssssssssssssscccsss" />
    <g
       style="stroke-width:7.85803"
       transform="matrix(0.08719798,0,0,0.08719798,-347.54298,159.36603)"
       id="g2008">
      <g
         style="stroke-width:4.21558"
         transform="matrix(1.8640446,0,0,1.8640446,-748.04227,20.260143)"
         id="g2028">
        <rect
           style="stroke-width:2.78034"
           id="rect1911"
           fill="#e6e6e6"
           height="217"
           width="412"
           x="442.55667"
           y="0" />
        <path
           style="stroke-width:2.78034"
           id="path1913"
           fill="white"
           transform="translate(-172.72167,-161.05139)"
           d="m 627.27833,366.05139 h 387.99997 v -193 H 627.27833 Z" />
        <rect
           style="stroke-width:2.78034"
           id="rect1915"
           fill="#3f3d56"
           height="138"
           width="138"
           y="40"
           x="484.55667" />
        <circle
           style="stroke-width:2.78034"
           id="circle1917"
           fill="#f9a826"
           r="4"
           cy="99"
           cx="589.55664" />
        <circle
           style="stroke-width:2.78034"
           id="circle1919"
           fill="#f9a826"
           r="4"
           cy="85"
           cx="574.55664" />
        <path
           style="stroke-width:2.78034"
           id="path1921"
           fill="#f9a826"
           transform="translate(-172.72167,-161.05139)"
           d="m 745.27833,260.05139 a 7.95011,7.95011 0 0 0 -4.16785,1.181 25.12434,25.12434 0 0 0 -3.86474,-4.53583 c 0.0171,-0.21344 0.0326,-0.42731 0.0326,-0.64514 a 7.99417,7.99417 0 0 0 -13.54682,-5.7569 24.50673,24.50673 0 0 0 -6.46264,-0.0564 c 10e-4,-0.0627 0.009,-0.12366 0.009,-0.18671 a 8,8 0 1 0 -13.2594,6.01813 25.14047,25.14047 0 0 0 -3.62439,3.83362 7.99939,7.99939 0 1 0 -5.11621,14.14825 l 0.0253,-10e-4 c -0.0131,0.33258 -0.0253,0.66546 -0.0253,1.00128 a 25.045,25.045 0 0 0 0.72363,5.973 14.99382,14.99382 0 1 0 19.56885,18.57819 24.97131,24.97131 0 0 0 16.34241,-2.42426 8.00091,8.00091 0 1 0 10.492,-10.492 24.85715,24.85715 0 0 0 2.84784,-10.63617 l 0.0253,10e-4 a 8,8 0 0 0 0,-16 z" />
        <rect
           style="stroke-width:2.78034"
           id="rect1923"
           fill="#e6e6e6"
           height="6"
           width="40"
           y="37"
           x="530.55664" />
        <rect
           style="stroke-width:2.78034"
           id="rect1925"
           fill="#3f3d56"
           height="138"
           width="138"
           y="40"
           x="660.55664" />
        <circle
           style="stroke-width:2.78034"
           id="circle1927"
           fill="#f9a826"
           r="1.8"
           cy="131.8"
           cx="755.75665" />
        <circle
           style="stroke-width:2.78034"
           id="circle1929"
           fill="#f9a826"
           r="1.8"
           cy="125.5"
           cx="749.00665" />
        <path
           style="stroke-width:2.78034"
           id="path1931"
           fill="#f9a826"
           transform="translate(-172.72167,-161.05139)"
           d="m 920.82833,292.85139 a 3.57749,3.57749 0 0 0 -1.87553,0.53144 11.30621,11.30621 0 0 0 -1.73914,-2.04113 c 0.008,-0.096 0.0147,-0.19228 0.0147,-0.29031 a 3.59737,3.59737 0 0 0 -6.09607,-2.5906 11.02775,11.02775 0 0 0 -2.90819,-0.0254 c 6.6e-4,-0.0282 0.004,-0.0557 0.004,-0.084 a 3.6,3.6 0 1 0 -5.96673,2.70816 11.31327,11.31327 0 0 0 -1.631,1.72513 3.59972,3.59972 0 1 0 -2.30229,6.36671 l 0.0114,-5.8e-4 c -0.006,0.14966 -0.0114,0.29946 -0.0114,0.45058 a 11.27051,11.27051 0 0 0 0.32563,2.68783 6.74722,6.74722 0 1 0 8.806,8.36019 11.23714,11.23714 0 0 0 7.35409,-1.09092 3.60041,3.60041 0 1 0 4.7214,-4.7214 11.18577,11.18577 0 0 0 1.28153,-4.78628 l 0.0114,5.8e-4 a 3.6,3.6 0 0 0 0,-7.2 z" />
        <circle
           style="stroke-width:2.78034"
           id="circle1933"
           fill="#f9a826"
           r="1.8"
           cy="97.641708"
           cx="769.87848" />
        <circle
           style="stroke-width:2.78034"
           id="circle1935"
           fill="#f9a826"
           r="1.8"
           cy="89.436668"
           cx="774.11285" />
        <path
           style="stroke-width:2.78034"
           id="path1937"
           fill="#f9a826"
           transform="translate(-172.72167,-161.05139)"
           d="m 940.52643,251.32953 a 3.57751,3.57751 0 0 0 -1.01994,-1.66125 11.3064,11.3064 0 0 0 1.49326,-2.22732 c 0.0945,-0.0186 0.18907,-0.038 0.28342,-0.0646 a 3.59737,3.59737 0 0 0 0.84112,-6.57006 11.02787,11.02787 0 0 0 -0.76391,-2.80619 c 0.0273,-0.007 0.0547,-0.011 0.082,-0.0187 a 3.6,3.6 0 1 0 -4.22419,-5.00922 11.3133,11.3133 0 0 0 -2.10265,-1.10227 3.59973,3.59973 0 1 0 -6.75243,-0.49024 l 0.004,0.0108 c -0.14566,0.0349 -0.29134,0.0702 -0.4368,0.11117 a 11.27,11.27 0 0 0 -2.49892,1.042 6.74722,6.74722 0 1 0 -5.66009,10.74251 11.2371,11.2371 0 0 0 3.04357,6.783 3.60041,3.60041 0 1 0 5.82448,3.26477 11.1857,11.1857 0 0 0 4.95446,-0.0639 l 0.003,0.0111 a 3.6,3.6 0 1 0 6.93042,-1.95173 z" />
        <circle
           style="stroke-width:2.78034"
           id="circle1939"
           fill="#f9a826"
           r="1.8"
           cy="73.181488"
           cx="700.1618" />
        <circle
           style="stroke-width:2.78034"
           id="circle1941"
           fill="#f9a826"
           r="1.8"
           cy="73.918869"
           cx="690.95807" />
        <path
           style="stroke-width:2.78034"
           id="path1943"
           fill="#f9a826"
           transform="translate(-172.72167,-161.05139)"
           d="m 867.72564,239.88258 a 3.57754,3.57754 0 0 0 -0.87207,1.74343 11.306,11.306 0 0 0 -2.68,-0.0918 c -0.0657,-0.0704 -0.13212,-0.14048 -0.20451,-0.20657 a 3.59737,3.59737 0 0 0 -6.02337,2.75542 11.02762,11.02762 0 0 0 -1.97953,2.13065 c -0.0204,-0.0195 -0.0382,-0.0407 -0.0592,-0.0598 a 3.6,3.6 0 1 0 -2.02291,6.23247 11.31355,11.31355 0 0 0 0.17439,2.36765 3.59972,3.59972 0 1 0 3.14968,5.99292 l 0.007,-0.009 c 0.10655,0.10527 0.21348,0.21033 0.32508,0.31221 a 11.26967,11.26967 0 0 0 2.20457,1.57173 6.74722,6.74722 0 1 0 12.11144,-0.86672 11.23714,11.23714 0 0 0 4.15267,-6.16668 3.60041,3.60041 0 1 0 -0.30355,-6.67017 11.18565,11.18565 0 0 0 -2.67072,-4.17348 l 0.008,-0.008 a 3.6,3.6 0 1 0 -5.31735,-4.85445 z" />
        <rect
           style="stroke-width:2.78034"
           id="rect1945"
           fill="#e6e6e6"
           height="6"
           width="40"
           y="37"
           x="706.55664" />
      </g>
      <g
         transform="translate(-127.28592,-5.6813767)"
         id="g2056">
        <rect
           id="rect1857"
           fill="#ccc"
           height="123"
           width="110"
           y="268"
           x="151.55666"
           style="stroke-width:19.3938" />
        <path
           id="path1861"
           fill="#e6e6e6"
           transform="translate(-172.72167,-161.05139)"
           d="m 380.72875,702.28371 -1.88975,25.83495 a 8.22428,8.22428 0 0 0 8.69988,8.80928 l 13.26993,-0.80373 a 4.19488,4.19488 0 0 0 3.8153,-5.2044 L 397.25817,701.457 Z"
           style="stroke-width:19.3938" />
        <path
           id="path1863"
           fill="#e6e6e6"
           transform="translate(-172.72167,-161.05139)"
           d="m 491.72431,717.56077 c 15.6176,3.6534 26.77411,8.84633 34.103,15.87434 a 15.03539,15.03539 0 0 0 9.62359,4.1254 c 4.59653,0.24174 8.35492,-0.27349 11.17944,-1.53511 h 4.5e-4 a 4.43019,4.43019 0 0 0 2.62469,-3.65076 4.50814,4.50814 0 0 0 -1.88846,-4.16687 l -37.03954,-26.3546 -15.73318,6.294 -3.67016,3.67016 a 3.63415,3.63415 0 0 0 0.8002,5.74346 z"
           style="stroke-width:19.3938" />
        <path
           id="path1865"
           fill="#2f2e41"
           transform="translate(-172.72167,-161.05139)"
           d="m 443.66188,295.74594 -105.87329,-0.98031 c 0.26623,-15.42064 3.85407,-30.56331 11.69669,-44.11378 5.15076,-8.89946 5.03948,-18.58474 3.7982,-26.7444 -1.91555,-12.592 2.53886,-25.47548 12.43708,-33.49119 a 39.916,39.916 0 0 1 26.84266,-8.88134 l 2.0558,0.0857 a 40.00777,40.00777 0 0 1 32.87054,19.76983 33.32736,33.32736 0 0 1 3.96134,20.30073 c -0.67106,6.60129 0.93466,13.26982 4.6906,20.00186 6.47994,14.78258 7.88315,33.6988 7.52038,54.05294 z"
           style="fill:#7a789f;fill-opacity:1;stroke-width:19.3938" />
        <path
           id="path1867"
           fill="#f9a826"
           transform="translate(-172.72167,-161.05139)"
           d="m 514.49653,703.22772 -20.77878,5.42055 -101.1836,-220.4357 6.324,215.01515 h -20.7788 C 355.87585,602.06893 315.78882,485.32091 333.81153,448.46187 l 107.50757,-6.324 z"
           style="stroke-width:19.3938" />
        <circle
           id="circle1869"
           fill="#ffb9b9"
           r="28.00618"
           cy="69.685051"
           cx="218.90906"
           style="stroke-width:19.3938" />
        <path
           id="path1871"
           fill="#ffb9b9"
           transform="translate(-172.72167,-161.05139)"
           d="m 416.0232,282.23167 -46.07467,-2.71028 c 4.51541,-10.36377 6.31912,-20.34363 4.51712,-29.813 h 34.33015 c -0.0778,7.27061 3.54031,19.84742 7.2274,32.52328 z"
           style="stroke-width:19.3938" />
        <polygon
           id="polygon1873"
           fill="#f9a826"
           points="218.909,116.663 238.784,106.725 251.432,111.243 272.211,289.217 171.028,296.445 181.417,117.115 199.034,112.146 "
           style="stroke-width:19.3938" />
        <path
           id="path1875"
           fill="#e6e6e6"
           transform="translate(-172.72167,-161.05139)"
           d="m 360.91428,579.45849 -69.112,-15.80994 c 20.5506,-68.14818 57.57349,-224.05122 45.623,-279.61 l 36.137,-16.26165 z"
           style="stroke-width:19.3938" />
        <path
           id="path1877"
           fill="#e6e6e6"
           transform="translate(-172.72167,-161.05139)"
           d="m 327.48755,382.51184 -26.19932,-16.26165 22.3434,-65.4394 a 30.87113,30.87113 0 0 1 13.49426,-16.02839 l 7.52674,-4.35758 -4.51713,65.95 z"
           style="stroke-width:19.3938" />
        <path
           id="path1879"
           fill="#e6e6e6"
           d="m 505.01057,564.552 c -21.81327,12.62013 -76.33909,19.65509 -100.28018,10.8411 -1.76169,-61.57277 -5.21664,-235.739 5.87226,-309.42306 l 39.7507,16.26165 -3.6137,48.78495 c -19.00407,41.73287 36.17963,187.08874 58.27092,233.53536 z"
           style="stroke-width:19.3938"
           transform="translate(-172.72167,-161.05139)" />
        <polygon
           id="polygon1881"
           fill="#e6e6e6"
           points="272.211,168.158 277.632,121.18 331.837,197.068 329.127,213.33 304.734,205.199 "
           style="stroke-width:19.3938" />
        <path
           id="path1883"
           fill="#ffb9b9"
           transform="translate(-172.72167,-161.05139)"
           d="m 425.40285,409.54533 a 6.78537,6.78537 0 0 0 8.10524,5.11221 l 20.706,-4.68917 -2.99259,-13.21656 -20.70643,4.68828 a 6.77693,6.77693 0 0 0 -5.11221,8.10524 z"
           style="stroke-width:19.3938" />
        <path
           id="path1885"
           fill="#2f2e41"
           transform="translate(-172.72167,-161.05139)"
           d="m 416.0232,223.509 c -15.55574,-6.3965 -30.9192,-6.85936 -46.07467,-0.90342 l -6.324,-22.58563 h 57.8192 z"
           style="fill:#7a789f;fill-opacity:1;stroke-width:19.3938" />
        <path
           id="path1887"
           fill="#e6e6e6"
           transform="translate(-172.72167,-161.05139)"
           d="m 444.02938,394.25637 11.74452,21.6822 c 19.7541,-5.50955 36.87412,-22.87878 53.30208,-43.3644 l -4.51713,-14.4548 -28.00617,7.2274 z"
           style="stroke-width:19.3938" />
        <path
           id="path1889"
           fill="#3f3d56"
           transform="translate(-172.72167,-161.05139)"
           d="m 435.44684,349.53683 h -3.6137 c 0,-51.11057 -10.52349,-86.7288 -20.77877,-86.7288 l -0.90343,-3.6137 c 9.197,0 15.06047,14.824 18.35964,27.26023 4.47302,16.85938 6.93626,39.26237 6.93626,63.08227 z"
           style="stroke-width:19.3938" />
        <path
           id="path1891"
           fill="#3f3d56"
           transform="translate(-172.72167,-161.05139)"
           d="M 352.33174,336.88888 H 348.718 c 0,-46.80915 10.59628,-75.8877 26.19933,-75.8877 l -0.90343,3.6137 c -10.79254,0 -21.68216,22.34786 -21.68216,72.274 z"
           style="stroke-width:19.3938" />
        <circle
           id="circle1893"
           fill="#3f3d56"
           r="9.0342503"
           cy="189.38885"
           cx="260.91833"
           style="stroke-width:19.3938" />
        <path
           id="path1895"
           fill="#3f3d56"
           transform="translate(-172.72167,-161.05139)"
           d="m 337.87694,358.57108 h -3.6137 c 0,-12.95189 7.29489,-23.48905 16.26165,-23.48905 v 3.6137 c -6.97419,0 -12.64795,8.91603 -12.64795,19.87535 z"
           style="stroke-width:19.3938" />
        <path
           id="path1897"
           fill="#3f3d56"
           transform="translate(-172.72167,-161.05139)"
           d="m 366.78654,358.57108 h -3.6137 c 0,-10.95932 -5.67376,-19.87535 -12.64795,-19.87535 V 335.082 c 8.96676,0 16.26165,10.53719 16.26165,23.48908 z"
           style="stroke-width:19.3938" />
        <circle
           id="circle1899"
           fill="#3f3d56"
           r="3.6136999"
           cy="198.42311"
           cx="192.25803"
           style="stroke-width:19.3938" />
        <circle
           id="circle1901"
           fill="#3f3d56"
           r="3.6136999"
           cy="198.42311"
           cx="163.34842"
           style="stroke-width:19.3938" />
        <polygon
           id="polygon1903"
           fill="#f9a826"
           points="118.177,165.193 140.724,169.219 192.258,242.495 164.88,236.053 "
           style="stroke-width:19.3938" />
        <path
           id="path1905"
           fill="#3f3d56"
           transform="translate(-172.72167,-161.05139)"
           d="m 286.8996,325.34727 a 1.91768,1.91768 0 0 0 -1.5735,2.971 l 48.17135,73.08788 a 1.91143,1.91143 0 0 0 1.16016,0.81035 l 22.4127,5.27321 a 1.91439,1.91439 0 0 0 2.00447,-2.9648 L 306.1856,329.32314 a 1.90335,1.90335 0 0 0 -1.22941,-0.783 l -17.69531,-3.16023 a 2.07607,2.07607 0 0 0 -0.36128,-0.0326 z"
           style="stroke-width:19.3938" />
        <path
           id="path1907"
           fill="#ffb9b9"
           transform="translate(-172.72167,-161.05139)"
           d="m 316.94907,377.60432 1.33881,13.48521 21.12638,-2.09711 a 6.775731,6.775731 0 0 0 -1.33837,-13.48521 z"
           style="stroke-width:19.3938" />
        <path
           id="path1909"
           fill="#e6e6e6"
           transform="translate(-172.72167,-161.05139)"
           d="m 298.57839,376.04229 a 17.42694,17.42694 0 0 0 17.40637,17.31065 h 3.47387 l 2.529,-21.07565 -20.93979,-7.53839 z"
           style="stroke-width:19.3938" />
      </g>
      <rect
         style="stroke-width:19.3938"
         x="0"
         y="575.65649"
         width="519.55664"
         height="2.24072"
         fill="#3f3d56"
         id="rect1951" />
    </g>
    <g
       transform="translate(-55.06545,-45.040886)"
       id="g2301">
      <path
         sodipodi:nodetypes="sssscssssssssscsssscsscsscsscscscc"
         style="fill:#1b304f;fill-opacity:1;stroke-width:1"
         d="m -206.65654,192.35541 c -0.3638,-0.0441 -11.77237,-0.21373 -25.35238,-0.377 -26.43694,-0.31784 -26.28347,-0.30875 -28.18116,-1.66883 -2.12929,-1.52607 -3.58964,-3.66558 -3.69126,-5.40794 l -0.0575,-0.98576 h 3.70417 c 6.68009,0 40.68716,0.41633 43.25937,0.5296 1.38245,0.0609 9.53823,0.18213 18.12396,0.26945 8.58573,0.0873 15.81878,0.21916 16.07344,0.29299 0.68998,0.20005 0.566,0.9532 -0.43859,2.6641 -1.51916,2.58727 -2.90854,3.81158 -5.02302,4.42628 -1.18135,0.34343 -2.86537,0.40958 -9.59422,0.3769 -4.48875,-0.0218 -8.45901,-0.0757 -8.82282,-0.11979 z m 11.09046,-35.6567 c -0.0606,-0.0536 -7.0754,-0.17343 -15.58837,-0.26638 -8.51297,-0.093 -19.2286,-0.22679 -23.8125,-0.29743 -8.75486,-0.1349 -27.91464,-0.4525 -28.54868,-0.47323 -0.31206,-0.0102 -0.34674,-1.13745 -0.21976,-7.14222 l 0.15079,-7.13012 0.79925,-1.62318 c 1.03356,-2.09903 2.07768,-3.14209 4.1826,-4.17833 l 1.70566,-0.83969 28.49371,0.32961 c 15.67155,0.18129 29.74387,0.44636 31.27184,0.58905 3.35158,0.31299 3.39614,0.31372 5.55625,0.0918 1.74241,-0.17896 2.68566,-0.0239 5.18608,0.85281 1.0916,0.38272 1.55311,0.75139 2.41402,1.92839 2.18081,2.98151 2.18972,3.0189 2.18761,9.18373 0,3.02535 -0.0778,6.30432 -0.17055,7.28658 l -0.16867,1.78594 h -6.66452 c -3.66549,0 -6.71413,-0.0438 -6.77476,-0.0974 z"
         id="path30" />
      <path
         sodipodi:nodetypes="csssccssssscsscc"
         style="fill:#e6e6e6;stroke-width:1"
         d="m -192.50133,184.81367 c -5.38427,-0.0926 -15.32599,-0.24337 -22.09271,-0.33492 -6.76672,-0.0916 -16.47031,-0.22384 -21.56354,-0.29396 -5.09323,-0.0701 -13.4758,-0.15935 -18.62794,-0.19827 l -9.36753,-0.0708 0.16429,-13.96752 c 0.0904,-7.68214 0.21633,-14.05199 0.27995,-14.15521 0.0636,-0.10323 2.65726,-0.11233 5.76365,-0.0202 3.1064,0.0921 13.38706,0.24374 22.84592,0.33698 9.45885,0.0932 19.10291,0.22404 21.43125,0.29067 2.32833,0.0666 10.40935,0.19725 17.95783,0.29027 l 13.72448,0.16914 -0.19063,13.92483 c -0.10485,7.65865 -0.26821,13.98617 -0.36303,14.06114 -0.0948,0.075 -4.57772,0.0605 -9.96199,-0.0321 z"
         id="path42" />
      <path
         id="path44"
         d="m -150.85985,236.59982 c -1.75983,-0.62889 -2.93153,-1.65861 -3.95015,-3.47144 -0.45413,-0.80816 -0.59749,-1.49613 -0.60653,-2.91042 -0.0153,-2.41595 0.583,-3.58473 3.25135,-6.35 5.14504,-5.33193 8.99063,-12.9941 11.26662,-22.44838 0.37992,-1.57807 0.64329,-2.91667 0.58529,-2.97467 -0.058,-0.058 -0.38796,0.81643 -0.73321,1.94318 -1.28464,4.19219 -4.66313,11.85261 -6.31857,14.3268 -0.2526,0.37753 -1.25082,1.87703 -2.21832,3.33224 -2.23264,3.35817 -2.90195,4.16687 -6.14087,7.41968 -4.83746,4.8582 -6.34003,5.78609 -9.39271,5.80027 -2.95543,0.0137 -4.77171,-1.07252 -6.1241,-3.66256 -1.60213,-3.0684 -0.57534,-6.58547 2.60953,-8.93827 6.71933,-4.96385 12.64737,-14.8497 15.28503,-25.48995 1.34914,-5.44239 1.52705,-7.28041 0.29223,-3.01939 -2.99529,10.33617 -8.75252,19.95529 -16.15847,26.99751 -2.05944,1.95828 -2.40731,2.26611 -4.37089,3.86764 -2.71788,2.21675 -7.99669,5.4059 -10.27143,6.20541 -4.5877,1.61245 -9.46483,-2.24014 -8.96512,-7.0818 0.28344,-2.74634 1.64355,-4.52824 4.56551,-5.98137 3.83342,-1.90641 7.52681,-4.70096 10.8049,-8.17534 1.9309,-2.04654 5.18906,-6.10616 5.18906,-6.46552 0,-0.0915 0.34168,-0.66408 0.75927,-1.27239 0.88694,-1.29193 3.02091,-5.48193 3.62456,-7.11669 1.71799,-4.65262 2.84228,-9.26707 1.33977,-5.49869 -1.73316,4.34673 -4.07091,8.45294 -7.15505,12.56771 -1.45307,1.93862 -6.4974,7.21011 -8.10422,8.46917 -6.22741,4.87963 -11.26291,7.80603 -17.18725,9.98843 -3.22159,1.18677 -4.21011,1.35113 -5.95174,0.98957 -2.97725,-0.61808 -5.13574,-3.16097 -5.3615,-6.31632 -0.11078,-1.54834 -0.0364,-1.95788 0.57501,-3.16437 0.80565,-1.58986 2.23965,-3.04836 3.43365,-3.49228 8.11409,-3.0168 12.9032,-6.04619 18.52142,-11.71589 3.65648,-3.68998 4.99955,-5.58425 7.44536,-10.50102 2.21652,-4.45576 3.5156,-8.98219 4.23336,-14.75052 0.0951,-0.76398 0.28072,-1.38906 0.41259,-1.38906 0.13187,0 0.23977,-0.24515 0.23977,-0.54478 0,-0.29963 -0.11907,-0.4712 -0.26459,-0.38126 -0.16835,0.10404 -0.26458,-0.64227 -0.26458,-2.05173 0,-2.86164 -0.61061,-7.33729 -1.43468,-10.51598 -1.37848,-5.31715 -5.36329,-13.35639 -7.94544,-16.02966 -0.15244,-0.15782 -0.81295,-0.92489 -1.4678,-1.70459 -0.65484,-0.7797 -1.46195,-1.6573 -1.79356,-1.95021 -0.33162,-0.29291 -0.99989,-0.89507 -1.48503,-1.33812 -1.15715,-1.05673 -4.66257,-3.57041 -6.63762,-4.75973 -2.17965,-1.31252 -2.96496,-2.14044 -3.46864,-3.65687 -1.10114,-3.31523 0.63522,-7.32019 3.77605,-8.70953 0.64845,-0.28684 1.77331,-0.50153 2.69579,-0.51451 1.63183,-0.023 2.81874,0.40861 5.5901,2.03267 1.64792,0.96571 1.82324,1.17638 0.97896,1.17638 -0.39291,0 -0.71438,0.10933 -0.71438,0.24295 0,0.52478 0.33794,1.07997 0.65737,1.07997 0.18489,0 0.48561,0.18006 0.66825,0.40014 0.23095,0.27827 0.43017,0.31874 0.65414,0.13286 0.55704,-0.46231 2.574,0.11167 4.00496,1.1397 1.85848,1.33519 6.43577,3.4618 8.83195,4.10333 3.32668,0.89066 5.06767,1.11297 8.77509,1.12052 6.07549,0.0124 9.0383,-0.83722 18.74157,-5.3742 2.75318,-1.28731 7.90208,-3.62772 10.05417,-4.57009 4.28456,-1.87612 6.08542,-2.77086 6.08542,-3.02345 0,-0.14505 -0.29766,-0.93678 -0.66146,-1.7594 -0.3638,-0.82262 -0.65826,-1.62968 -0.65434,-1.79348 0.004,-0.16379 0.74805,-0.62084 1.65364,-1.01566 0.90559,-0.39482 2.34625,-1.0303 3.20146,-1.41218 1.28733,-0.57483 1.61039,-0.63342 1.87714,-0.34047 0.17722,0.19461 0.98497,1.84212 1.79499,3.66113 0.81002,1.81901 1.88187,4.20026 2.38191,5.29167 0.50003,1.0914 1.41459,3.11547 2.03237,4.49791 0.61777,1.38245 1.51604,3.34698 1.99617,4.36563 0.48012,1.01864 2.02666,4.40083 3.43678,7.51596 2.14106,4.72993 2.54159,5.82065 2.4289,6.61459 -0.0742,0.52288 -0.0752,0.74234 -0.003,0.48768 0.16214,-0.56586 0.62304,-0.61479 0.62304,-0.0661 0,0.21828 0.12046,0.39688 0.26771,0.39688 0.16298,0 0.2032,0.40343 0.10281,1.03115 -0.14465,0.90461 -0.0932,1.05389 0.41889,1.21642 0.40831,0.1296 0.92459,0.91302 1.71786,2.60687 2.43787,5.20533 3.15507,6.7726 4.55882,9.96222 0.80055,1.81901 1.56226,3.4204 1.69265,3.55865 0.537682,0.57004 0.19579,1.13188 -1.01968,1.67557 -0.69123,0.30919 -2.17361,0.97391 -3.2942,1.47717 -1.47494,0.66239 -2.09883,0.83012 -2.25983,0.60754 -0.12232,-0.16911 -0.8636,-1.67669 -1.64726,-3.35018 -0.7837,-1.67349 -1.50956,-3.14243 -1.61304,-3.26431 -0.10348,-0.12188 -1.06473,0.25895 -2.13614,0.84629 -2.53709,1.39086 -4.64375,2.53783 -7.35703,4.00552 -2.77368,1.50039 -4.18661,2.73695 -5.18319,4.53618 -0.73025,1.31842 -0.78483,1.61013 -0.78483,4.19507 0,1.52797 0.14883,4.52685 0.33073,6.66417 0.66842,7.85379 0.27609,17.55383 -1.00391,24.82125 -2.35402,13.36547 -8.05537,25.59021 -15.79962,33.87729 -2.92235,3.1272 -5.65094,4.10378 -8.56072,3.06394 z m 6.3804,-70.27873 c 0,-0.14552 -0.0525,-0.26458 -0.11668,-0.26458 -0.0642,0 -0.19027,0.11906 -0.2802,0.26458 -0.0899,0.14552 -0.0374,0.26458 0.11668,0.26458 0.1541,0 0.2802,-0.11906 0.2802,-0.26458 z m -2.20052,-0.84336 c -0.0845,-0.21107 -0.14716,-0.14837 -0.15986,0.15985 -0.0114,0.27892 0.0511,0.43519 0.13899,0.34727 0.0879,-0.0879 0.0973,-0.31612 0.0209,-0.50712 z m 31.30468,-10.26914 c 0,-0.14552 -0.1261,-0.26458 -0.28019,-0.26458 -0.15412,0 -0.20661,0.11906 -0.11668,0.26458 0.0899,0.14552 0.21603,0.26458 0.28019,0.26458 0.0642,0 0.11668,-0.11906 0.11668,-0.26458 z m -2.20051,-0.84336 c -0.0845,-0.21107 -0.14716,-0.14837 -0.15986,0.15985 -0.0114,0.27892 0.0511,0.43519 0.13898,0.34727 0.0879,-0.0879 0.0973,-0.31612 0.0209,-0.50712 z m 10.02911,-3.32249 c -0.28903,-0.28903 -0.48723,0.17062 -0.27972,0.64871 0.19677,0.45333 0.21104,0.45292 0.32068,-0.009 0.0631,-0.26605 0.0447,-0.55378 -0.041,-0.63941 z m -54.21453,-1.17543 c -0.0845,-0.21106 -0.14716,-0.14837 -0.15986,0.15986 -0.0114,0.27891 0.0511,0.43518 0.13899,0.34726 0.0879,-0.0879 0.0973,-0.31612 0.0209,-0.50712 z m 52.91667,-7.9375 c -0.0844,-0.21106 -0.14716,-0.14837 -0.15986,0.15986 -0.0114,0.27891 0.0511,0.43518 0.13898,0.34726 0.0879,-0.0879 0.0973,-0.31612 0.0209,-0.50712 z m -49.466,-4.72785 c 0.0844,-0.32284 0.28956,-0.48762 0.5044,-0.40518 0.43252,0.16597 0.48829,-0.26439 0.0679,-0.52418 -0.16179,-0.1 -0.39521,-0.0183 -0.51872,0.18153 -0.18179,0.29416 -0.29466,0.26748 -0.59272,-0.14015 -0.35144,-0.48063 -0.37631,-0.47101 -0.54771,0.2119 -0.0987,0.39346 -0.10935,0.82897 -0.0236,0.96779 0.27718,0.44847 0.96399,0.26803 1.11035,-0.29171 z m -29.56057,-4.74754 c 0,-0.14552 -0.0525,-0.26458 -0.11668,-0.26458 -0.0642,0 -0.19026,0.11906 -0.28019,0.26458 -0.0899,0.14552 -0.0374,0.26459 0.11667,0.26459 0.15411,0 0.2802,-0.11907 0.2802,-0.26459 z m -4.66682,-8.59896 c 0.0838,-0.21828 0.037,-0.39687 -0.10398,-0.39687 -0.14096,0 -0.25628,0.17859 -0.25628,0.39687 0,0.21829 0.0468,0.39688 0.10398,0.39688 0.0572,0 0.17252,-0.17859 0.25628,-0.39688 z m 75.31057,-0.13229 c 0,-0.14552 -0.11202,-0.26458 -0.24897,-0.26458 -0.13692,0 -0.32256,0.11906 -0.41249,0.26458 -0.0899,0.14552 0.022,0.26459 0.24897,0.26459 0.22686,0 0.41249,-0.11907 0.41249,-0.26459 z m -18.52083,-0.67707 c 0,-0.22687 -0.121,-0.3377 -0.2689,-0.2463 -0.1479,0.0914 -0.20039,0.27702 -0.11668,0.41249 0.2268,0.36699 0.38558,0.29856 0.38558,-0.16619 z"
         style="fill:#ffa200;fill-opacity:1;stroke-width:1"
         sodipodi:nodetypes="cscssscssssssscsssssssssssssssssssssssssssssssssssssssssssssscssssssssscsssscssssssssssssssccsssssscssssssssscssscscccscsssscssscssssccccsssssssssssssssssss" />
      <path
         id="path48"
         d="m -98.923023,160.96756 c -0.337343,-0.68895 -0.887068,-1.93911 -1.221607,-2.77813 -0.53007,-1.32941 -4.45881,-9.98491 -7.58446,-16.70951 -0.56738,-1.22069 -1.03161,-2.49069 -1.03161,-2.82222 0,-0.33154 -0.10383,-0.64248 -0.23069,-0.69098 -0.30255,-0.11567 -1.76194,-3.17908 -6.78548,-14.24341 -5.98252,-13.17647 -6.38458,-14.05231 -8.24847,-17.96829 -0.92895,-1.95168 -1.59512,-3.63794 -1.48039,-3.74724 0.11469,-0.10931 1.45872,-0.75177 2.98669,-1.42769 1.52797,-0.675907 3.17342,-1.410207 3.65654,-1.631767 0.48313,-0.22156 1.04868,-0.3375 1.25678,-0.25764 0.20809,0.0799 0.38155,10e-5 0.38547,-0.17724 0.004,-0.17733 0.74805,-0.64679 1.65364,-1.04323 0.90559,-0.39644 3.67059,-1.62222 6.14445,-2.72395 2.47385,-1.101727 5.27182,-2.344187 6.2177,-2.761027 0.94589,-0.41685 2.41912,-1.07142 3.273877,-1.45462 0.854737,-0.3832 1.599301,-0.65149 1.654572,-0.59621 0.0553,0.0553 0.07033,16.342204 0.03344,36.193154 l -0.0671,36.09263 z m -9.837677,-31.04215 c 0,-0.22687 -0.11907,-0.33891 -0.26459,-0.24897 -0.14552,0.0899 -0.26458,0.27556 -0.26458,0.41249 0,0.13693 0.11906,0.24897 0.26458,0.24897 0.14552,0 0.26459,-0.18562 0.26459,-0.41249 z m -1.92374,-2.65778 c -0.0879,-0.0879 -0.31612,-0.0973 -0.50712,-0.0209 -0.21106,0.0845 -0.14838,0.14716 0.15986,0.15985 0.2789,0.0115 0.43519,-0.051 0.34726,-0.13896 z m 1.92374,-1.69223 c 0,-0.14552 -0.1261,-0.26459 -0.2802,-0.26459 -0.15412,0 -0.20661,0.11907 -0.11668,0.26459 0.0899,0.14552 0.21603,0.26458 0.2802,0.26458 0.0642,0 0.11668,-0.11906 0.11668,-0.26458 z m 0.52916,-1.8677 c 0,-0.13693 -0.11906,-0.24897 -0.26458,-0.24897 -0.14552,0 -0.26458,0.18562 -0.26458,0.41249 0,0.22687 0.11906,0.33891 0.26458,0.24897 0.14552,-0.0899 0.26458,-0.27556 0.26458,-0.41249 z m -6.61458,-9.77397 c 0,-0.14552 -0.1261,-0.26458 -0.28019,-0.26458 -0.15412,0 -0.20662,0.11906 -0.11669,0.26458 0.0899,0.14552 0.21604,0.26458 0.2802,0.26458 0.0642,0 0.11668,-0.11906 0.11668,-0.26458 z m 7.09414,-9.77305 c 0.0661,-0.19843 -0.0331,-0.29765 -0.23151,-0.23151 -0.191,0.0637 -0.39936,0.27203 -0.46302,0.46302 -0.0662,0.19844 0.0331,0.29766 0.23151,0.23151 0.191,-0.0637 0.39936,-0.27202 0.46302,-0.46302 z"
         style="fill:#333;fill-opacity:1;stroke-width:1"
         sodipodi:nodetypes="ssssssscssscsssssscsscsssscssssssssssscsssssscscsc" />
      <rect
         x="-258.11038"
         y="145.64"
         width="44.559784"
         height="27.779442"
         fill="#f2f2f2"
         id="rect1518"
         style="stroke-width:0.264583" />
      <rect
         x="-255.29985"
         y="142.93353"
         width="44.559784"
         height="27.779442"
         fill="none"
         stroke="#3f3d56"
         stroke-miterlimit="10"
         stroke-width="0.529168"
         id="rect1520" />
      <path
         d="m -226.17574,163.56059 a 9.6069263,9.600248 0 0 0 -6.79312,-16.38864 v 9.60024 z"
         fill="#3f3d56"
         id="path1522"
         style="stroke-width:0.264583" />
      <path
         d="m -232.96886,147.17195 a 9.6080739,9.6013948 0 0 0 -4.59579,18.03255 l 4.59579,-8.43231 z"
         fill="#6c63ff"
         id="path1524"
         style="stroke-width:0.264583" />
      <path
         d="m -226.17574,163.56059 -6.79312,-6.7884 -4.59579,8.43231 a 9.6119424,9.6052606 0 0 0 11.38891,-1.64391 z"
         fill="#575a89"
         id="path1526"
         style="stroke-width:0.264583" />
      <rect
         x="-253.61354"
         y="164.94263"
         width="1.8396242"
         height="1.8383453"
         fill="#6c63ff"
         id="rect1528"
         style="stroke-width:0.264583" />
      <rect
         x="-250.9563"
         y="164.94263"
         width="1.8396242"
         height="1.8383453"
         fill="#3f3d56"
         id="rect1530"
         style="stroke-width:0.264583" />
      <rect
         x="-248.29906"
         y="164.94263"
         width="1.8396242"
         height="1.8383453"
         fill="#575a89"
         id="rect1532"
         style="stroke-width:0.264583" />
      <rect
         x="-221.82892"
         y="165.35114"
         width="7.5628996"
         height="0.30639088"
         fill="#3f3d56"
         id="rect1534"
         style="stroke-width:0.264583" />
      <rect
         x="-221.82892"
         y="166.27031"
         width="7.5628996"
         height="0.30639088"
         fill="#3f3d56"
         id="rect1536"
         style="stroke-width:0.264583" />
      <rect
         x="-221.82892"
         y="167.18948"
         width="7.5628996"
         height="0.30639088"
         fill="#3f3d56"
         id="rect1538"
         style="stroke-width:0.264583" />
      <rect
         x="-217.84306"
         y="139.30792"
         width="25.345934"
         height="27.779442"
         fill="#f2f2f2"
         id="rect1596"
         style="stroke-width:0.264583" />
      <rect
         x="-215.28802"
         y="136.65253"
         width="25.345934"
         height="27.779442"
         fill="none"
         stroke="#3f3d56"
         stroke-miterlimit="10"
         stroke-width="0.529168"
         id="rect1598" />
      <polyline
         points="556 227.5 556 435.5 757 435.5"
         fill="none"
         stroke="#3f3d56"
         stroke-miterlimit="10"
         stroke-width="5.17949"
         id="polyline1600"
         transform="matrix(0.10220134,0,0,0.1021303,-269.65914,115.15411)" />
      <rect
         x="-211.71098"
         y="152.17635"
         width="4.5990605"
         height="7.3533812"
         fill="#575a89"
         id="rect1602"
         style="stroke-width:0.264583" />
      <rect
         x="-205.06789"
         y="147.17197"
         width="4.5990605"
         height="12.357766"
         fill="#3f3d56"
         id="rect1604"
         style="stroke-width:0.264583" />
      <rect
         x="-198.4248"
         y="141.35052"
         width="4.5990605"
         height="18.179193"
         fill="#6c63ff"
         id="rect1606"
         style="fill:#ffa200;fill-opacity:1;stroke-width:0.264583" />
      <rect
         x="-213.1418"
         y="161.29803"
         width="1.3665781"
         height="1.3656281"
         fill="#6c63ff"
         id="rect1608"
         style="stroke-width:0.264583" />
      <rect
         x="-211.16786"
         y="161.29803"
         width="1.3665781"
         height="1.3656281"
         fill="#3f3d56"
         id="rect1610"
         style="stroke-width:0.264583" />
      <rect
         x="-209.19391"
         y="161.29803"
         width="1.3665781"
         height="1.3656281"
         fill="#575a89"
         id="rect1612"
         style="stroke-width:0.264583" />
      <rect
         x="-197.8116"
         y="161.89114"
         width="5.3144698"
         height="0.21530189"
         fill="#3f3d56"
         id="rect1614"
         style="stroke-width:0.264583" />
      <rect
         x="-197.8116"
         y="162.53705"
         width="5.3144698"
         height="0.21530189"
         fill="#3f3d56"
         id="rect1616"
         style="stroke-width:0.264583" />
      <rect
         x="-197.8116"
         y="163.18295"
         width="5.3144698"
         height="0.21530189"
         fill="#3f3d56"
         id="rect1618"
         style="stroke-width:0.264583" />
      <rect
         style="stroke-width:0.264583"
         id="rect1768"
         fill="#f2f2f2"
         height="27.779442"
         width="44.559784"
         y="145.64"
         x="-258.11038" />
      <rect
         id="rect1770"
         stroke-width="0.529168"
         stroke-miterlimit="10"
         stroke="#3f3d56"
         fill="none"
         height="27.779442"
         width="44.559784"
         y="142.93353"
         x="-255.29985" />
      <path
         style="stroke-width:0.264583"
         id="path1772"
         fill="#3f3d56"
         d="m -226.17574,163.56059 a 9.6069263,9.600248 0 0 0 -6.79312,-16.38864 v 9.60024 z" />
      <path
         style="fill:#ffa200;fill-opacity:1;stroke-width:0.264583"
         id="path1774"
         fill="#6c63ff"
         d="m -232.96886,147.17195 a 9.6080739,9.6013948 0 0 0 -4.59579,18.03255 l 4.59579,-8.43231 z" />
      <path
         style="stroke-width:0.264583"
         id="path1776"
         fill="#575a89"
         d="m -226.17574,163.56059 -6.79312,-6.7884 -4.59579,8.43231 a 9.6119424,9.6052606 0 0 0 11.38891,-1.64391 z" />
      <rect
         style="fill:#ffa200;fill-opacity:1;stroke-width:0.264583"
         id="rect1778"
         fill="#6c63ff"
         height="1.8383453"
         width="1.8396242"
         y="164.94263"
         x="-253.61354" />
      <rect
         style="stroke-width:0.264583"
         id="rect1780"
         fill="#3f3d56"
         height="1.8383453"
         width="1.8396242"
         y="164.94263"
         x="-250.9563" />
      <rect
         style="stroke-width:0.264583"
         id="rect1782"
         fill="#575a89"
         height="1.8383453"
         width="1.8396242"
         y="164.94263"
         x="-248.29906" />
      <rect
         style="stroke-width:0.264583"
         id="rect1784"
         fill="#3f3d56"
         height="0.30639088"
         width="7.5628996"
         y="165.35114"
         x="-221.82892" />
      <rect
         style="stroke-width:0.264583"
         id="rect1786"
         fill="#3f3d56"
         height="0.30639088"
         width="7.5628996"
         y="166.27031"
         x="-221.82892" />
      <rect
         style="stroke-width:0.264583"
         id="rect1788"
         fill="#3f3d56"
         height="0.30639088"
         width="7.5628996"
         y="167.18948"
         x="-221.82892" />
      <g
         style="stroke-width:2.58975"
         id="g1766"
         transform="matrix(0.3862728,0,0,0.38600428,-237.20671,20.835454)">
        <rect
           style="stroke-width:0.685202"
           id="rect1540"
           fill="#f2f2f2"
           height="71.966667"
           width="65.616669"
           y="364.63766"
           x="20.621336" />
        <rect
           id="rect1542"
           stroke-width="1.37041"
           stroke-miterlimit="10"
           stroke="#3f3d56"
           fill="none"
           height="71.966667"
           width="65.616669"
           y="357.75851"
           x="27.23592" />
        <rect
           style="fill:#ffa200;fill-opacity:1;stroke-width:0.685202"
           id="rect1544"
           fill="#6c63ff"
           height="3.5378575"
           width="3.5378575"
           y="421.60623"
           x="30.675503" />
        <rect
           style="stroke-width:0.685202"
           id="rect1546"
           fill="#3f3d56"
           height="3.5378575"
           width="3.5378575"
           y="421.60623"
           x="35.78574" />
        <rect
           style="stroke-width:0.685202"
           id="rect1548"
           fill="#575a89"
           height="3.5378575"
           width="3.5378575"
           y="421.60623"
           x="40.895977" />
        <rect
           style="stroke-width:0.685202"
           id="rect1550"
           fill="#3f3d56"
           height="0.55777073"
           width="13.758333"
           y="423.14276"
           x="70.362999" />
        <rect
           style="stroke-width:0.685202"
           id="rect1552"
           fill="#3f3d56"
           height="0.55777073"
           width="13.758333"
           y="424.81607"
           x="70.362999" />
        <rect
           style="stroke-width:0.685202"
           id="rect1554"
           fill="#3f3d56"
           height="0.55777073"
           width="13.758333"
           y="426.48938"
           x="70.362999" />
        <path
           style="stroke-width:0.685202"
           id="path1556"
           fill="#3f3d56"
           d="m 60.044253,370.4585 v 5.82084 a 17.4625,17.4625 0 0 1 12.347858,29.81035 l 4.115945,4.11595 A 23.283333,23.283333 0 0 0 60.044253,370.4585 Z" />
        <path
           style="stroke-width:0.685202"
           id="path1558"
           fill="#575a89"
           d="m 76.508056,410.20564 -4.115945,-4.11595 a 17.458118,17.458118 0 0 1 -22.912917,1.55354 l -3.523131,4.6357 a 23.282738,23.282738 0 0 0 30.551993,-2.07329 z" />
        <path
           style="fill:#ffa200;fill-opacity:1;stroke-width:0.685202"
           id="path1560"
           fill="#6c63ff"
           d="m 42.581753,393.74184 a 17.4625,17.4625 0 0 1 17.4625,-17.4625 v -5.82084 a 23.283105,23.283105 0 0 0 -14.08819,41.82043 l 3.523136,-4.6357 a 17.432073,17.432073 0 0 1 -6.897446,-13.90139 z" />
      </g>
    </g>
  </g>
</svg>
