<?xml version="1.0" encoding="UTF-8" standalone="no"?>
<svg
   xmlns:dc="http://purl.org/dc/elements/1.1/"
   xmlns:cc="http://creativecommons.org/ns#"
   xmlns:rdf="http://www.w3.org/1999/02/22-rdf-syntax-ns#"
   xmlns:svg="http://www.w3.org/2000/svg"
   xmlns="http://www.w3.org/2000/svg"
   xmlns:sodipodi="http://sodipodi.sourceforge.net/DTD/sodipodi-0.dtd"
   xmlns:inkscape="http://www.inkscape.org/namespaces/inkscape"
   inkscape:version="1.0 (4035a4fb49, 2020-05-01)"
   inkscape:export-ydpi="96"
   inkscape:export-xdpi="96"
   inkscape:export-filename="/home/michael/psycho/talks/reveal/pics/vbc_background.png"
   sodipodi:docname="nfdi_meeting_background_cws202007_ta1.svg"
   id="svg8"
   version="1.1"
   viewBox="0 0 338.66666 270.93334"
   height="1024"
   width="1280">
  <defs
     id="defs2" />
  <sodipodi:namedview
     inkscape:document-rotation="0"
     inkscape:guide-bbox="true"
     showguides="true"
     inkscape:window-maximized="1"
     inkscape:window-y="44"
     inkscape:window-x="0"
     inkscape:window-height="1119"
     inkscape:window-width="1920"
     units="px"
     showgrid="false"
     inkscape:current-layer="layer1-3"
     inkscape:document-units="px"
     inkscape:cy="494.52417"
     inkscape:cx="1264.3998"
     inkscape:zoom="0.70710678"
     inkscape:pageshadow="2"
     inkscape:pageopacity="0.0"
     borderopacity="1.0"
     bordercolor="#666666"
     pagecolor="#ffffff"
     id="base">
    <sodipodi:guide
       position="303.10794,11.693682"
       orientation="0,-1"
       id="guide63" />
  </sodipodi:namedview>
  <metadata
     id="metadata5">
    <rdf:RDF>
      <cc:Work
         rdf:about="">
        <dc:format>image/svg+xml</dc:format>
        <dc:type
           rdf:resource="http://purl.org/dc/dcmitype/StillImage" />
        <dc:title />
      </cc:Work>
    </rdf:RDF>
  </metadata>
  <g
     transform="translate(0,-26.06665)"
     id="layer1"
     inkscape:groupmode="layer"
     inkscape:label="Layer 1">
    <text
       id="text107"
       y="295.22717"
       x="0.66224408"
       style="font-style:normal;font-variant:normal;font-weight:normal;font-stretch:normal;font-size:4.70562px;line-height:114%;font-family:Arial;-inkscape-font-specification:Arial;text-align:start;letter-spacing:0px;word-spacing:0px;text-anchor:start;fill:gray;fill-opacity:1;stroke:none;stroke-width:0.264583px;stroke-linecap:butt;stroke-linejoin:miter;stroke-opacity:1"
       xml:space="preserve"><tspan
         style="fill:gray;fill-opacity:1;stroke-width:0.264583px"
         y="295.22717"
         x="0.66224408"
         id="tspan105"
         sodipodi:role="line" /></text>
    <path
       d=""
       id="path134"
       style="fill:black;stroke-width:1" />
    <g
       inkscape:label="Layer 1"
       id="layer1-3"
       transform="translate(130.66498,3.4058773)">
      <text
         xml:space="preserve"
         style="font-style:normal;font-variant:normal;font-weight:normal;font-stretch:normal;font-size:12.9688px;line-height:125%;font-family:Arial;-inkscape-font-specification:Arial;letter-spacing:0px;word-spacing:0px;fill:#6f6f91;fill-opacity:1;stroke:none;stroke-width:0.264583px;stroke-linecap:butt;stroke-linejoin:miter;stroke-opacity:1"
         x="-89.710136"
         y="286.67514"
         id="text1039"><tspan
           sodipodi:role="line"
           id="tspan1037"
           x="-89.710136"
           y="286.67514"
           style="font-style:italic;font-variant:normal;font-weight:normal;font-stretch:normal;font-size:5.18755px;font-family:Arial;-inkscape-font-specification:'Arial Italic';fill:#6f6f91;fill-opacity:1;stroke-width:0.264583px">Sharing Data // Connecting Research // Pooling Brains</tspan></text>
      <rect
         style="fill:navy;fill-opacity:1;stroke:none;stroke-width:0.547465;stroke-miterlimit:4;stroke-dasharray:none;stroke-opacity:1"
         id="rect823-6-20-3"
         width="305.67892"
         height="4.3497314"
         x="-129.10483"
         y="288.086"
         ry="1.4602908"
         rx="1.4602906" />
      <path
         style="fill:#6f6f91;fill-opacity:1;stroke:none;stroke-width:0.421197;stroke-miterlimit:4;stroke-dasharray:none;stroke-opacity:1"
         d="m -127.65642,282.89845 c -0.809,0 -1.46028,0.8122 -1.46028,1.8211 v 0.68077 c 0,1.0089 0.65128,1.8211 1.46028,1.8211 h 9.72163 c 0.80898,0 1.46024,-0.8122 1.46024,-1.8211 0,1.0089 0.65126,1.8211 1.46026,1.8211 h 9.72162 c 0.80901,0 1.46027,-0.8122 1.46027,-1.8211 0,1.0089 0.65127,1.8211 1.46027,1.8211 h 9.722254 c 0.80899,0 1.460271,-0.8122 1.460271,-1.8211 v -0.68077 c 0,-1.0089 -0.651281,-1.8211 -1.460271,-1.8211 h -9.722254 c -0.809,0 -1.46027,0.8122 -1.46027,1.8211 0,-1.0089 -0.65126,-1.8211 -1.46027,-1.8211 h -9.72162 c -0.809,0 -1.46026,0.8122 -1.46026,1.8211 0,-1.0089 -0.65126,-1.8211 -1.46024,-1.8211 z"
         id="rect1109-1-0-6"
         inkscape:connector-curvature="0" />
      <text
         xml:space="preserve"
         style="font-style:normal;font-weight:normal;font-size:4.7538px;line-height:125%;font-family:sans-serif;letter-spacing:0px;word-spacing:0px;fill:black;fill-opacity:1;stroke:none;stroke-width:0.264583px;stroke-linecap:butt;stroke-linejoin:miter;stroke-opacity:1"
         x="176.08102"
         y="287.36618"
         id="text817-18-4-7"><tspan
           sodipodi:role="line"
           id="tspan815-5-62-5"
           x="176.08102"
           y="287.36618"
           style="font-style:normal;font-variant:normal;font-weight:bold;font-stretch:normal;font-size:5.70456px;font-family:Arial;-inkscape-font-specification:Arial;stroke-width:0.264583px">NFDI</tspan></text>
      <text
         xml:space="preserve"
         style="font-style:normal;font-variant:normal;font-weight:normal;font-stretch:normal;font-size:4.7538px;line-height:125%;font-family:Arial;-inkscape-font-specification:Arial;letter-spacing:0px;word-spacing:0px;fill:black;fill-opacity:1;stroke:none;stroke-width:0.264583px;stroke-linecap:butt;stroke-linejoin:miter;stroke-opacity:1"
         x="178.01102"
         y="292.35818"
         id="text821-9-5-3"><tspan
           sodipodi:role="line"
           id="tspan819-6-3-5"
           x="178.01102"
           y="292.35818"
           style="font-style:normal;font-variant:normal;font-weight:normal;font-stretch:normal;font-family:Arial;-inkscape-font-specification:Arial;stroke-width:0.264583px">Neuroscience</tspan></text>
      <path
         transform="matrix(0.26458333,0,0,0.26458333,-130.66498,22.660773)"
         d="M 935.99219 0.068359375 C 935.95903 0.31397746 935.93555 0.5633683 935.93555 0.81835938 L 935.93555 21.453125 C 935.93555 24.510767 938.39744 26.972656 941.45508 26.972656 L 1280.125 26.972656 L 1280.125 0.068359375 L 935.99219 0.068359375 z "
         style="fill:navy;fill-opacity:1;stroke:none;stroke-width:2.06916;stroke-miterlimit:4;stroke-dasharray:none;stroke-opacity:1"
         id="rect823-6-20-3-7" />
      <text
         id="text5980"
         y="62.422356"
         x="152.57739"
         style="font-style:normal;font-variant:normal;font-weight:normal;font-stretch:normal;font-size:16.9333px;line-height:114%;font-family:Arial;-inkscape-font-specification:Arial;text-align:start;letter-spacing:0px;word-spacing:0px;text-anchor:start;fill:black;fill-opacity:1;stroke:none;stroke-width:0.264583px;stroke-linecap:butt;stroke-linejoin:miter;stroke-opacity:1"
         xml:space="preserve"><tspan
           style="stroke-width:0.264583px"
           y="62.422356"
           x="152.57739"
           id="tspan5978"
           sodipodi:role="line" /></text>
      <g
         style="font-style:normal;font-variant:normal;font-weight:normal;font-stretch:normal;font-size:4.98939px;line-height:114%;font-family:Arial;-inkscape-font-specification:Arial;text-align:start;letter-spacing:0px;word-spacing:0px;text-anchor:start;fill:white;fill-opacity:1;stroke:none;stroke-width:0.264583px;stroke-linecap:butt;stroke-linejoin:miter;stroke-opacity:1"
         id="text6059"
         aria-label="Feedback: https://tinyurl.com/nfdi-ta1">
        <path
           id="path33"
           style="font-style:normal;font-variant:normal;font-weight:bold;font-stretch:normal;font-family:Arial;-inkscape-font-specification:'Arial Bold';fill:white;stroke-width:0.264583px"
           d="m 118.44755,27.633713 v -3.571507 h 2.44841 v 0.604184 h -1.72729 v 0.84537 h 1.49097 v 0.604184 h -1.49097 v 1.517769 z" />
        <path
           id="path35"
           style="font-style:normal;font-variant:normal;font-weight:bold;font-stretch:normal;font-family:Arial;-inkscape-font-specification:'Arial Bold';fill:white;stroke-width:0.264583px"
           d="m 122.98624,26.810269 0.68214,0.114502 q -0.13155,0.375179 -0.41659,0.572513 -0.2826,0.194898 -0.70894,0.194898 -0.67484,0 -0.99886,-0.440957 -0.2558,-0.353252 -0.2558,-0.891658 0,-0.643164 0.3362,-1.006161 0.3362,-0.365434 0.85024,-0.365434 0.57739,0 0.91115,0.382487 0.33376,0.380051 0.31915,1.166952 h -1.71511 q 0.007,0.304528 0.16567,0.475064 0.15835,0.1681 0.39467,0.1681 0.16079,0 0.27042,-0.0877 0.10963,-0.0877 0.16566,-0.282602 z m 0.039,-0.691889 q -0.007,-0.297219 -0.15348,-0.450701 -0.14618,-0.155919 -0.35569,-0.155919 -0.22413,0 -0.37031,0.163227 -0.14617,0.163228 -0.14374,0.443393 z" />
        <path
           id="path37"
           style="font-style:normal;font-variant:normal;font-weight:bold;font-stretch:normal;font-family:Arial;-inkscape-font-specification:'Arial Bold';fill:white;stroke-width:0.264583px"
           d="m 125.76354,26.810269 0.68214,0.114502 q -0.13156,0.375179 -0.41659,0.572513 -0.28261,0.194898 -0.70895,0.194898 -0.67483,0 -0.99885,-0.440957 -0.2558,-0.353252 -0.2558,-0.891658 0,-0.643164 0.3362,-1.006161 0.3362,-0.365434 0.85024,-0.365434 0.57739,0 0.91115,0.382487 0.33376,0.380051 0.31914,1.166952 h -1.7151 q 0.007,0.304528 0.16566,0.475064 0.15836,0.1681 0.39467,0.1681 0.16079,0 0.27042,-0.0877 0.10963,-0.0877 0.16567,-0.282602 z m 0.039,-0.691889 q -0.007,-0.297219 -0.15349,-0.450701 -0.14617,-0.155919 -0.35568,-0.155919 -0.22414,0 -0.37031,0.163227 -0.14617,0.163228 -0.14374,0.443393 z" />
        <path
           id="path39"
           style="font-style:normal;font-variant:normal;font-weight:bold;font-stretch:normal;font-family:Arial;-inkscape-font-specification:'Arial Bold';fill:white;stroke-width:0.264583px"
           d="m 129.41544,27.633713 h -0.63586 v -0.380051 q -0.15835,0.221696 -0.37517,0.331326 -0.21439,0.107194 -0.43365,0.107194 -0.44583,0 -0.76498,-0.358125 -0.31671,-0.360561 -0.31671,-1.003725 0,-0.657781 0.3094,-0.998852 0.3094,-0.343508 0.78203,-0.343508 0.43365,0 0.75036,0.360561 v -1.286327 h 0.68458 z m -1.82717,-1.349669 q 0,0.414158 0.1145,0.599311 0.16567,0.267985 0.46289,0.267985 0.23631,0 0.40197,-0.19977 0.16567,-0.202207 0.16567,-0.601748 0,-0.445829 -0.1608,-0.640727 -0.16079,-0.197335 -0.41172,-0.197335 -0.24362,0 -0.40928,0.194898 -0.16323,0.192462 -0.16323,0.577386 z" />
        <path
           id="path41"
           style="font-style:normal;font-variant:normal;font-weight:bold;font-stretch:normal;font-family:Arial;-inkscape-font-specification:'Arial Bold';fill:white;stroke-width:0.264583px"
           d="m 130.06348,27.633713 v -3.571507 h 0.68457 v 1.286327 q 0.31671,-0.360561 0.75036,-0.360561 0.47263,0 0.78203,0.343508 0.3094,0.341071 0.3094,0.981799 0,0.662653 -0.31671,1.020778 -0.31427,0.358125 -0.76497,0.358125 -0.2217,0 -0.43852,-0.10963 -0.21439,-0.112066 -0.37031,-0.32889 v 0.380051 z m 0.6797,-1.349669 q 0,0.401977 0.12669,0.594439 0.17784,0.272857 0.47262,0.272857 0.22657,0 0.38493,-0.192462 0.16079,-0.194898 0.16079,-0.611492 0,-0.443393 -0.16079,-0.638291 -0.16079,-0.197335 -0.41172,-0.197335 -0.24606,0 -0.40929,0.192462 -0.16323,0.190026 -0.16323,0.579822 z" />
        <path
           id="path43"
           style="font-style:normal;font-variant:normal;font-weight:bold;font-stretch:normal;font-family:Arial;-inkscape-font-specification:'Arial Bold';fill:white;stroke-width:0.264583px"
           d="m 133.65447,25.835778 -0.62124,-0.112066 q 0.10476,-0.375179 0.36056,-0.555459 0.25581,-0.180281 0.76011,-0.180281 0.45801,0 0.68214,0.10963 0.22413,0.107194 0.31427,0.275293 0.0926,0.165664 0.0926,0.611493 l -0.007,0.799082 q 0,0.341072 0.0317,0.504299 0.0341,0.160791 0.12425,0.345944 h -0.67727 q -0.0268,-0.06821 -0.0658,-0.202207 -0.017,-0.06091 -0.0244,-0.08039 -0.17541,0.170535 -0.37518,0.255803 -0.19977,0.08527 -0.42634,0.08527 -0.39954,0 -0.63098,-0.216824 -0.22901,-0.216824 -0.22901,-0.548151 0,-0.21926 0.10476,-0.389796 0.10476,-0.172972 0.29235,-0.263112 0.19002,-0.09258 0.54571,-0.160791 0.47994,-0.09014 0.66509,-0.1681 v -0.06821 q 0,-0.197334 -0.0975,-0.280166 -0.0975,-0.08527 -0.36787,-0.08527 -0.18271,0 -0.28504,0.07309 -0.10232,0.07065 -0.16566,0.250931 z m 0.91602,0.55546 q -0.13155,0.04385 -0.41659,0.104757 -0.28504,0.06091 -0.37275,0.119375 -0.13399,0.09501 -0.13399,0.241187 0,0.143737 0.1072,0.248495 0.10719,0.104758 0.27285,0.104758 0.18516,0 0.35326,-0.121812 0.12424,-0.09258 0.16322,-0.226569 0.0268,-0.0877 0.0268,-0.333763 z" />
        <path
           id="path45"
           style="font-style:normal;font-variant:normal;font-weight:bold;font-stretch:normal;font-family:Arial;-inkscape-font-specification:'Arial Bold';fill:white;stroke-width:0.264583px"
           d="m 138.17611,25.811416 -0.67484,0.121811 q -0.0341,-0.202206 -0.15592,-0.304528 -0.11937,-0.102321 -0.31183,-0.102321 -0.25581,0 -0.40929,0.177844 -0.15105,0.175408 -0.15105,0.589567 0,0.460446 0.15349,0.650472 0.15592,0.190026 0.41659,0.190026 0.1949,0 0.31915,-0.109631 0.12424,-0.112066 0.17541,-0.382487 l 0.67239,0.114503 q -0.10475,0.462882 -0.40197,0.699196 -0.29722,0.236314 -0.79665,0.236314 -0.56764,0 -0.90628,-0.358125 -0.33619,-0.358125 -0.33619,-0.991544 0,-0.640727 0.33863,-0.996416 0.33864,-0.358125 0.91602,-0.358125 0.47263,0 0.75036,0.204643 0.28017,0.202207 0.40198,0.618801 z" />
        <path
           id="path47"
           style="font-style:normal;font-variant:normal;font-weight:bold;font-stretch:normal;font-family:Arial;-inkscape-font-specification:'Arial Bold';fill:white;stroke-width:0.264583px"
           d="m 138.6731,27.633713 v -3.571507 h 0.68457 v 1.895384 l 0.80152,-0.911149 h 0.84294 l -0.88435,0.945256 0.94769,1.642016 h -0.73818 l -0.65047,-1.16208 -0.31915,0.333763 v 0.828317 z" />
        <path
           id="path49"
           style="font-style:normal;font-variant:normal;font-weight:bold;font-stretch:normal;font-family:Arial;-inkscape-font-specification:'Arial Bold';fill:white;stroke-width:0.264583px"
           d="m 141.60631,25.731021 v -0.68458 h 0.68458 v 0.68458 z m 0,1.902692 v -0.68458 h 0.68458 v 0.68458 z" />
        <path
           id="path51"
           style="font-style:normal;font-variant:normal;font-weight:bold;font-stretch:normal;font-family:Arial;-inkscape-font-specification:'Arial Bold';fill:white;stroke-width:0.264583px"
           d="m 145.20705,24.062206 v 1.313126 q 0.33133,-0.38736 0.79178,-0.38736 0.23631,0 0.42634,0.0877 0.19002,0.0877 0.28503,0.224133 0.0975,0.136428 0.13156,0.302092 0.0365,0.165663 0.0365,0.514043 v 1.517769 h -0.68458 V 26.26699 q 0,-0.406849 -0.039,-0.51648 -0.039,-0.10963 -0.13886,-0.172972 -0.0975,-0.06578 -0.24606,-0.06578 -0.17054,0 -0.30453,0.08283 -0.13399,0.08283 -0.19733,0.250931 -0.0609,0.165664 -0.0609,0.492118 v 1.296072 h -0.68458 v -3.571507 z" />
        <path
           id="path53"
           style="font-style:normal;font-variant:normal;font-weight:bold;font-stretch:normal;font-family:Arial;-inkscape-font-specification:'Arial Bold';fill:white;stroke-width:0.264583px"
           d="m 148.76151,25.046441 v 0.545715 h -0.46776 v 1.042704 q 0,0.31671 0.0122,0.370307 0.0146,0.05116 0.0609,0.08527 0.0487,0.03411 0.11694,0.03411 0.095,0 0.27529,-0.06578 l 0.0585,0.531097 q -0.23875,0.102321 -0.54084,0.102321 -0.18516,0 -0.33377,-0.0609 -0.14861,-0.06334 -0.21926,-0.160791 -0.0682,-0.09989 -0.095,-0.267985 -0.0219,-0.119375 -0.0219,-0.482373 v -1.127972 h -0.31427 v -0.545715 h 0.31427 v -0.514043 l 0.68702,-0.399541 v 0.913584 z" />
        <path
           id="path55"
           style="font-style:normal;font-variant:normal;font-weight:bold;font-stretch:normal;font-family:Arial;-inkscape-font-specification:'Arial Bold';fill:white;stroke-width:0.264583px"
           d="m 150.42788,25.046441 v 0.545715 h -0.46775 v 1.042704 q 0,0.31671 0.0122,0.370307 0.0146,0.05116 0.0609,0.08527 0.0487,0.03411 0.11694,0.03411 0.095,0 0.2753,-0.06578 l 0.0585,0.531097 q -0.23875,0.102321 -0.54085,0.102321 -0.18515,0 -0.33376,-0.0609 -0.14861,-0.06334 -0.21926,-0.160791 -0.0682,-0.09989 -0.095,-0.267985 -0.0219,-0.119375 -0.0219,-0.482373 v -1.127972 h -0.31427 v -0.545715 h 0.31427 v -0.514043 l 0.68702,-0.399541 v 0.913584 z" />
        <path
           id="path57"
           style="font-style:normal;font-variant:normal;font-weight:bold;font-stretch:normal;font-family:Arial;-inkscape-font-specification:'Arial Bold';fill:white;stroke-width:0.264583px"
           d="m 150.88833,25.046441 h 0.63829 v 0.380051 q 0.12425,-0.194898 0.3362,-0.316709 0.21195,-0.121811 0.47019,-0.121811 0.4507,0 0.76498,0.353253 0.31427,0.353252 0.31427,0.984235 0,0.648036 -0.31671,1.008597 -0.31671,0.358125 -0.76741,0.358125 -0.21439,0 -0.3898,-0.08527 -0.17297,-0.08527 -0.36543,-0.292347 v 1.303381 h -0.68458 z m 0.67727,1.249784 q 0,0.436084 0.17297,0.6456 0.17297,0.207079 0.42147,0.207079 0.23875,0 0.3971,-0.190026 0.15836,-0.192462 0.15836,-0.628546 0,-0.40685 -0.16323,-0.604184 -0.16323,-0.197334 -0.40441,-0.197334 -0.25093,0 -0.4166,0.194898 -0.16566,0.192462 -0.16566,0.572513 z" />
        <path
           id="path59"
           style="font-style:normal;font-variant:normal;font-weight:bold;font-stretch:normal;font-family:Arial;-inkscape-font-specification:'Arial Bold';fill:white;stroke-width:0.264583px"
           d="m 153.71679,26.895536 0.68701,-0.104757 q 0.0439,0.19977 0.17785,0.304528 0.13399,0.102321 0.37518,0.102321 0.26555,0 0.39954,-0.09745 0.0901,-0.06821 0.0901,-0.182717 0,-0.07796 -0.0487,-0.129119 -0.0512,-0.04873 -0.229,-0.09014 -0.82832,-0.182717 -1.05001,-0.333763 -0.30697,-0.209515 -0.30697,-0.582258 0,-0.336199 0.26555,-0.565204 0.26555,-0.229005 0.82344,-0.229005 0.5311,0 0.78934,0.172972 0.25824,0.172972 0.35569,0.511607 l -0.6456,0.119375 q -0.0414,-0.151046 -0.15835,-0.231441 -0.11451,-0.0804 -0.32889,-0.0804 -0.27043,0 -0.38736,0.07552 -0.078,0.0536 -0.078,0.138865 0,0.07309 0.0682,0.124248 0.0926,0.06821 0.63829,0.192462 0.54815,0.124247 0.76498,0.304528 0.21438,0.182717 0.21438,0.509171 0,0.355689 -0.29722,0.611493 -0.29721,0.255803 -0.87947,0.255803 -0.52866,0 -0.83806,-0.214388 -0.30697,-0.214388 -0.40198,-0.582258 z" />
        <path
           id="path61"
           style="font-style:normal;font-variant:normal;font-weight:bold;font-stretch:normal;font-family:Arial;-inkscape-font-specification:'Arial Bold';fill:white;stroke-width:0.264583px"
           d="m 156.86683,25.731021 v -0.68458 h 0.68458 v 0.68458 z m 0,1.902692 v -0.68458 h 0.68458 v 0.68458 z" />
        <path
           id="path63"
           style="font-style:normal;font-variant:normal;font-weight:bold;font-stretch:normal;font-family:Arial;-inkscape-font-specification:'Arial Bold';fill:white;stroke-width:0.264583px"
           d="m 158.03622,27.694618 0.88435,-3.693318 h 0.51404 l -0.89409,3.693318 z" />
        <path
           id="path65"
           style="font-style:normal;font-variant:normal;font-weight:bold;font-stretch:normal;font-family:Arial;-inkscape-font-specification:'Arial Bold';fill:white;stroke-width:0.264583px"
           d="m 159.41999,27.694618 0.88435,-3.693318 h 0.51404 l -0.89409,3.693318 z" />
        <path
           id="path67"
           style="font-style:normal;font-variant:normal;font-weight:bold;font-stretch:normal;font-family:Arial;-inkscape-font-specification:'Arial Bold';fill:white;stroke-width:0.264583px"
           d="m 162.35564,25.046441 v 0.545715 h -0.46775 v 1.042704 q 0,0.31671 0.0122,0.370307 0.0146,0.05116 0.0609,0.08527 0.0487,0.03411 0.11693,0.03411 0.095,0 0.2753,-0.06578 l 0.0585,0.531097 q -0.23875,0.102321 -0.54084,0.102321 -0.18516,0 -0.33377,-0.0609 -0.14861,-0.06334 -0.21926,-0.160791 -0.0682,-0.09989 -0.095,-0.267985 -0.0219,-0.119375 -0.0219,-0.482373 v -1.127972 h -0.31427 v -0.545715 h 0.31427 v -0.514043 l 0.68702,-0.399541 v 0.913584 z" />
        <path
           id="path69"
           style="font-style:normal;font-variant:normal;font-weight:bold;font-stretch:normal;font-family:Arial;-inkscape-font-specification:'Arial Bold';fill:white;stroke-width:0.264583px"
           d="m 162.83558,24.695625 v -0.633419 h 0.68458 v 0.633419 z m 0,2.938088 v -2.587272 h 0.68458 v 2.587272 z" />
        <path
           id="path71"
           style="font-style:normal;font-variant:normal;font-weight:bold;font-stretch:normal;font-family:Arial;-inkscape-font-specification:'Arial Bold';fill:white;stroke-width:0.264583px"
           d="m 166.57275,27.633713 h -0.68458 v -1.320434 q 0,-0.419031 -0.0438,-0.540843 -0.0439,-0.124247 -0.14374,-0.192461 -0.0975,-0.06822 -0.23631,-0.06822 -0.17785,0 -0.31915,0.09745 -0.1413,0.09745 -0.19489,0.25824 -0.0512,0.160791 -0.0512,0.594439 v 1.171825 h -0.68457 v -2.587272 h 0.63585 v 0.380051 q 0.33864,-0.43852 0.85268,-0.43852 0.22657,0 0.41416,0.08283 0.18759,0.08039 0.2826,0.207079 0.0975,0.126683 0.13399,0.287474 0.039,0.160791 0.039,0.460447 z" />
        <path
           id="path73"
           style="font-style:normal;font-variant:normal;font-weight:bold;font-stretch:normal;font-family:Arial;-inkscape-font-specification:'Arial Bold';fill:white;stroke-width:0.264583px"
           d="m 166.94549,25.046441 h 0.72843 l 0.6188,1.836914 0.60419,-1.836914 h 0.70894 l -0.91358,2.489823 -0.16323,0.450701 q -0.0901,0.226569 -0.17297,0.345944 -0.0804,0.119376 -0.18759,0.192462 -0.10476,0.07552 -0.26068,0.116939 -0.15348,0.04142 -0.34838,0.04142 -0.19733,0 -0.38736,-0.04142 l -0.0609,-0.535969 q 0.16079,0.03167 0.28991,0.03167 0.23875,0 0.35325,-0.141301 0.1145,-0.138864 0.17541,-0.355689 z" />
        <path
           id="path75"
           style="font-style:normal;font-variant:normal;font-weight:bold;font-stretch:normal;font-family:Arial;-inkscape-font-specification:'Arial Bold';fill:white;stroke-width:0.264583px"
           d="m 171.74973,27.633713 v -0.38736 q -0.1413,0.207079 -0.37274,0.326454 -0.22901,0.119375 -0.48481,0.119375 -0.26068,0 -0.46776,-0.114502 -0.20708,-0.114503 -0.29965,-0.321582 -0.0926,-0.207079 -0.0926,-0.572513 v -1.637144 h 0.68458 v 1.188878 q 0,0.545715 0.0365,0.669962 0.039,0.121812 0.13887,0.194898 0.0999,0.07065 0.25337,0.07065 0.1754,0 0.31427,-0.09501 0.13886,-0.09745 0.19002,-0.23875 0.0512,-0.143737 0.0512,-0.699197 v -1.091429 h 0.68458 v 2.587272 z" />
        <path
           id="path77"
           style="font-style:normal;font-variant:normal;font-weight:bold;font-stretch:normal;font-family:Arial;-inkscape-font-specification:'Arial Bold';fill:white;stroke-width:0.264583px"
           d="m 173.75231,27.633713 h -0.68458 v -2.587272 h 0.63585 v 0.36787 q 0.16323,-0.260676 0.29235,-0.343507 0.13156,-0.08283 0.29722,-0.08283 0.23388,0 0.4507,0.12912 l -0.21195,0.596875 q -0.17297,-0.112066 -0.32158,-0.112066 -0.14374,0 -0.24362,0.08039 -0.0999,0.07796 -0.15836,0.285039 -0.056,0.207079 -0.056,0.867296 z" />
        <path
           id="path79"
           style="font-style:normal;font-variant:normal;font-weight:bold;font-stretch:normal;font-family:Arial;-inkscape-font-specification:'Arial Bold';fill:white;stroke-width:0.264583px"
           d="m 175.0362,27.633713 v -3.571507 h 0.68458 v 3.571507 z" />
        <path
           id="path81"
           style="font-style:normal;font-variant:normal;font-weight:bold;font-stretch:normal;font-family:Arial;-inkscape-font-specification:'Arial Bold';fill:white;stroke-width:0.264583px"
           d="m 176.41997,27.633713 v -0.68458 h 0.68458 v 0.68458 z" />
        <path
           id="path83"
           style="font-style:normal;font-variant:normal;font-weight:bold;font-stretch:normal;font-family:Arial;-inkscape-font-specification:'Arial Bold';fill:white;stroke-width:0.264583px"
           d="m 180.0597,25.811416 -0.67484,0.121811 q -0.0341,-0.202206 -0.15592,-0.304528 -0.11937,-0.102321 -0.31183,-0.102321 -0.25581,0 -0.40929,0.177844 -0.15105,0.175408 -0.15105,0.589567 0,0.460446 0.15349,0.650472 0.15591,0.190026 0.41659,0.190026 0.1949,0 0.31915,-0.109631 0.12424,-0.112066 0.1754,-0.382487 l 0.6724,0.114503 q -0.10476,0.462882 -0.40197,0.699196 -0.29722,0.236314 -0.79665,0.236314 -0.56764,0 -0.90628,-0.358125 -0.3362,-0.358125 -0.3362,-0.991544 0,-0.640727 0.33864,-0.996416 0.33864,-0.358125 0.91602,-0.358125 0.47263,0 0.75036,0.204643 0.28016,0.202207 0.40198,0.618801 z" />
        <path
           id="path85"
           style="font-style:normal;font-variant:normal;font-weight:bold;font-stretch:normal;font-family:Arial;-inkscape-font-specification:'Arial Bold';fill:white;stroke-width:0.264583px"
           d="m 180.42269,26.303534 q 0,-0.341072 0.1681,-0.660217 0.1681,-0.319146 0.47507,-0.487246 0.3094,-0.168099 0.68945,-0.168099 0.58713,0 0.96231,0.382487 0.37518,0.380051 0.37518,0.962309 0,0.587131 -0.38005,0.974491 -0.37762,0.384923 -0.95257,0.384923 -0.35569,0 -0.67971,-0.160791 -0.32158,-0.160791 -0.48968,-0.470191 -0.1681,-0.311837 -0.1681,-0.757666 z m 0.70164,0.03654 q 0,0.384924 0.18271,0.589567 0.18272,0.204643 0.45071,0.204643 0.26798,0 0.44826,-0.204643 0.18272,-0.204643 0.18272,-0.594439 0,-0.380052 -0.18272,-0.584695 -0.18028,-0.204643 -0.44826,-0.204643 -0.26799,0 -0.45071,0.204643 -0.18271,0.204643 -0.18271,0.589567 z" />
        <path
           id="path87"
           style="font-style:normal;font-variant:normal;font-weight:bold;font-stretch:normal;font-family:Arial;-inkscape-font-specification:'Arial Bold';fill:white;stroke-width:0.264583px"
           d="m 183.58004,25.046441 h 0.63099 v 0.353253 q 0.33863,-0.411722 0.80639,-0.411722 0.24849,0 0.43121,0.102321 0.18272,0.102322 0.29965,0.309401 0.17054,-0.207079 0.36787,-0.309401 0.19734,-0.102321 0.42147,-0.102321 0.28504,0 0.48237,0.116939 0.19734,0.114502 0.29479,0.338635 0.0707,0.165663 0.0707,0.53597 v 1.654197 h -0.68458 v -1.478789 q 0,-0.384924 -0.0707,-0.49699 -0.095,-0.146174 -0.29235,-0.146174 -0.14374,0 -0.27042,0.0877 -0.12668,0.0877 -0.18272,0.25824 -0.056,0.1681 -0.056,0.533534 v 1.242475 H 185.1441 V 26.21583 q 0,-0.377615 -0.0365,-0.487246 -0.0366,-0.10963 -0.11451,-0.163227 -0.0755,-0.0536 -0.20708,-0.0536 -0.15835,0 -0.28503,0.08527 -0.12669,0.08527 -0.18272,0.246059 -0.0536,0.160791 -0.0536,0.533533 v 1.257093 h -0.68458 z" />
        <path
           id="path89"
           style="font-style:normal;font-variant:normal;font-weight:bold;font-stretch:normal;font-family:Arial;-inkscape-font-specification:'Arial Bold';fill:white;stroke-width:0.264583px"
           d="m 187.6997,27.694618 0.88435,-3.693318 h 0.51404 l -0.89409,3.693318 z" />
        <path
           id="path91"
           style="font-style:normal;font-variant:normal;font-weight:bold;font-stretch:normal;font-family:Arial;-inkscape-font-specification:'Arial Bold';fill:white;stroke-width:0.264583px"
           d="m 191.8023,27.633713 h -0.68458 v -1.320434 q 0,-0.419031 -0.0438,-0.540843 -0.0438,-0.124247 -0.14374,-0.192461 -0.0974,-0.06822 -0.23631,-0.06822 -0.17785,0 -0.31915,0.09745 -0.1413,0.09745 -0.1949,0.25824 -0.0512,0.160791 -0.0512,0.594439 v 1.171825 h -0.68458 v -2.587272 h 0.63586 v 0.380051 q 0.33864,-0.43852 0.85268,-0.43852 0.22657,0 0.41416,0.08283 0.18759,0.08039 0.2826,0.207079 0.0974,0.126683 0.13399,0.287474 0.039,0.160791 0.039,0.460447 z" />
        <path
           id="path93"
           style="font-style:normal;font-variant:normal;font-weight:bold;font-stretch:normal;font-family:Arial;-inkscape-font-specification:'Arial Bold';fill:white;stroke-width:0.264583px"
           d="m 192.19941,25.046441 h 0.38005 v -0.194898 q 0,-0.326454 0.0682,-0.487245 0.0707,-0.160791 0.25581,-0.260676 0.18759,-0.102322 0.47262,-0.102322 0.29235,0 0.57252,0.0877 l -0.0926,0.4775 q -0.16323,-0.03898 -0.31427,-0.03898 -0.14861,0 -0.21439,0.07065 -0.0633,0.06821 -0.0633,0.265548 v 0.182717 h 0.51161 v 0.538406 h -0.51161 v 2.048866 h -0.68458 v -2.048866 h -0.38005 z" />
        <path
           id="path95"
           style="font-style:normal;font-variant:normal;font-weight:bold;font-stretch:normal;font-family:Arial;-inkscape-font-specification:'Arial Bold';fill:white;stroke-width:0.264583px"
           d="m 196.53832,27.633713 h -0.63585 v -0.380051 q -0.15836,0.221696 -0.37518,0.331326 -0.21439,0.107194 -0.43365,0.107194 -0.44583,0 -0.76498,-0.358125 -0.31671,-0.360561 -0.31671,-1.003725 0,-0.657781 0.30941,-0.998852 0.3094,-0.343508 0.78202,-0.343508 0.43365,0 0.75036,0.360561 v -1.286327 h 0.68458 z m -1.82717,-1.349669 q 0,0.414158 0.1145,0.599311 0.16567,0.267985 0.46289,0.267985 0.23631,0 0.40197,-0.19977 0.16567,-0.202207 0.16567,-0.601748 0,-0.445829 -0.16079,-0.640727 -0.16079,-0.197335 -0.41173,-0.197335 -0.24362,0 -0.40928,0.194898 -0.16323,0.192462 -0.16323,0.577386 z" />
        <path
           id="path97"
           style="font-style:normal;font-variant:normal;font-weight:bold;font-stretch:normal;font-family:Arial;-inkscape-font-specification:'Arial Bold';fill:white;stroke-width:0.264583px"
           d="m 197.21559,24.695625 v -0.633419 h 0.68458 v 0.633419 z m 0,2.938088 v -2.587272 h 0.68458 v 2.587272 z" />
        <path
           id="path99"
           style="font-style:normal;font-variant:normal;font-weight:bold;font-stretch:normal;font-family:Arial;-inkscape-font-specification:'Arial Bold';fill:white;stroke-width:0.264583px"
           d="m 198.52142,26.681149 v -0.68458 h 1.34479 v 0.68458 z" />
        <path
           id="path101"
           style="font-style:normal;font-variant:normal;font-weight:bold;font-stretch:normal;font-family:Arial;-inkscape-font-specification:'Arial Bold';fill:white;stroke-width:0.264583px"
           d="m 201.45219,25.046441 v 0.545715 h -0.46776 v 1.042704 q 0,0.31671 0.0122,0.370307 0.0146,0.05116 0.0609,0.08527 0.0487,0.03411 0.11694,0.03411 0.095,0 0.27529,-0.06578 l 0.0585,0.531097 q -0.23875,0.102321 -0.54084,0.102321 -0.18515,0 -0.33376,-0.0609 -0.14861,-0.06334 -0.21926,-0.160791 -0.0682,-0.09989 -0.095,-0.267985 -0.0219,-0.119375 -0.0219,-0.482373 v -1.127972 h -0.31427 v -0.545715 h 0.31427 v -0.514043 l 0.68701,-0.399541 v 0.913584 z" />
        <path
           id="path103"
           style="font-style:normal;font-variant:normal;font-weight:bold;font-stretch:normal;font-family:Arial;-inkscape-font-specification:'Arial Bold';fill:white;stroke-width:0.264583px"
           d="m 202.44374,25.835778 -0.62124,-0.112066 q 0.10476,-0.375179 0.36056,-0.555459 0.25581,-0.180281 0.7601,-0.180281 0.45801,0 0.68215,0.10963 0.22413,0.107194 0.31427,0.275293 0.0926,0.165664 0.0926,0.611493 l -0.007,0.799082 q 0,0.341072 0.0317,0.504299 0.0341,0.160791 0.12425,0.345944 h -0.67727 q -0.0268,-0.06821 -0.0658,-0.202207 -0.0171,-0.06091 -0.0244,-0.08039 -0.17541,0.170535 -0.37518,0.255803 -0.19977,0.08527 -0.42634,0.08527 -0.39954,0 -0.63099,-0.216824 -0.229,-0.216824 -0.229,-0.548151 0,-0.21926 0.10476,-0.389796 0.10475,-0.172972 0.29234,-0.263112 0.19003,-0.09258 0.54572,-0.160791 0.47994,-0.09014 0.66509,-0.1681 v -0.06821 q 0,-0.197334 -0.0974,-0.280166 -0.0975,-0.08527 -0.36787,-0.08527 -0.18272,0 -0.28504,0.07309 -0.10232,0.07065 -0.16566,0.250931 z m 0.91602,0.55546 q -0.13156,0.04385 -0.4166,0.104757 -0.28503,0.06091 -0.37274,0.119375 -0.13399,0.09501 -0.13399,0.241187 0,0.143737 0.10719,0.248495 0.1072,0.104758 0.27286,0.104758 0.18515,0 0.35325,-0.121812 0.12425,-0.09258 0.16323,-0.226569 0.0268,-0.0877 0.0268,-0.333763 z" />
        <path
           id="path105"
           style="font-style:normal;font-variant:normal;font-weight:bold;font-stretch:normal;font-family:Arial;-inkscape-font-specification:'Arial Bold';fill:white;stroke-width:0.264583px"
           d="m 206.3149,27.633713 h -0.68458 V 25.05375 q -0.37518,0.350816 -0.88435,0.518916 v -0.621238 q 0.26799,-0.0877 0.58226,-0.331326 0.31427,-0.246059 0.43121,-0.572513 h 0.55546 z" />
      </g>
    </g>
  </g>
</svg>
