<?xml version="1.0" encoding="UTF-8" standalone="no"?>
<svg
   xmlns:dc="http://purl.org/dc/elements/1.1/"
   xmlns:cc="http://creativecommons.org/ns#"
   xmlns:rdf="http://www.w3.org/1999/02/22-rdf-syntax-ns#"
   xmlns:svg="http://www.w3.org/2000/svg"
   xmlns="http://www.w3.org/2000/svg"
   xmlns:xlink="http://www.w3.org/1999/xlink"
   xmlns:sodipodi="http://sodipodi.sourceforge.net/DTD/sodipodi-0.dtd"
   xmlns:inkscape="http://www.inkscape.org/namespaces/inkscape"
   width="173.91183mm"
   height="181.12769mm"
   viewBox="0 0 173.91183 181.12769"
   version="1.1"
   id="svg8"
   sodipodi:docname="nfdi_common_infra_puzzles.svg"
   inkscape:version="1.0 (4035a4fb49, 2020-05-01)"
   inkscape:export-filename="/home/michael/psycho/talks/reveal/pics/nfdi_common_infra_3.png"
   inkscape:export-xdpi="93.658501"
   inkscape:export-ydpi="93.658501">
  <defs
     id="defs2" />
  <sodipodi:namedview
     id="base"
     pagecolor="#ffffff"
     bordercolor="#666666"
     borderopacity="1.0"
     inkscape:pageopacity="0.0"
     inkscape:pageshadow="2"
     inkscape:zoom="0.70710678"
     inkscape:cx="386.70106"
     inkscape:cy="358.45182"
     inkscape:document-units="mm"
     inkscape:current-layer="layer1"
     inkscape:document-rotation="0"
     showgrid="false"
     inkscape:window-width="1920"
     inkscape:window-height="1119"
     inkscape:window-x="0"
     inkscape:window-y="44"
     inkscape:window-maximized="1"
     fit-margin-top="0"
     fit-margin-left="0"
     fit-margin-right="0"
     fit-margin-bottom="0" />
  <metadata
     id="metadata5">
    <rdf:RDF>
      <cc:Work
         rdf:about="">
        <dc:format>image/svg+xml</dc:format>
        <dc:type
           rdf:resource="http://purl.org/dc/dcmitype/StillImage" />
        <dc:title></dc:title>
      </cc:Work>
    </rdf:RDF>
  </metadata>
  <g
     sodipodi:insensitive="true"
     inkscape:label="NFDI"
     inkscape:groupmode="layer"
     id="layer1"
     transform="translate(-590.36991,-194.47307)"
     style="display:inline">
    <path
       style="fill:#ffa200;fill-opacity:1;stroke:#020202;stroke-width:1"
       d="m 698.42001,243.92769 c 0.9136,0.4961 2.6884,1.2663 3.6975,1.84362 2.67837,1.53194 5.77857,3.53563 7.93254,5.67796 0.6082,0.6051 1.0154,1.32847 1.5607,1.87351 0.5448,0.54504 1.2642,0.94615 1.8603,1.56078 1.39097,1.4351 2.94007,3.3311 4.07937,5.02206 1.3311,1.9759 2.06007,5.30357 3.93807,6.3754 0.6315,0.36036 1.2506,0.10636 1.7957,-0.11589 0.7392,-0.30136 1.63327,-0.80222 2.38117,-1.16417 3.3092,-1.60099 9.19397,-4.97311 12.96434,-4.14364 3.26647,0.71861 0.7781,4.53999 1.3978,6.72095 0.3939,1.38641 1.75467,2.16429 3.10027,2.33256 1.2528,0.15637 1.9955,0.0127 3.17497,-0.27913 1.7571,-0.43471 3.7817,-1.60867 4.4956,-3.37608 1.49877,-3.71184 -5.39277,-5.32448 -3.6944,-8.73126 1.5346,-3.07869 6.28167,-4.72625 9.25297,-5.97323 1.27267,-0.53393 2.99427,-1.14617 4.23197,-1.62189 0.8462,-0.32518 1.1584,-0.57838 1.70877,-0.92763 -0.2697,-0.84376 -0.3454,-1.60338 -0.76237,-2.58974 -0.7913,-1.87167 -2.3011,-4.26535 -3.0739,-6.08542 -0.35915,-1.56876 -1.43735,-2.5593 -2.21297,-3.70814 -0.9279,-1.39197 -2.0714,-3.17553 -3.1826,-4.49394 -1.0391,-1.2327 -3.05777,-3.57664 -4.90987,-2.96704 -3.29777,1.08532 -3.33397,8.68177 -8.46744,5.61049 -0.5702,-0.34105 -1.0684,-0.80883 -1.4846,-1.32451 -1.8116,-2.24657 -2.3315,-6.0952 0.1728,-7.98936 1.555,-1.1758 4.57807,-1.64094 4.39947,-4.1775 -1.68095,-4.80475 -6.67761,-7.69195 -10.49624,-9.81657 -0.9093,-0.50589 -1.9867,-1.1729 -2.91037,-1.72006 -3.9534,-2.34288 -8.04677,-4.49209 -12.17074,-6.5196 -1.0187,-0.50085 -3.37267,-1.66105 -4.10157,-1.08717 -1.1309,0.89032 -1.2573,2.37834 -1.8251,3.79757 -1.311,3.27765 -4.47047,10.04252 -2.49667,13.47813 1.05277,1.83224 3.12187,0.61543 4.71917,0.57918 2.24447,-0.0508 3.60307,1.81795 3.32527,3.93435 -0.1056,0.8046 -0.2606,1.62269 -0.5694,2.38125 -0.3418,0.84005 -0.7602,1.63407 -1.2856,2.38019 -0.3625,0.51462 -0.75617,1.025 -1.25177,1.41976 -4.4566,3.55018 -6.02927,-5.51604 -9.73957,-2.86994 -2.12037,1.5121 -3.21207,4.44024 -4.19757,6.74291 -0.9097,2.12619 -1.85077,4.96702 -2.35877,7.14322 -0.1945,0.83344 -0.2591,1.32874 -0.3268,1.85261 0.368,0.30163 0.6213,0.57097 1.32957,0.95541 z"
       id="path768"
       sodipodi:nodetypes="scsccssscsscscssscsccssccccccsscssssscscscs" />
    <path
       id="path566"
       d="m 699.47171,372.7302 c 3.90921,-1.07394 7.75546,-2.25663 11.64166,-3.39937 1.00965,-0.29712 2.23203,-0.74189 3.17445,-1.13136 0.5361,-0.22119 1.2436,-0.49238 1.4129,-1.16628 0.3138,-1.24857 -0.7728,-2.62969 -1.338,-3.94017 -1.40203,-3.25173 -2.91677,-6.53574 -4.82468,-9.525 -0.68871,-1.07924 -1.62851,-2.64452 -2.91862,-3.06732 -1.45785,-0.47757 -2.50375,2.59689 -3.7121,3.21072 -3.28771,1.67058 -6.03488,-3.33375 -6.18464,-5.96424 -0.13202,-2.31669 1.81531,-3.80365 4.07194,-3.65522 1.16576,0.0767 2.86809,0.66622 3.32476,-0.85831 1.07844,-3.59886 -1.9812,-9.01567 -3.52478,-12.15522 -0.60563,-1.23163 -2.09312,-3.54727 -1.66621,-4.60242 -3.67996,0.45587 -8.86686,4.58575 -13.20338,2.8186 -2.34182,-0.95435 -0.73369,-3.65548 -0.59451,-5.35993 0.21378,-2.61964 -2.90778,-4.5291 -5.23796,-4.4831 -0.64082,0.0124 -1.27556,0.12197 -1.85076,0.40137 -4.47067,2.17038 2.35453,7.65255 -1.0885,9.59062 -3.59224,2.02221 -10.67567,-1.81636 -13.37999,-1.80268 -0.28128,3.14051 -3.07581,8.41128 -4.64426,11.11056 -0.59796,1.02896 -1.43537,2.40982 -2.58472,2.88766 -1.46235,0.60775 -2.68393,-1.68989 -3.70496,-2.41141 -2.61831,-1.8505 -5.79781,-0.72602 -7.01595,2.16958 -1.31763,3.13267 0.0532,6.16109 3.57743,6.53415 1.23163,0.13044 3.12288,-0.69982 3.92139,0.64876 0.80248,1.35546 0.16457,3.32978 -0.18362,4.72334 -0.92737,3.71025 -2.26537,7.29853 -3.68485,10.84792 -0.47811,1.19539 -0.9533,3.43323 -1.67678,4.18976 1.55935,1.41745 4.8542,2.19559 6.91557,2.80149 0.8419,0.24765 1.8669,0.57494 2.63922,0.8419 4.86565,0.94003 11.05927,3.57985 14.81825,2.24896 2.09365,-0.8374 0.48366,-2.72177 0.46567,-4.26138 -0.0265,-2.26748 2.52836,-3.51208 4.56644,-3.38322 1.88436,0.11932 4.31377,1.43774 3.75603,3.64781 -0.33179,1.31445 -2.00131,3.42926 -0.27729,4.45055 1.05014,0.62204 2.74717,0.31195 3.9296,0.31195 3.68749,0 6.4508,-0.79164 9.65729,-0.92604 1.42504,-0.38312 3.37132,-0.7792 5.42396,-1.34303 z"
       style="fill:#ffa200;fill-opacity:1;stroke:#020202;stroke-width:1"
       sodipodi:nodetypes="sccsscsssssccsscsscscccsscscsccssssscs" />
    <path
       style="fill:#ffa200;fill-opacity:1;stroke:#020202;stroke-width:1"
       d="m 596.74322,318.37853 c -2.44952,-6.00525 -4.39738,-13.0929 -5.35383,-19.71146 -0.13827,-2.30399 -1.40359,-10.75531 0.62286,-13.87898 1.58855,-2.44872 3.4237,0.16431 5.33029,0.4609 3.08187,0.47969 5.1398,-2.61858 5.28108,-5.49962 0.14738,-3.00858 -0.95514,-6.9223 -4.75191,-6.22618 -1.66344,0.30506 -4.19762,2.17805 -5.68484,0.58579 -1.7563,-1.8804 -0.0791,-6.93076 0.2704,-8.91117 -0.13168,-1.94871 0.81542,-2.62894 1.35732,-4.23387 1.04007,-3.05832 1.8116,-6.8334 3.26337,-8.73125 0.4363,0.27755 0.75697,0.49001 1.58882,0.86518 3.41868,1.54253 9.95045,4.5429 14.02159,3.77323 5.1869,-0.98055 0.69956,-11.50197 7.9375,-9.5512 0.82259,0.22172 1.64307,0.49742 2.38125,0.93875 0.63739,0.381 1.25492,0.86412 1.76504,1.40467 4.60931,4.885 -7.1157,7.62079 -1.48987,12.12109 3.21098,2.56858 7.30673,4.03675 11.10192,5.47873 1.11231,0.42254 2.64054,1.30704 3.67596,1.1692 -0.19118,2.71701 -4.29513,11.0236 -2.43167,14.71745 0.78025,1.54702 2.87655,0.29607 4.04733,0.0127 2.69055,-0.6514 5.21599,1.08373 5.28743,3.99521 0.0177,0.72813 -0.005,1.43351 -0.25241,2.11667 -0.64135,1.77376 -2.13413,2.75087 -3.97669,2.15635 -1.12686,-0.36354 -2.66435,-1.75472 -3.85392,-0.86043 -2.23705,1.68196 0.65723,8.09758 1.29514,10.08116 0.27225,0.8464 0.33073,1.55469 0.56226,2.32511 -2.51855,1.76339 -10.44837,5.92688 -14.66716,5.59588 -2.26589,-0.17806 -0.73686,-3.29035 -1.29989,-4.74503 -1.10543,-2.8575 -4.8731,-2.47941 -7.1718,-1.4523 -0.62415,0.27887 -1.25518,0.63182 -1.77244,1.08347 -4.49263,3.92165 4.19867,5.59699 1.43404,8.80983 -2.53286,2.94349 -7.54645,4.65084 -11.03868,6.14971 -1.20386,0.51673 -3.3573,1.41631 -4.4913,1.78779 -0.81862,0.26779 -0.9742,0.23599 -1.54242,0.42153 -0.64838,-0.71671 -1.03732,-1.25037 -1.44477,-2.24891 z"
       id="path828"
       sodipodi:nodetypes="ccscssscccssssssccssscssscccssssccc" />
    <path
       style="fill:#ffa200;fill-opacity:1;stroke:#020202;stroke-width:1"
       d="m 699.47171,197.02305 c 3.71739,0.73261 11.09594,2.91314 13.69192,4.89212 -1.19724,1.1082 -1.32371,2.59622 -1.89151,4.01545 -1.31101,3.27765 -4.4704,10.04252 -2.49661,13.47813 1.05278,1.83224 3.12182,0.61543 4.71911,0.57918 2.2445,-0.0508 3.6031,1.81795 3.3253,3.93435 -0.1056,0.8046 -0.2606,1.62269 -0.5694,2.38125 -0.3418,0.84005 -0.7602,1.63407 -1.2856,2.38019 -0.3625,0.51462 -0.75619,1.025 -1.25175,1.41976 -4.45664,3.55018 -6.02933,-5.51604 -9.73958,-2.86994 -2.12037,1.5121 -3.21204,4.44024 -4.19761,6.74291 -0.90964,2.12619 -1.85076,4.96702 -2.35876,7.14322 -0.19447,0.83344 -0.25903,1.32874 -0.32676,1.85261 -0.72285,-0.17806 -1.38007,-0.2495 -2.38125,-0.53948 -2.41459,-0.69956 -7.40966,-2.95725 -10.01898,-1.49305 -2.23626,1.25492 0.0844,4.11586 0.38655,5.7367 0.32147,1.72402 -0.97948,3.1324 -2.53841,3.67533 -0.69347,0.24156 -1.38668,0.28363 -2.11666,0.29236 -2.67124,0.0317 -6.02219,-0.89905 -5.79517,-4.23227 0.11192,-1.6428 2.55005,-4.42992 0.23362,-5.35993 -3.61897,-1.45283 -10.21185,2.33574 -12.90068,2.43561 -0.0364,-0.57931 -0.32002,-1.10265 -0.53115,-1.57361 -0.39291,-0.87604 -0.98425,-1.98888 -1.37928,-2.91042 -1.54384,-3.60018 -4.02272,-8.39496 -3.51684,-12.43542 0.39317,-3.14007 3.17183,-1.96188 5.36866,-2.14127 2.17223,-0.17753 3.70417,-1.53591 4.13306,-3.67956 0.17462,-0.87259 0.13996,-1.79996 -0.15531,-2.64583 -0.30136,-0.86281 -0.78476,-1.68619 -1.38827,-2.37728 -2.07486,-2.37526 -5.16678,-2.80653 -7.05961,-0.003 -0.91625,1.35704 -1.58697,3.94599 -3.73195,3.28797 -3.79254,-1.16337 -6.13145,-8.42274 -7.42447,-11.7557 -0.34661,-0.89323 -0.81095,-2.04099 -1.12104,-2.90539 -0.17913,-0.49927 -0.27438,-0.94774 -0.755,-1.2423 2.59703,-2.18104 10.44377,-4.51123 14.85676,-5.50976 3.57845,-0.92771 6.48253,-1.4859 9.525,-1.76488 2.75167,-0.24765 8.74395,-2.02327 11.01778,0.42069 1.261,1.35546 -1.48537,3.96743 -1.27979,5.70997 0.47281,4.00871 7.21333,4.41881 10.10576,3.17633 1.8116,-0.77814 2.94137,-2.55588 2.5056,-4.49924 -0.26273,-1.17158 -1.55495,-2.93185 -0.49397,-4.04733 1.88198,-1.97803 6.66379,-0.0154 8.83629,0.43153"
       id="path630"
       sodipodi:nodetypes="cccssssssscscsssscsscssssssssscscccsssscc" />
    <path
       style="fill:#ffa200;fill-opacity:1;stroke:#020202;stroke-width:1"
       d="m 759.73108,326.8451 c -1.6322,3.26443 -3.50437,6.49764 -5.51757,9.525 -0.518,0.7792 -0.8363,1.61105 -1.4065,2.26907 -0.5387,0.62124 -1.0642,1.04854 -1.62847,1.70074 -1.8743,2.16561 -3.8412,5.2406 -6.20257,6.95087 -2.8361,2.05449 -2.4631,-2.67415 -3.7606,-3.98198 -1.82217,-1.83727 -4.56747,-0.45482 -6.28954,0.87418 -1.4814,1.14326 -4.0905,3.95817 -2.2972,5.8719 1.3828,1.47558 5.50277,1.54649 3.75577,4.57147 -1.55467,2.69187 -4.75377,4.46299 -7.27944,6.07325 -0.771,0.49133 -1.3639,0.95541 -2.1166,1.38906 -0.6308,0.36327 -1.2132,0.5633 -1.8521,0.87868 -2.54637,1.25598 -6.98574,3.96531 -9.21574,4.08014 0.094,-1.26286 -0.9926,-2.64398 -1.5578,-3.95446 -1.40207,-3.25173 -2.91677,-6.53574 -4.82467,-9.525 -0.68877,-1.07924 -1.62857,-2.64452 -2.91867,-3.06732 -1.4578,-0.47757 -2.5037,2.59689 -3.71207,3.21072 -3.2877,1.67058 -6.03487,-3.33375 -6.18467,-5.96424 -0.132,-2.31669 1.81537,-3.80365 4.07197,-3.65522 1.1658,0.0767 2.8681,0.66622 3.32477,-0.85831 1.0784,-3.59886 -1.98117,-9.01567 -3.52477,-12.15522 -0.6056,-1.23163 -2.0931,-3.54727 -1.4158,-4.70694 0.7551,-1.29328 2.6657,-1.83567 3.9971,-2.65139 4.69735,-3.25866 8.51683,-6.07526 11.41701,-10.10407 1.7687,-2.41935 3.4729,-4.85008 5.03707,-7.40833 1.1586,-1.89495 1.8074,-3.45916 3.2099,-4.56578 1.1833,0.9349 3.08567,1.0365 4.41277,1.47888 2.88557,0.96203 7.23897,2.18202 9.17524,4.68498 1.3091,1.69228 -0.6517,2.63631 -1.68617,3.73962 -1.4873,1.58565 -1.7291,3.86953 -0.052,5.42317 1.71837,1.592 4.95157,2.3405 7.11084,1.22793 2.7318,-1.40785 1.0602,-6.72571 3.9741,-6.92256 4.14407,-0.27966 9.52334,2.77098 13.22771,4.42198 0.9247,0.41196 1.9722,1.01441 2.91037,1.33271 0.5548,0.18838 1.2197,0.40455 1.8225,0.36203 -0.2114,2.54855 -2.48467,6.41517 -4.00417,9.45444 z"
       id="path754"
       sodipodi:nodetypes="ssccccsssssccsssssssssccscsscsccsscs" />
    <path
       style="fill:#ffa200;fill-opacity:1;stroke:#020202;stroke-width:1"
       d="m 603.02678,331.53203 c -0.4204,-0.65432 -0.5456,-1.34038 -0.8742,-2.041 -0.6789,-1.447 -1.7542,-3.28586 -2.4942,-4.7625 -0.3625,-0.7231 -0.858,-1.6801 -1.1007,-2.38125 -0.1836,-0.53102 -0.2672,-0.97261 -0.3697,-1.71984 0.5682,-0.18554 0.7238,-0.15374 1.5424,-0.42153 1.134,-0.37148 3.2875,-1.27106 4.49137,-1.78779 3.4922,-1.49887 8.50577,-3.20622 11.03864,-6.14971 2.7646,-3.21284 -5.92667,-4.88818 -1.434,-8.80983 0.5172,-0.45165 1.1482,-0.8046 1.7724,-1.08347 2.2987,-1.02711 6.06637,-1.4052 7.17177,1.4523 0.5631,1.45468 -0.966,4.56697 1.2999,4.74503 4.21877,0.331 12.14861,-3.83249 14.66721,-5.59588 0.5487,0.81391 1.1218,1.69232 1.69827,2.70197 1.7495,3.06414 4.1003,6.28333 6.29497,8.99478 0.6834,0.84428 1.3936,1.31312 2.0958,2.00924 0.5929,0.58817 0.8427,1.1647 1.4676,1.76107 1.32637,1.26656 3.20047,2.58868 4.72737,3.67612 2.06767,1.47214 4.35767,2.75431 6.61454,3.87403 0.8536,0.42333 1.7944,0.86333 1.7574,1.91373 -0.1016,2.8739 -2.89617,8.14467 -4.46457,10.84395 -0.598,1.02896 -1.4354,2.40982 -2.5847,2.88766 -1.46237,0.60775 -2.68397,-1.68989 -3.70497,-2.41141 -2.61837,-1.8505 -5.79787,-0.72602 -7.01597,2.16958 -1.31767,3.13267 0.053,6.16109 3.5774,6.53415 1.2316,0.13044 3.12287,-0.69982 3.92137,0.64876 0.8025,1.35546 0.1646,3.32978 -0.1836,4.72334 -0.9274,3.71025 -2.26537,7.29853 -3.68487,10.84792 -0.4781,1.19539 -0.9533,3.43323 -1.9777,3.8817 -0.6377,0.2794 -1.4137,-0.0857 -2.04397,-0.35666 -2.078,-0.8927 -4.3394,-2.15159 -6.34997,-3.23929 -3.2861,-1.77774 -6.58337,-3.6158 -9.78954,-5.52424 -0.8983,-0.53498 -1.8503,-0.94138 -2.5337,-1.50706 -0.6363,-0.52652 -1.0258,-0.99616 -1.7007,-1.5584 -2.51037,-2.09074 -7.25914,-5.45359 -8.10314,-8.89397 -1.142,-4.65296 8.03514,-2.64768 6.26007,-7.9375 -0.1858,-0.55324 -0.4752,-1.09961 -0.7927,-1.5875 -0.5006,-0.76888 -1.1547,-1.44621 -1.8614,-2.02962 -0.5628,-0.46434 -1.1708,-0.85434 -1.85177,-1.11283 -5.27477,-2.00211 -4.0617,7.298 -8.73127,4.52755 -2.06087,-1.22238 -4.25587,-3.74703 -5.53637,-5.61446 -0.4385,-0.63924 -0.8017,-1.02394 -1.21477,-1.66714"
       id="path866"
       sodipodi:nodetypes="ccscccsssscccsscccscscsssscsccscsccsccscsc" />
    <path
       style="fill:#ffa200;fill-opacity:1;stroke:#020202;stroke-width:1"
       d="m 600.93448,243.76593 c 1.8839,-3.34195 3.92747,-6.79794 5.91507,-10.05416 0.4358,-0.71412 0.708,-1.40203 1.1843,-2.041 0.44397,-0.59558 0.91357,-1.06998 1.38687,-1.66714 1.6823,-2.12064 3.9654,-5.40623 6.70727,-6.27618 2.99797,-0.95118 3.68057,2.81834 4.88627,4.68233 1.9817,3.06335 5.94677,2.53682 8.33147,0.24739 0.62997,-0.60511 1.13717,-1.30043 1.51207,-2.08915 0.3204,-0.6739 0.5483,-1.37293 0.5871,-2.11667 0.2551,-4.87918 -7.52604,-3.40201 -7.12257,-7.67292 0.3067,-3.24829 4.9406,-5.7867 7.41607,-7.3951 0.7853,-0.51012 1.3657,-0.98875 2.1166,-1.46394 0.6258,-0.39608 1.21447,-0.57521 1.85207,-0.90408 1.0044,-0.51779 2.145,-1.16391 3.175,-1.67931 1.1306,-0.56568 2.59087,-1.39065 3.70417,-1.85394 0.4885,-0.2032 1.1811,-0.52811 1.772,-0.29078 0.5207,0.20902 0.6159,0.65749 0.795,1.15676 0.31017,0.8644 0.77447,2.01216 1.12107,2.90539 1.293,3.33296 3.6319,10.59233 7.42447,11.7557 2.145,0.65802 2.81567,-1.93093 3.73197,-3.28797 1.8928,-2.80353 4.98477,-2.37226 7.05957,0.003 0.6035,0.69109 1.0869,1.51447 1.3883,2.37728 0.2953,0.84587 0.3299,1.77324 0.1553,2.64583 -0.4289,2.14365 -1.9608,3.50203 -4.1331,3.67956 -2.19677,0.17939 -4.97547,-0.9988 -5.36857,2.14127 -0.50597,4.04046 1.973,8.83524 3.5168,12.43542 0.395,0.92154 0.9864,2.03438 1.37927,2.91042 0.2111,0.47096 0.4948,0.9943 0.3252,1.55972 -0.299,0.99695 -1.74737,1.41181 -2.76307,1.99284 -2.9149,1.66767 -6.37037,3.9489 -8.71984,6.26057 -0.6083,0.59875 -0.9266,1.13321 -1.4915,1.70815 -0.6329,0.64399 -1.4576,1.2237 -2.1108,1.97379 -2.07997,2.38839 -3.98357,5.19853 -5.61637,7.93618 -0.6445,1.08056 -1.26967,2.34024 -1.84097,3.43905 -0.2807,0.54028 -0.5622,1.23428 -1.179,1.44357 -1.0072,0.34237 -2.5355,-0.54213 -3.64777,-0.96467 -3.7952,-1.44198 -7.89097,-2.91015 -11.10194,-5.47873 -5.62577,-4.5003 6.09917,-7.23609 1.48987,-12.12109 -0.51007,-0.54055 -1.12767,-1.02367 -1.76497,-1.40467 -0.7382,-0.44133 -1.5587,-0.71703 -2.3813,-0.93875 -7.23794,-1.95077 -2.75057,8.57065 -7.93754,9.5512 -4.0711,0.76967 -10.60284,-2.2307 -14.02154,-3.77323 -0.8319,-0.37517 -1.15257,-0.58763 -1.58887,-0.86523 0.326,-2.40801 2.21067,-5.54703 3.85657,-8.46671 z"
       id="path780"
       sodipodi:nodetypes="ssccsscscssscsssscssssssssssssssssccsssssscs" />
    <path
       transform="matrix(0.26458333,0,0,0.26458333,545.21912,149.31783)"
       d="m 509.57812,229.46484 a 281.3002,281.3002 0 0 0 -238.6582,132.28907 281.3002,281.3002 0 0 0 89.23828,387.38671 281.3002,281.3002 0 0 0 387.51368,-88.67968 l 0.85742,-1.37305 a 281.3002,281.3002 0 0 0 3.54687,-5.875 c -22.83151,-4.49633 -46.96978,-19.25214 -51.94922,-36.84766 a 217.91356,217.91356 0 0 1 -5.45703,9.30079 l -0.66406,1.0625 A 217.91356,217.91356 0 0 1 393.8125,695.42578 217.91356,217.91356 0 0 1 324.68164,395.33203 217.91356,217.91356 0 0 1 509.82227,292.85156 a 217.91356,217.91356 0 0 1 114.85546,32.91797 217.91356,217.91356 0 0 1 82.00196,92.20117 c 0.49857,-0.23095 0.89975,-0.51334 1.13281,-0.875 4.61114,-7.15544 31.55379,1.54204 36.32812,-4.90039 2.35724,-3.18079 11.67315,-14.20503 20.1875,-20.58789 A 281.3002,281.3002 0 0 0 658.17773,271.95898 281.3002,281.3002 0 0 0 509.57812,229.46484 Z"
       style="opacity:1;fill:#ffa200;fill-opacity:1;fill-rule:evenodd;stroke:none;stroke-width:3.77953;stroke-linecap:round;stroke-linejoin:bevel"
       id="path141" />
    <text
       xml:space="preserve"
       style="font-style:normal;font-variant:normal;font-weight:normal;font-stretch:normal;font-size:16.9333px;line-height:114%;font-family:Arial;-inkscape-font-specification:Arial;text-align:start;letter-spacing:0px;word-spacing:0px;text-anchor:start;fill:black;fill-opacity:1;stroke:none;stroke-width:0.272218px;stroke-linecap:butt;stroke-linejoin:miter;stroke-opacity:1"
       id="text723"
       x="5.2916665"
       transform="matrix(0.48597665,0.84173625,-0.84173625,0.48597665,590.39844,-427.71174)"><textPath
         xlink:href="#path725"
         id="textPath727"
         style="stroke-width:0.272218px"><tspan
           style="font-style:normal;font-variant:normal;font-weight:normal;font-stretch:normal;font-family:'Latin Modern Sans Demi Cond';-inkscape-font-specification:'Latin Modern Sans Demi Cond';stroke-width:0.272218px"
           id="tspan721">NFDI Neuroscience Common Infrastructure</tspan></textPath></text>
    <path
       transform="rotate(42.904271)"
       sodipodi:open="true"
       d="m 751.61276,-265.9483 a 60.916172,60.916172 0 0 1 -48.39501,71.19558 60.916172,60.916172 0 0 1 -71.2651,-48.29258 60.916172,60.916172 0 0 1 48.19005,-71.33447 60.916172,60.916172 0 0 1 71.40369,48.08742"
       sodipodi:arc-type="arc"
       sodipodi:end="6.089758"
       sodipodi:start="6.0955101"
       sodipodi:ry="60.916172"
       sodipodi:rx="60.916172"
       sodipodi:cy="-254.58284"
       sodipodi:cx="691.76624"
       sodipodi:type="arc"
       id="path134"
       style="opacity:0.416;fill:none;fill-rule:evenodd;stroke:none;stroke-width:1;stroke-linecap:round;stroke-linejoin:bevel" />
    <path
       style="opacity:0.416;fill:none;fill-rule:evenodd;stroke:none;stroke-width:1;stroke-linecap:round;stroke-linejoin:bevel"
       id="path725"
       sodipodi:type="arc"
       sodipodi:cx="680.67743"
       sodipodi:cy="285.78635"
       sodipodi:rx="62.356064"
       sodipodi:ry="62.356064"
       sodipodi:start="6.0955101"
       sodipodi:end="6.0898028"
       sodipodi:arc-type="slice"
       d="m 741.93856,274.15224 a 62.356064,62.356064 0 0 1 -49.53962,72.87858 62.356064,62.356064 0 0 1 -72.94919,-49.43559 62.356064,62.356064 0 0 1 49.33145,-73.01965 62.356064,62.356064 0 0 1 73.08996,49.22721 l -61.19373,11.98356 z" />
  </g>
</svg>
