<?xml version="1.0" encoding="UTF-8" standalone="no"?>
<svg
   xmlns:dc="http://purl.org/dc/elements/1.1/"
   xmlns:cc="http://creativecommons.org/ns#"
   xmlns:rdf="http://www.w3.org/1999/02/22-rdf-syntax-ns#"
   xmlns:svg="http://www.w3.org/2000/svg"
   xmlns="http://www.w3.org/2000/svg"
   xmlns:sodipodi="http://sodipodi.sourceforge.net/DTD/sodipodi-0.dtd"
   xmlns:inkscape="http://www.inkscape.org/namespaces/inkscape"
   sodipodi:docname="nfdineuro_logo.svg"
   inkscape:version="1.0 (4035a4fb49, 2020-05-01)"
   id="svg3193"
   version="1.1"
   viewBox="0 0 67.677231 20.297001"
   height="20.297001mm"
   width="67.677231mm">
  <defs
     id="defs3187" />
  <sodipodi:namedview
     inkscape:window-maximized="1"
     inkscape:window-y="44"
     inkscape:window-x="0"
     inkscape:window-height="1119"
     inkscape:window-width="1920"
     fit-margin-bottom="0"
     fit-margin-right="0"
     fit-margin-left="0"
     fit-margin-top="0"
     showgrid="false"
     inkscape:document-rotation="0"
     inkscape:current-layer="layer1"
     inkscape:document-units="mm"
     inkscape:cy="98.628703"
     inkscape:cx="166.42817"
     inkscape:zoom="2.8"
     inkscape:pageshadow="2"
     inkscape:pageopacity="0.0"
     borderopacity="1.0"
     bordercolor="#666666"
     pagecolor="#ffffff"
     id="base" />
  <metadata
     id="metadata3190">
    <rdf:RDF>
      <cc:Work
         rdf:about="">
        <dc:format>image/svg+xml</dc:format>
        <dc:type
           rdf:resource="http://purl.org/dc/dcmitype/StillImage" />
        <dc:title></dc:title>
      </cc:Work>
    </rdf:RDF>
  </metadata>
  <g
     transform="translate(-119.61972,-209.07769)"
     id="layer1"
     inkscape:groupmode="layer"
     inkscape:label="Layer 1">
    <path
       id="path3170"
       d="m 151.88657,213.8968 c -0.34557,-0.0943 -0.60626,-0.33424 -0.79008,-0.72721 -0.11618,-0.24839 -0.11901,-0.27205 -0.11901,-0.9965 0,-0.71069 0.005,-0.75201 0.1103,-0.97722 0.14992,-0.31964 0.35627,-0.54336 0.61026,-0.66164 l 0.21233,-0.0989 4.198,5.1e-4 c 3.97417,4.9e-4 4.20709,0.005 4.36852,0.078 0.24245,0.11014 0.55107,0.47068 0.66102,0.77221 0.0503,0.13804 0.10355,0.25097 0.11827,0.25097 0.0147,0 0.0599,-0.0933 0.10042,-0.20736 0.11308,-0.31838 0.32582,-0.60272 0.55778,-0.74549 l 0.20868,-0.12845 4.24835,-0.0112 4.24836,-0.0112 0.22844,0.11934 c 0.27359,0.14293 0.51703,0.44268 0.61862,0.76174 0.039,0.12244 0.0839,0.22262 0.0999,0.22262 0.0159,0 0.0702,-0.11293 0.12049,-0.25097 0.11018,-0.30219 0.39998,-0.63992 0.65505,-0.76339 0.18062,-0.0874 0.21548,-0.0881 4.37727,-0.0877 l 4.19521,4.2e-4 0.21233,0.0989 c 0.254,0.11828 0.46034,0.342 0.61026,0.66164 0.10564,0.22521 0.1103,0.26653 0.1103,0.97722 0,0.72815 -0.002,0.74703 -0.1221,1.00643 -0.14169,0.30677 -0.43822,0.60692 -0.68594,0.69433 -0.13854,0.0489 -0.88422,0.059 -4.34405,0.059 h -4.17679 l -0.2281,-0.12633 c -0.27156,-0.15041 -0.48046,-0.40911 -0.60405,-0.74809 -0.0497,-0.1362 -0.10419,-0.23906 -0.12116,-0.22856 -0.017,0.0105 -0.0719,0.13155 -0.12201,0.26902 -0.11263,0.3089 -0.36665,0.60436 -0.63192,0.735 l -0.20094,0.099 -4.06968,0.0116 c -2.79341,0.008 -4.13887,-0.003 -4.2903,-0.0342 -0.40085,-0.0832 -0.75027,-0.42573 -0.89155,-0.87392 -0.0394,-0.12499 -0.0847,-0.22726 -0.10062,-0.22726 -0.0159,0 -0.0697,0.11181 -0.11957,0.24847 -0.12389,0.33977 -0.33259,0.59839 -0.60435,0.74891 l -0.2281,0.12633 -4.11319,0.008 c -3.17076,0.006 -4.15751,-0.004 -4.30661,-0.0444 z"
       style="fill:#6a6a91;stroke-width:1"
       sodipodi:nodetypes="csscscscsssscccssscsscssscsscssssscscsscscccc" />
    <path
       id="path3168"
       d="m 151.86084,218.11149 c -0.22736,-0.0542 -0.51412,-0.24927 -0.6442,-0.43834 -0.20395,-0.29644 -0.2262,-0.43834 -0.21081,-1.34436 0.0128,-0.75286 0.0223,-0.84231 0.1064,-0.99938 0.11038,-0.20622 0.38805,-0.46619 0.60141,-0.56308 0.14269,-0.0648 1.42648,-0.0701 17.03112,-0.0701 h 16.8768 l 0.22226,0.10048 c 0.12225,0.0553 0.29107,0.17663 0.37516,0.26971 0.26318,0.29131 0.28777,0.39165 0.30592,1.2484 0.0207,0.97552 -0.0224,1.1601 -0.34571,1.48294 -0.39371,0.39309 1.50493,0.35496 -17.43152,0.35006 -9.21387,-0.002 -16.81294,-0.0187 -16.88683,-0.0363 z"
       style="fill:#00007f;stroke-width:1" />
    <path
       id="path3166"
       d="m 133.189,229.34946 c -1.0962,-0.19547 -1.84184,-0.90083 -2.05646,-1.94539 -0.0833,-0.40566 -0.0827,-1.27283 0.001,-1.69518 0.0813,-0.40895 0.342,-0.95118 0.58993,-1.22695 0.44402,-0.49385 0.97001,-0.73006 1.69852,-0.76278 0.80912,-0.0363 1.39357,0.17709 1.88428,0.68812 0.43965,0.45785 0.66223,1.03923 0.70986,1.85424 l 0.0266,0.45543 -2.03125,0.011 -2.03124,0.011 0.007,0.27562 c 0.016,0.67952 0.48306,1.34343 1.096,1.55806 0.33723,0.11809 0.87197,0.10029 1.17239,-0.039 0.30488,-0.14138 0.54943,-0.38618 0.71659,-0.71733 l 0.13168,-0.26085 0.34236,0.0299 c 0.1883,0.0164 0.38713,0.0469 0.44183,0.0677 l 0.0995,0.0378 -0.0877,0.22374 c -0.33941,0.8663 -1.14928,1.41211 -2.15729,1.45389 -0.1994,0.008 -0.44841,-2.9e-4 -0.55336,-0.019 z m 1.88135,-3.56457 c -0.0126,-0.52321 -0.35122,-1.02925 -0.84245,-1.25909 -0.22339,-0.10452 -0.30357,-0.11895 -0.65726,-0.11828 -0.34525,6.6e-4 -0.43618,0.0166 -0.63606,0.11133 -0.34742,0.16469 -0.56875,0.37989 -0.73734,0.71689 -0.14835,0.29654 -0.22679,0.6186 -0.18021,0.73998 0.0217,0.0566 0.21464,0.0633 1.54188,0.0535 l 1.51707,-0.0111 z m 3.69478,3.57793 c -0.07,-0.0104 -0.16538,-0.0354 -0.21202,-0.0554 -0.0466,-0.02 -0.17593,-0.0688 -0.2873,-0.10843 -0.44087,-0.15678 -0.72671,-0.43222 -0.89356,-0.86105 -0.12508,-0.3215 -0.15848,-0.94973 -0.14588,-2.74386 l 0.0122,-1.73856 0.40863,-0.0121 0.40864,-0.0121 0.0203,1.92026 c 0.0232,2.19892 0.0284,2.23717 0.34866,2.55743 0.51264,0.51264 1.58908,0.3689 2.03284,-0.27145 0.24422,-0.35241 0.25217,-0.4206 0.27734,-2.37991 l 0.0232,-1.80217 0.41344,-0.0121 0.41344,-0.0121 v 2.69419 2.69419 h -0.36044 -0.36043 l -6.6e-4,-0.30743 c -9.8e-4,-0.46858 -0.0292,-0.48035 -0.36801,-0.15351 -0.30279,0.29212 -0.40511,0.35792 -0.78017,0.50172 -0.22761,0.0873 -0.70613,0.13885 -0.95017,0.10243 z m 9.68932,-0.0114 c -0.30893,-0.0514 -0.77535,-0.23434 -1.03208,-0.40474 -0.47729,-0.31681 -0.81743,-0.82039 -0.98993,-1.46561 -0.10398,-0.38894 -0.10404,-1.51334 -1.2e-4,-1.92664 0.22881,-0.90989 0.88842,-1.57385 1.76993,-1.78163 0.5984,-0.14104 1.41934,-0.0474 1.9197,0.21889 0.35106,0.18686 0.79528,0.65682 0.97353,1.02995 0.23213,0.48592 0.30041,0.90542 0.27218,1.67223 -0.0265,0.72073 -0.0883,1.00235 -0.3144,1.43396 -0.25672,0.49002 -0.81393,0.93543 -1.36911,1.09441 -0.10495,0.0301 -0.21067,0.0694 -0.23493,0.0874 -0.0654,0.0486 -0.77471,0.0784 -0.99479,0.0417 z m 1.03712,-0.82519 c 0.47029,-0.2153 0.78865,-0.62694 0.93953,-1.21478 0.0869,-0.33857 0.0974,-1.14466 0.0197,-1.50534 -0.1253,-0.58126 -0.45313,-1.02669 -0.92751,-1.26022 -0.25656,-0.12631 -0.31777,-0.13905 -0.6651,-0.13845 -0.32381,5.8e-4 -0.41946,0.0179 -0.62317,0.11282 -0.50885,0.23712 -0.86406,0.73401 -0.96885,1.35527 -0.0645,0.38249 -0.0311,1.29378 0.0575,1.56816 0.19801,0.6131 0.58642,1.01585 1.12777,1.16943 0.28718,0.0815 0.75834,0.0421 1.04012,-0.0869 z m 4.539,0.82234 c -0.92988,-0.15092 -1.46164,-0.55179 -1.71717,-1.29451 -0.13254,-0.38522 -0.13088,-0.38853 0.22243,-0.44385 0.16909,-0.0265 0.34884,-0.0568 0.39945,-0.0674 0.0781,-0.0163 0.10233,0.0118 0.16038,0.18658 0.11306,0.3404 0.29284,0.5825 0.53545,0.72106 0.53084,0.30318 1.40118,0.27505 1.83974,-0.0595 0.30218,-0.23048 0.40723,-0.6823 0.22244,-0.95666 -0.14654,-0.21755 -0.35642,-0.30943 -1.30275,-0.57033 -1.07647,-0.29677 -1.34602,-0.40377 -1.6059,-0.63742 -0.29529,-0.26549 -0.40599,-0.53586 -0.40655,-0.99292 -2.7e-4,-0.27984 0.0199,-0.40478 0.0908,-0.55871 0.19116,-0.41551 0.60225,-0.73598 1.13767,-0.88688 0.1386,-0.0391 0.41762,-0.059 0.80568,-0.0577 0.53406,0.002 0.62714,0.0137 0.92722,0.11797 0.38458,0.13363 0.65332,0.30509 0.81929,0.52268 0.14783,0.19382 0.32066,0.69279 0.26372,0.76139 -0.0225,0.0272 -0.15013,0.0618 -0.28354,0.077 -0.1334,0.0152 -0.29463,0.0378 -0.35829,0.0503 -0.10606,0.0208 -0.12412,0.004 -0.21586,-0.20313 -0.11546,-0.26039 -0.36912,-0.50793 -0.60635,-0.59172 -0.0993,-0.0351 -0.341,-0.0581 -0.6098,-0.0581 -0.51612,0 -0.70435,0.053 -0.93802,0.26411 -0.31572,0.28523 -0.3024,0.67092 0.032,0.92554 0.13598,0.10356 0.35446,0.18354 0.97529,0.35707 1.62336,0.45373 1.90264,0.60024 2.14399,1.12473 0.14818,0.32202 0.13716,0.83949 -0.0255,1.19628 -0.20294,0.44522 -0.73104,0.86616 -1.21245,0.96641 -0.0816,0.017 -0.16908,0.0475 -0.19434,0.0677 -0.0654,0.0525 -0.84676,0.0808 -1.09898,0.0399 z m 5.63974,0.0134 c -0.21456,-0.034 -0.75273,-0.23027 -0.95353,-0.3477 -0.2831,-0.16555 -0.64272,-0.55347 -0.79694,-0.85965 -0.50643,-1.00543 -0.43784,-2.61144 0.14967,-3.50451 0.19515,-0.29664 0.43503,-0.49915 0.79512,-0.67123 0.41273,-0.19723 0.73826,-0.27174 1.18731,-0.27174 0.66099,0 1.17571,0.18636 1.56397,0.56625 0.23606,0.23097 0.47678,0.66016 0.52015,0.92742 0.0284,0.17528 0.0559,0.16054 -0.45049,0.24216 -0.31629,0.051 -0.33135,0.0422 -0.4406,-0.25591 -0.097,-0.26464 -0.33087,-0.52681 -0.59353,-0.66526 -0.19106,-0.10072 -0.26482,-0.11466 -0.5995,-0.11334 -0.29992,0.001 -0.42549,0.0214 -0.58643,0.0944 -0.44893,0.20372 -0.726,0.53045 -0.88893,1.04823 -0.0803,0.25519 -0.0935,0.39371 -0.0933,0.97587 2.6e-4,0.72516 0.0447,0.96492 0.25549,1.38088 0.27589,0.54444 0.96138,0.85276 1.60083,0.72001 0.48273,-0.10021 0.85345,-0.46336 1.01126,-0.99061 0.0501,-0.16753 0.0968,-0.31133 0.10365,-0.31955 0.0204,-0.0245 0.75761,0.0814 0.7873,0.11305 0.0394,0.042 -0.0721,0.43994 -0.19762,0.70517 -0.22782,0.48157 -0.67591,0.89414 -1.15383,1.06238 -0.11132,0.0392 -0.23588,0.0888 -0.27679,0.11036 -0.0861,0.0453 -0.75548,0.0831 -0.9433,0.0533 z m 7.71752,5.8e-4 c -0.0933,-0.01 -0.20778,-0.0351 -0.25442,-0.056 -0.0466,-0.0209 -0.19664,-0.0714 -0.33332,-0.11215 -0.69722,-0.20796 -1.27075,-0.84893 -1.49511,-1.67092 -0.1091,-0.39971 -0.10886,-1.51785 5.3e-4,-1.92508 0.21548,-0.80306 0.61388,-1.31487 1.28699,-1.65335 0.36785,-0.18498 0.7314,-0.2498 1.2619,-0.22501 0.70832,0.0331 1.14533,0.21719 1.5916,0.67044 0.44651,0.45349 0.67218,1.03623 0.70833,1.82908 l 0.0227,0.49825 h -2.02134 c -1.86558,0 -2.02348,0.006 -2.04908,0.0723 -0.0414,0.10776 0.0963,0.71507 0.21886,0.96556 0.32804,0.67051 1.11877,1.039 1.83549,0.85539 0.45794,-0.11732 0.75818,-0.3692 0.97882,-0.82115 l 0.11393,-0.23337 0.3139,0.0282 c 0.43248,0.0389 0.55538,0.0677 0.55538,0.12992 0,0.0294 -0.0783,0.2098 -0.17396,0.40096 -0.27432,0.54807 -0.6964,0.92052 -1.22575,1.08164 -0.12806,0.039 -0.26525,0.0881 -0.30486,0.10921 -0.0835,0.0444 -0.7814,0.0824 -1.03049,0.056 z m 1.84314,-3.38506 c 0.0318,-0.0383 0.0407,-0.1151 0.0234,-0.20142 -0.14435,-0.72151 -0.49363,-1.14818 -1.08328,-1.32328 -0.89717,-0.26643 -1.79041,0.28985 -1.99466,1.2422 -0.0777,0.36254 -0.15845,0.34437 1.5294,0.34437 1.23989,0 1.48191,-0.01 1.52511,-0.0619 z m 9.90277,3.38612 c -0.97303,-0.14054 -1.75119,-0.82675 -1.99435,-1.75869 -0.15787,-0.60507 -0.15755,-1.52303 7.9e-4,-2.13801 0.27838,-1.08143 1.05394,-1.69598 2.20562,-1.7477 0.90985,-0.0409 1.57116,0.25117 1.96365,0.86716 0.12477,0.19582 0.32737,0.72386 0.2915,0.75973 -0.01,0.01 -0.13949,0.0365 -0.28835,0.0595 -0.14885,0.023 -0.32195,0.0522 -0.38467,0.065 -0.1067,0.0217 -0.12325,0.003 -0.25757,-0.28748 -0.26586,-0.57543 -0.70277,-0.83521 -1.31793,-0.78364 -0.98239,0.0824 -1.52142,0.94315 -1.4518,2.31842 0.0509,1.00626 0.32218,1.52363 0.95244,1.81672 0.32512,0.15119 0.85377,0.15735 1.1712,0.0136 0.38673,-0.17508 0.67111,-0.53571 0.78777,-0.99901 0.0272,-0.1082 0.066,-0.2069 0.0861,-0.21932 0.0504,-0.0311 0.72875,0.0639 0.77444,0.10851 0.0562,0.0548 -0.11954,0.58163 -0.29006,0.86961 -0.0829,0.13993 -0.25032,0.34795 -0.37215,0.46226 -0.21053,0.19755 -0.73767,0.49183 -0.88101,0.49183 -0.0368,0 -0.0856,0.0186 -0.10835,0.0414 -0.0457,0.0457 -0.68625,0.0891 -0.88722,0.0601 z m 5.2793,-0.0141 c -0.85762,-0.15292 -1.48415,-0.59595 -1.82152,-1.28801 -0.24155,-0.4955 -0.31292,-0.90616 -0.28762,-1.65493 0.0229,-0.67703 0.0834,-0.95185 0.31426,-1.42731 0.17977,-0.37022 0.58667,-0.80021 0.93384,-0.98682 0.67086,-0.3606 1.67846,-0.3785 2.38017,-0.0423 0.32734,0.15684 0.83984,0.67262 1.00148,1.0079 0.21193,0.4396 0.3515,1.04082 0.3593,1.54775 l 0.004,0.23322 h -2.046 -2.046 l 0.006,0.27562 c 0.0117,0.49691 0.28041,1.02391 0.67551,1.32497 0.29547,0.22515 0.5612,0.30733 0.99397,0.3074 0.32326,4e-5 0.39149,-0.0147 0.64556,-0.1398 0.3135,-0.15434 0.50538,-0.35551 0.69035,-0.72376 l 0.11435,-0.22767 0.34082,0.0297 c 0.18745,0.0163 0.38566,0.0468 0.44047,0.0676 0.0685,0.0261 0.0996,0.0228 0.0996,-0.0105 0,-0.0266 0.0109,-0.0376 0.0242,-0.0243 0.0133,0.0133 0.005,0.0594 -0.019,0.10247 -0.0238,0.0431 -0.10271,0.20784 -0.17547,0.36613 -0.34368,0.74771 -1.14568,1.24307 -2.07493,1.28159 -0.1994,0.008 -0.44841,-2.9e-4 -0.55336,-0.019 z m 1.88135,-3.56457 c -0.0127,-0.52605 -0.32177,-0.99748 -0.81213,-1.23876 -0.26005,-0.12796 -0.31631,-0.13937 -0.68683,-0.13937 -0.3601,0 -0.43075,0.0133 -0.6557,0.12378 -0.13867,0.0681 -0.33534,0.20701 -0.43706,0.30873 -0.20785,0.20785 -0.41786,0.61467 -0.45903,0.8892 -0.0501,0.33438 -0.15833,0.31324 1.53931,0.30078 l 1.51707,-0.0111 z m -62.47667,-0.29688 v -3.73155 l 0.49824,0.002 0.49825,0.002 1.9419,2.90288 c 1.08523,1.6223 1.96911,2.90289 2.00359,2.90289 0.0534,0 0.0617,-0.39101 0.0617,-2.90468 v -2.90467 h 0.44524 0.44524 v 3.7329 3.73289 l -0.49493,-0.0119 -0.49494,-0.012 -1.94519,-2.90467 c -1.06986,-1.59758 -1.97296,-2.91085 -2.0069,-2.91839 -0.0536,-0.0119 -0.0617,0.37377 -0.0617,2.91528 v 2.92898 h -0.44524 -0.44524 z m 19.31389,3.68009 c -0.0115,-0.03 -0.0159,-1.23762 -0.01,-2.6836 l 0.011,-2.62904 0.37104,-0.0123 0.37103,-0.0122 v 0.29501 c 0,0.30437 0.0253,0.42916 0.0871,0.42916 0.0196,0 0.10436,-0.10359 0.1884,-0.2302 0.38918,-0.58632 0.80979,-0.73832 1.47474,-0.53294 0.39098,0.12076 0.40847,0.15284 0.28249,0.51794 -0.1522,0.44112 -0.15177,0.44075 -0.41824,0.35224 -0.4945,-0.16424 -0.98621,-0.008 -1.21779,0.38729 -0.22973,0.39201 -0.241,0.49291 -0.26676,2.38914 l -0.0239,1.75977 -0.41418,0.0122 c -0.30755,0.009 -0.41954,-0.002 -0.43503,-0.0424 z m 20.03703,-2.64119 v -2.69266 h 0.42404 0.42404 v 2.69266 2.69265 h -0.42404 -0.42404 z m 8.25464,2.66438 c -0.0156,-0.0155 -0.0283,-1.22724 -0.0283,-2.69265 v -2.66439 h 0.38164 0.38164 v 0.31553 c 0,0.17354 0.0197,0.32769 0.0437,0.34255 0.024,0.0149 0.14413,-0.0746 0.26685,-0.19891 0.38719,-0.39209 0.86962,-0.58638 1.45601,-0.58638 0.8499,0 1.48249,0.35779 1.71334,0.96906 0.12762,0.3379 0.1716,1.18143 0.15733,3.01692 l -0.0117,1.50534 h -0.42404 -0.42404 l -0.0212,-1.97179 -0.0212,-1.97178 -0.11706,-0.23837 c -0.2505,-0.51009 -0.86103,-0.71206 -1.52163,-0.50338 -0.47118,0.14885 -0.73587,0.41238 -0.89367,0.88976 -0.0862,0.26086 -0.0922,0.37332 -0.10816,2.04639 l -0.0169,1.77037 h -0.39217 c -0.2157,0 -0.4049,-0.0127 -0.42045,-0.0283 z m -8.25464,-6.94565 v -0.48918 h 0.42543 0.42542 l -0.012,0.47704 -0.012,0.47705 -0.41344,0.0121 -0.41343,0.0121 z m -43.54892,-8.62621 v -4.54177 h 0.89182 c 0.81077,0 0.89427,0.007 0.91884,0.0742 0.0706,0.1938 3.63517,5.94818 3.67616,5.93452 0.0337,-0.0112 0.0469,-0.86043 0.0469,-3.01219 v -2.99655 h 0.84202 c 0.75038,1e-5 0.83921,0.007 0.81628,0.0671 -0.0142,0.0369 -0.0257,2.06949 -0.0257,4.51687 v 4.4498 l -0.89838,-0.0114 -0.89837,-0.0115 -1.78534,-2.88347 c -1.04375,-1.68575 -1.81107,-2.88347 -1.84729,-2.88347 -0.0536,0 -0.0634,0.38926 -0.0728,2.89407 l -0.0109,2.89407 h -0.75951 c -0.41773,0 -0.7897,0.0116 -0.82659,0.0257 -0.0609,0.0234 -0.0671,-0.39195 -0.0671,-4.51602 z m 9.23079,4.46287 c -0.016,-0.016 -0.0291,-2.04862 -0.0291,-4.51688 v -4.48776 h 3.10003 c 2.8094,0 3.09762,0.006 3.07429,0.0671 -0.0142,0.0369 -0.0257,0.37083 -0.0257,0.74207 v 0.675 l -2.1308,6.5e-4 c -1.17194,3.6e-4 -2.15499,0.016 -2.18455,0.0348 -0.0416,0.0264 -0.0512,0.27804 -0.0424,1.11246 l 0.0113,1.07834 1.87638,0.011 1.87637,0.011 v 0.72043 0.72043 l -1.83397,6.6e-4 c -1.00868,3.5e-4 -1.85762,0.0157 -1.88653,0.034 -0.0402,0.0256 -0.0552,0.47503 -0.0636,1.91813 l -0.011,1.88475 -0.85076,0.0115 c -0.46792,0.006 -0.86387,-0.002 -0.87989,-0.0177 z m 7.73081,-4.42154 c 0,-2.44692 -0.0123,-4.48112 -0.0274,-4.52043 -0.0256,-0.0666 0.12214,-0.0702 2.1732,-0.0521 1.38151,0.0122 2.24799,0.036 2.32785,0.064 0.07,0.0246 0.26078,0.0751 0.42404,0.11233 0.64209,0.14638 1.31223,0.58276 1.71215,1.11493 0.57882,0.77023 0.85566,1.65263 0.92191,2.93853 0.10035,1.94779 -0.56098,3.57457 -1.73935,4.27854 -0.31685,0.1893 -0.98079,0.41197 -1.39603,0.4682 -0.19482,0.0264 -1.17035,0.0449 -2.36402,0.0449 h -2.03233 z m 4.31036,2.91133 c 0.86325,-0.25226 1.24056,-0.8483 1.37688,-2.17508 0.0581,-0.56506 0.024,-1.57439 -0.0687,-2.03569 -0.0914,-0.45498 -0.33879,-0.96552 -0.58906,-1.21579 -0.23419,-0.23419 -0.62185,-0.43043 -0.97987,-0.49603 -0.13994,-0.0256 -0.68425,-0.0588 -1.20959,-0.0737 -0.86971,-0.0246 -0.9617,-0.0205 -1.02829,0.0461 -0.0678,0.0678 -0.0731,0.2858 -0.0731,3.00871 0,2.29111 0.0116,2.94753 0.053,2.99007 0.079,0.0812 2.21557,0.04 2.51879,-0.0486 z m 4.8065,-2.97754 v -4.51689 h 0.89068 0.89068 l -0.0108,4.50543 -0.0108,4.50542 -0.87988,0.0115 -0.87989,0.0115 z"
       style="fill:#030303;stroke-width:1" />
  </g>
</svg>
