<?xml version="1.0" encoding="utf-8"?>
<!-- Generator: Adobe Illustrator 26.0.1, SVG Export Plug-In . SVG Version: 6.00 Build 0)  -->
<svg version="1.1" id="Ebene_1" xmlns="http://www.w3.org/2000/svg" xmlns:xlink="http://www.w3.org/1999/xlink" x="0px" y="0px"
	 viewBox="0 0 648.53 201.12" style="enable-background:new 0 0 648.53 201.12;" xml:space="preserve">
<style type="text/css">
	.st0{fill:#AFCC50;}
	.st1{fill:#1F99D6;}
	.st2{fill:#142F64;}
</style>
<g id="Logo_MOTOR_CRC_00000165916833537789097850000009250352097267306374_">
	<g>
		<g>
			<path class="st0" d="M206.66,62.18c-2.82-1.37-6.21-0.2-7.59,2.61c-7.28,14.94-16.99,28.3-28.84,39.72
				c-11.45,11.04-24.63,20.01-39.16,26.65c-28.04,12.83-59.7,16.13-89.57,9.42c0.06-2.51-0.34-5.07-1.25-7.57
				c-3.92-10.77-15.83-16.32-26.6-12.4c-10.77,3.92-16.32,15.83-12.4,26.6c3.92,10.77,15.83,16.32,26.6,12.4
				c4.39-1.6,7.92-4.53,10.29-8.17c11.18,2.58,22.6,3.88,34.01,3.88c21.8,0,43.58-4.67,63.64-13.84
				c15.7-7.18,29.94-16.87,42.31-28.8c12.81-12.35,23.29-26.79,31.16-42.92C210.64,66.95,209.47,63.55,206.66,62.18 M23.98,148.96
				c-4.88,1.78-10.28-0.74-12.06-5.62c-1.78-4.88,0.74-10.28,5.62-12.06c4.88-1.78,10.28,0.74,12.06,5.62
				C31.38,141.78,28.86,147.18,23.98,148.96"/>
			<path class="st1" d="M187.54,151.27c-3.58-3-7.87-4.57-12.2-4.8c-9.73-31.85-29.94-59.95-57.23-79.43
				c-14.09-10.06-29.63-17.59-46.2-22.38c-17.14-4.95-34.94-6.83-52.9-5.57c-3.12,0.22-5.48,2.93-5.26,6.06
				c0.22,3.12,2.93,5.48,6.05,5.26c16.63-1.16,33.1,0.57,48.96,5.15c15.33,4.43,29.71,11.39,42.75,20.71
				c25.03,17.88,43.62,43.57,52.72,72.71c-2.2,1.2-4.23,2.81-5.94,4.85c-7.37,8.78-6.22,21.87,2.56,29.24
				c8.78,7.37,21.87,6.22,29.24-2.56C197.47,171.73,196.32,158.64,187.54,151.27 M181.41,173.22c-3.34,3.98-9.27,4.5-13.26,1.16
				c-3.98-3.34-4.5-9.28-1.16-13.26c3.34-3.98,9.28-4.5,13.26-1.16C184.23,163.3,184.75,169.24,181.41,173.22"/>
			<path class="st2" d="M130.03,2.12c-10.3-5.04-22.73-0.77-27.76,9.53c-5.04,10.3-0.77,22.73,9.52,27.76
				c2.39,1.17,4.9,1.82,7.4,2.02c3.5,30.27-3.04,61.25-18.61,87.72c-8.14,13.84-18.47,26.07-30.69,36.35
				c-12.65,10.64-27.02,18.93-42.71,24.62c-2.95,1.07-4.47,4.32-3.4,7.27c0.84,2.31,3.01,3.74,5.33,3.74c0.64,0,1.3-0.11,1.93-0.34
				c16.95-6.15,32.48-15.1,46.15-26.6c13.21-11.12,24.37-24.33,33.17-39.28c16.98-28.85,24.02-62.68,20-95.68
				c3.86-1.97,7.15-5.14,9.2-9.34C144.59,19.58,140.33,7.15,130.03,2.12 M112.46,16.62c2.28-4.67,7.92-6.6,12.59-4.32
				c4.67,2.28,6.6,7.92,4.32,12.59c-2.28,4.67-7.92,6.6-12.59,4.32C112.11,26.93,110.18,21.29,112.46,16.62"/>
		</g>
	</g>
	<g>
		<path class="st2" d="M286.67,60.56c1.29,0,2.32,0.38,3.07,1.13c0.75,0.75,1.13,1.77,1.13,3.07v47.7c0,1.19-0.39,2.18-1.17,2.95
			c-0.78,0.78-1.74,1.17-2.87,1.17c-1.14,0-2.11-0.39-2.91-1.17c-0.8-0.78-1.2-1.76-1.2-2.95V78.59l-12.04,21.21
			c-0.83,1.45-2.07,2.18-3.73,2.18c-1.71,0-2.98-0.73-3.81-2.18l-12.04-21.36v34.02c0,1.19-0.4,2.18-1.2,2.95
			c-0.8,0.78-1.75,1.17-2.84,1.17c-1.14,0-2.11-0.39-2.91-1.17c-0.8-0.78-1.2-1.76-1.2-2.95v-47.7c0-1.29,0.39-2.32,1.17-3.07
			c0.78-0.75,1.79-1.13,3.03-1.13c0.93,0,1.71,0.22,2.33,0.66c0.62,0.44,1.22,1.1,1.79,1.98l15.69,27.19l15.69-27.19
			c0.57-0.88,1.15-1.54,1.75-1.98C284.97,60.79,285.73,60.56,286.67,60.56z"/>
		<path class="st2" d="M320.61,60.56c2.85,0,5.46,0.43,7.85,1.28c2.38,0.85,4.4,2.1,6.06,3.73c1.66,1.63,2.95,3.61,3.88,5.94
			c0.93,2.33,1.4,5,1.4,8v18.1c0,3-0.47,5.67-1.4,8c-0.93,2.33-2.23,4.31-3.88,5.94c-1.66,1.63-3.68,2.87-6.06,3.73
			c-2.38,0.85-5,1.28-7.85,1.28c-2.9,0-5.53-0.43-7.88-1.28c-2.36-0.85-4.38-2.1-6.06-3.73c-1.68-1.63-2.99-3.61-3.92-5.94
			c-0.93-2.33-1.4-5-1.4-8v-18.1c0-3,0.47-5.67,1.4-8c0.93-2.33,2.24-4.31,3.92-5.94c1.68-1.63,3.7-2.87,6.06-3.73
			C315.08,60.99,317.71,60.56,320.61,60.56z M320.61,68.18c-3.42,0-6.11,0.95-8.08,2.84c-1.97,1.89-2.95,4.52-2.95,7.88v19.27
			c0,3.42,0.98,6.07,2.95,7.96c1.97,1.89,4.66,2.84,8.08,2.84s6.1-0.94,8.04-2.84c1.94-1.89,2.91-4.54,2.91-7.96V78.9
			c0-3.37-0.97-5.99-2.91-7.88C326.71,69.12,324.03,68.18,320.61,68.18z"/>
		<path class="st2" d="M377.71,61.34c1.09,0,2.01,0.39,2.76,1.17s1.13,1.68,1.13,2.72c0,1.09-0.38,2.02-1.13,2.8
			s-1.67,1.17-2.76,1.17h-11.73v43.27c0,1.19-0.4,2.18-1.2,2.95c-0.8,0.78-1.77,1.17-2.91,1.17c-1.14,0-2.11-0.39-2.91-1.17
			c-0.8-0.78-1.2-1.76-1.2-2.95V69.19h-11.65c-1.14,0-2.08-0.39-2.84-1.17s-1.13-1.71-1.13-2.8c0-1.04,0.38-1.94,1.13-2.72
			s1.7-1.17,2.84-1.17H377.71z"/>
		<path class="st2" d="M403.19,60.56c2.85,0,5.46,0.43,7.85,1.28c2.38,0.85,4.4,2.1,6.06,3.73c1.66,1.63,2.95,3.61,3.88,5.94
			c0.93,2.33,1.4,5,1.4,8v18.1c0,3-0.47,5.67-1.4,8c-0.93,2.33-2.23,4.31-3.88,5.94c-1.66,1.63-3.68,2.87-6.06,3.73
			c-2.38,0.85-5,1.28-7.85,1.28c-2.9,0-5.53-0.43-7.88-1.28s-4.38-2.1-6.06-3.73c-1.68-1.63-2.99-3.61-3.92-5.94
			c-0.93-2.33-1.4-5-1.4-8v-18.1c0-3,0.47-5.67,1.4-8c0.93-2.33,2.24-4.31,3.92-5.94c1.68-1.63,3.7-2.87,6.06-3.73
			S400.29,60.56,403.19,60.56z M403.19,68.18c-3.42,0-6.11,0.95-8.08,2.84c-1.97,1.89-2.95,4.52-2.95,7.88v19.27
			c0,3.42,0.98,6.07,2.95,7.96c1.97,1.89,4.66,2.84,8.08,2.84s6.1-0.94,8.04-2.84c1.94-1.89,2.91-4.54,2.91-7.96V78.9
			c0-3.37-0.97-5.99-2.91-7.88C409.29,69.12,406.61,68.18,403.19,68.18z"/>
		<path class="st2" d="M451.66,61.34c2.69,0,5.09,0.39,7.19,1.17c2.1,0.78,3.87,1.86,5.32,3.26c1.45,1.4,2.55,3.08,3.3,5.05
			c0.75,1.97,1.13,4.14,1.13,6.53c0,3.88-0.98,7.07-2.95,9.55c-1.97,2.49-4.74,4.17-8.31,5.05l11.11,18.26
			c0.16,0.26,0.3,0.6,0.43,1.01c0.13,0.42,0.19,0.83,0.19,1.24c0,1.14-0.39,2.11-1.17,2.91c-0.78,0.8-1.74,1.2-2.88,1.2
			c-0.73,0-1.41-0.17-2.06-0.5c-0.65-0.34-1.1-0.74-1.36-1.2L448.4,93.04h-7.38v19.42c0,1.24-0.38,2.24-1.13,2.99
			c-0.75,0.75-1.72,1.13-2.91,1.13c-1.19,0-2.17-0.38-2.95-1.13c-0.78-0.75-1.17-1.75-1.17-2.99V66.08c0-1.29,0.48-2.41,1.44-3.34
			c0.96-0.93,2.11-1.4,3.46-1.4H451.66z M441.02,68.95V85.5h10.64c2.85,0,5.02-0.72,6.53-2.17c1.5-1.45,2.25-3.44,2.25-5.98
			c-0.05-2.64-0.83-4.7-2.33-6.18c-1.5-1.48-3.65-2.21-6.45-2.21H441.02z"/>
		<path class="st2" d="M516.53,60.56c2.33,0,4.44,0.25,6.33,0.74c1.89,0.49,3.71,1.23,5.48,2.21c1.81,0.98,2.72,2.28,2.72,3.88
			c0,0.93-0.35,1.79-1.05,2.56s-1.62,1.17-2.76,1.17c-0.47,0-0.89-0.06-1.28-0.19c-0.39-0.13-0.79-0.32-1.2-0.58
			c-1.45-0.78-2.81-1.33-4.08-1.67c-1.27-0.34-2.65-0.5-4.16-0.5c-3.57,0-6.36,0.98-8.35,2.95c-1.99,1.97-2.99,4.69-2.99,8.16v18.57
			c0,3.47,1.01,6.19,3.03,8.16c2.02,1.97,4.79,2.95,8.31,2.95c2.74,0,5.31-0.67,7.69-2.02c0.72-0.41,1.31-0.69,1.75-0.82
			c0.44-0.13,0.87-0.19,1.28-0.19c0.98,0,1.86,0.36,2.64,1.09c0.78,0.73,1.17,1.63,1.17,2.72c0,1.35-0.65,2.49-1.94,3.42
			c-1.81,1.3-3.82,2.19-6.02,2.68c-2.2,0.49-4.39,0.74-6.56,0.74c-2.9,0-5.55-0.44-7.96-1.32s-4.47-2.14-6.18-3.77
			c-1.71-1.63-3.04-3.64-4-6.02c-0.96-2.38-1.44-5.1-1.44-8.16V79.83c0-3.06,0.48-5.79,1.44-8.2c0.96-2.41,2.29-4.43,4-6.06
			c1.71-1.63,3.77-2.87,6.18-3.73S513.63,60.56,516.53,60.56z"/>
		<path class="st2" d="M558.71,61.34c2.69,0,5.09,0.39,7.19,1.17c2.1,0.78,3.87,1.86,5.32,3.26c1.45,1.4,2.55,3.08,3.3,5.05
			c0.75,1.97,1.13,4.14,1.13,6.53c0,3.88-0.98,7.07-2.95,9.55c-1.97,2.49-4.74,4.17-8.31,5.05l11.11,18.26
			c0.16,0.26,0.3,0.6,0.43,1.01c0.13,0.42,0.19,0.83,0.19,1.24c0,1.14-0.39,2.11-1.17,2.91c-0.78,0.8-1.74,1.2-2.88,1.2
			c-0.73,0-1.41-0.17-2.06-0.5c-0.65-0.34-1.1-0.74-1.36-1.2l-13.21-21.83h-7.38v19.42c0,1.24-0.38,2.24-1.13,2.99
			c-0.75,0.75-1.72,1.13-2.91,1.13c-1.19,0-2.17-0.38-2.95-1.13c-0.78-0.75-1.17-1.75-1.17-2.99V66.08c0-1.29,0.48-2.41,1.44-3.34
			c0.96-0.93,2.11-1.4,3.46-1.4H558.71z M548.07,68.95V85.5h10.64c2.85,0,5.02-0.72,6.53-2.17c1.5-1.45,2.25-3.44,2.25-5.98
			c-0.05-2.64-0.83-4.7-2.33-6.18c-1.5-1.48-3.65-2.21-6.45-2.21H548.07z"/>
		<path class="st2" d="M603.61,60.56c2.33,0,4.44,0.25,6.33,0.74c1.89,0.49,3.71,1.23,5.48,2.21c1.81,0.98,2.72,2.28,2.72,3.88
			c0,0.93-0.35,1.79-1.05,2.56s-1.62,1.17-2.76,1.17c-0.47,0-0.89-0.06-1.28-0.19c-0.39-0.13-0.79-0.32-1.2-0.58
			c-1.45-0.78-2.81-1.33-4.08-1.67c-1.27-0.34-2.65-0.5-4.16-0.5c-3.57,0-6.36,0.98-8.35,2.95c-1.99,1.97-2.99,4.69-2.99,8.16v18.57
			c0,3.47,1.01,6.19,3.03,8.16c2.02,1.97,4.79,2.95,8.31,2.95c2.74,0,5.31-0.67,7.69-2.02c0.72-0.41,1.31-0.69,1.75-0.82
			c0.44-0.13,0.87-0.19,1.28-0.19c0.98,0,1.86,0.36,2.64,1.09c0.78,0.73,1.17,1.63,1.17,2.72c0,1.35-0.65,2.49-1.94,3.42
			c-1.81,1.3-3.82,2.19-6.02,2.68c-2.2,0.49-4.39,0.74-6.56,0.74c-2.9,0-5.55-0.44-7.96-1.32s-4.47-2.14-6.18-3.77
			c-1.71-1.63-3.04-3.64-4-6.02c-0.96-2.38-1.44-5.1-1.44-8.16V79.83c0-3.06,0.48-5.79,1.44-8.2c0.96-2.41,2.29-4.43,4-6.06
			c1.71-1.63,3.77-2.87,6.18-3.73S600.71,60.56,603.61,60.56z"/>
	</g>
	<g>
		<path class="st2" d="M626.68,110.08c0-0.5,0.16-0.92,0.48-1.24c0.32-0.32,0.74-0.48,1.24-0.48h18.57c0.46,0,0.84,0.15,1.12,0.44
			c0.28,0.29,0.42,0.66,0.42,1.11c0,0.46-0.14,0.84-0.42,1.14c-0.28,0.29-0.66,0.44-1.12,0.44h-16.36l1.54,2.76
			c0.18,0.28,0.27,0.58,0.27,0.88c0,0.46-0.14,0.83-0.41,1.09s-0.62,0.39-1.05,0.39c-0.26,0-0.5-0.05-0.73-0.17
			s-0.41-0.31-0.58-0.59l-2.76-4.85C626.76,110.67,626.68,110.37,626.68,110.08z"/>
		<path class="st2" d="M626.68,97.12c0-0.44,0.14-0.8,0.41-1.08c0.27-0.27,0.63-0.41,1.08-0.41c0.1,0,0.2,0.01,0.3,0.03
			c0.1,0.02,0.2,0.05,0.3,0.09l11.79,4.15V95.3h-3.48c-0.46,0-0.84-0.15-1.12-0.44c-0.28-0.29-0.42-0.66-0.42-1.11
			c0-0.42,0.14-0.78,0.42-1.08s0.66-0.44,1.12-0.44h3.48V90.6c0-0.42,0.14-0.77,0.42-1.05c0.28-0.27,0.63-0.41,1.03-0.41
			c0.42,0,0.78,0.14,1.06,0.41c0.28,0.27,0.42,0.62,0.42,1.05v1.64h3.51c0.44,0,0.81,0.15,1.09,0.44c0.28,0.29,0.42,0.65,0.42,1.08
			c0,0.44-0.14,0.81-0.42,1.11c-0.28,0.29-0.65,0.44-1.09,0.44h-3.51v6.52c0,0.46-0.16,0.86-0.49,1.2c-0.32,0.33-0.72,0.5-1.18,0.5
			c-0.24,0-0.45-0.04-0.64-0.12l-13.64-4.91c-0.28-0.1-0.5-0.28-0.65-0.53C626.76,97.7,626.68,97.42,626.68,97.12z"/>
		<path class="st2" d="M626.98,75.33c0-0.44,0.15-0.8,0.44-1.08c0.29-0.27,0.64-0.41,1.04-0.41c0.4,0,0.75,0.14,1.05,0.41
			c0.29,0.27,0.44,0.63,0.44,1.08v7.09h5.45c-0.18-0.44-0.31-0.89-0.39-1.33c-0.08-0.44-0.12-0.89-0.12-1.33
			c0-0.95,0.15-1.82,0.45-2.61c0.3-0.79,0.72-1.47,1.26-2.05s1.17-1.02,1.91-1.35c0.74-0.32,1.55-0.48,2.44-0.48h1.49
			c0.89,0,1.71,0.16,2.45,0.48c0.75,0.32,1.39,0.77,1.92,1.35c0.54,0.58,0.96,1.26,1.26,2.05c0.3,0.79,0.45,1.66,0.45,2.61
			c0,1.17-0.1,2.17-0.3,3s-0.46,1.57-0.79,2.21c-0.12,0.26-0.3,0.47-0.54,0.64s-0.5,0.24-0.76,0.24c-0.4,0-0.74-0.13-1.01-0.39
			c-0.27-0.26-0.41-0.61-0.41-1.03c0-0.2,0.04-0.38,0.12-0.55c0.12-0.3,0.24-0.6,0.35-0.88c0.11-0.28,0.2-0.58,0.27-0.88
			c0.07-0.3,0.13-0.64,0.17-1.02c0.04-0.37,0.06-0.82,0.06-1.35c0-1.01-0.3-1.82-0.89-2.44c-0.59-0.62-1.38-0.92-2.35-0.92h-1.49
			c-0.97,0-1.75,0.3-2.33,0.91c-0.58,0.61-0.88,1.42-0.88,2.45c0,0.59,0.06,1.11,0.18,1.56s0.31,0.98,0.58,1.56
			c0.14,0.34,0.21,0.66,0.21,0.94c0,0.5-0.16,0.92-0.48,1.24c-0.32,0.32-0.74,0.48-1.24,0.48h-8.12c-0.54,0-0.99-0.18-1.35-0.53
			s-0.53-0.79-0.53-1.32V75.33z"/>
		<path class="st2" d="M626.68,63.09c0-0.5,0.16-0.92,0.48-1.24c0.32-0.32,0.74-0.48,1.24-0.48h18.57c0.46,0,0.84,0.15,1.12,0.44
			c0.28,0.29,0.42,0.66,0.42,1.11c0,0.47-0.14,0.84-0.42,1.14c-0.28,0.29-0.66,0.44-1.12,0.44h-16.36l1.54,2.76
			c0.18,0.28,0.27,0.58,0.27,0.88c0,0.46-0.14,0.83-0.41,1.09c-0.27,0.26-0.62,0.39-1.05,0.39c-0.26,0-0.5-0.06-0.73-0.17
			c-0.22-0.11-0.41-0.31-0.58-0.59L626.92,64C626.76,63.67,626.68,63.37,626.68,63.09z"/>
	</g>
</g>
</svg>
